G04 EAGLE Gerber RS-274X export*
G75*
%MOMM*%
%FSLAX34Y34*%
%LPD*%
%INSoldermask Top*%
%IPPOS*%
%AMOC8*
5,1,8,0,0,1.08239X$1,22.5*%
G01*
%ADD10C,1.524000*%
%ADD11C,1.727200*%
%ADD12R,1.261200X1.261200*%
%ADD13P,1.869504X8X22.500000*%
%ADD14C,0.959600*%


D10*
X-571500Y946404D02*
X-571500Y933196D01*
X-596900Y933196D02*
X-596900Y946404D01*
X-723900Y946404D02*
X-723900Y933196D01*
X-749300Y933196D02*
X-749300Y946404D01*
X-622300Y946404D02*
X-622300Y933196D01*
X-647700Y933196D02*
X-647700Y946404D01*
X-698500Y946404D02*
X-698500Y933196D01*
X-673100Y933196D02*
X-673100Y946404D01*
X-749300Y870204D02*
X-749300Y856996D01*
X-723900Y856996D02*
X-723900Y870204D01*
X-698500Y870204D02*
X-698500Y856996D01*
X-673100Y856996D02*
X-673100Y870204D01*
X-647700Y870204D02*
X-647700Y856996D01*
X-622300Y856996D02*
X-622300Y870204D01*
X-596900Y870204D02*
X-596900Y856996D01*
X-571500Y856996D02*
X-571500Y870204D01*
X-800100Y933196D02*
X-800100Y946404D01*
X-825500Y946404D02*
X-825500Y933196D01*
X-952500Y933196D02*
X-952500Y946404D01*
X-977900Y946404D02*
X-977900Y933196D01*
X-850900Y933196D02*
X-850900Y946404D01*
X-876300Y946404D02*
X-876300Y933196D01*
X-927100Y933196D02*
X-927100Y946404D01*
X-901700Y946404D02*
X-901700Y933196D01*
X-977900Y870204D02*
X-977900Y856996D01*
X-952500Y856996D02*
X-952500Y870204D01*
X-927100Y870204D02*
X-927100Y856996D01*
X-901700Y856996D02*
X-901700Y870204D01*
X-876300Y870204D02*
X-876300Y856996D01*
X-850900Y856996D02*
X-850900Y870204D01*
X-825500Y870204D02*
X-825500Y856996D01*
X-800100Y856996D02*
X-800100Y870204D01*
X-292100Y933196D02*
X-292100Y946404D01*
X-317500Y946404D02*
X-317500Y933196D01*
X-444500Y933196D02*
X-444500Y946404D01*
X-469900Y946404D02*
X-469900Y933196D01*
X-342900Y933196D02*
X-342900Y946404D01*
X-368300Y946404D02*
X-368300Y933196D01*
X-419100Y933196D02*
X-419100Y946404D01*
X-393700Y946404D02*
X-393700Y933196D01*
X-495300Y933196D02*
X-495300Y946404D01*
X-520700Y946404D02*
X-520700Y933196D01*
X-520700Y870204D02*
X-520700Y856996D01*
X-495300Y856996D02*
X-495300Y870204D01*
X-469900Y870204D02*
X-469900Y856996D01*
X-444500Y856996D02*
X-444500Y870204D01*
X-419100Y870204D02*
X-419100Y856996D01*
X-393700Y856996D02*
X-393700Y870204D01*
X-368300Y870204D02*
X-368300Y856996D01*
X-342900Y856996D02*
X-342900Y870204D01*
X-317500Y870204D02*
X-317500Y856996D01*
X-292100Y856996D02*
X-292100Y870204D01*
X-571500Y806704D02*
X-571500Y793496D01*
X-596900Y793496D02*
X-596900Y806704D01*
X-723900Y806704D02*
X-723900Y793496D01*
X-749300Y793496D02*
X-749300Y806704D01*
X-622300Y806704D02*
X-622300Y793496D01*
X-647700Y793496D02*
X-647700Y806704D01*
X-698500Y806704D02*
X-698500Y793496D01*
X-673100Y793496D02*
X-673100Y806704D01*
X-749300Y730504D02*
X-749300Y717296D01*
X-723900Y717296D02*
X-723900Y730504D01*
X-698500Y730504D02*
X-698500Y717296D01*
X-673100Y717296D02*
X-673100Y730504D01*
X-647700Y730504D02*
X-647700Y717296D01*
X-622300Y717296D02*
X-622300Y730504D01*
X-596900Y730504D02*
X-596900Y717296D01*
X-571500Y717296D02*
X-571500Y730504D01*
X-800100Y793496D02*
X-800100Y806704D01*
X-825500Y806704D02*
X-825500Y793496D01*
X-952500Y793496D02*
X-952500Y806704D01*
X-977900Y806704D02*
X-977900Y793496D01*
X-850900Y793496D02*
X-850900Y806704D01*
X-876300Y806704D02*
X-876300Y793496D01*
X-927100Y793496D02*
X-927100Y806704D01*
X-901700Y806704D02*
X-901700Y793496D01*
X-977900Y730504D02*
X-977900Y717296D01*
X-952500Y717296D02*
X-952500Y730504D01*
X-927100Y730504D02*
X-927100Y717296D01*
X-901700Y717296D02*
X-901700Y730504D01*
X-876300Y730504D02*
X-876300Y717296D01*
X-850900Y717296D02*
X-850900Y730504D01*
X-825500Y730504D02*
X-825500Y717296D01*
X-800100Y717296D02*
X-800100Y730504D01*
X-292100Y793496D02*
X-292100Y806704D01*
X-317500Y806704D02*
X-317500Y793496D01*
X-444500Y793496D02*
X-444500Y806704D01*
X-469900Y806704D02*
X-469900Y793496D01*
X-342900Y793496D02*
X-342900Y806704D01*
X-368300Y806704D02*
X-368300Y793496D01*
X-419100Y793496D02*
X-419100Y806704D01*
X-393700Y806704D02*
X-393700Y793496D01*
X-495300Y793496D02*
X-495300Y806704D01*
X-520700Y806704D02*
X-520700Y793496D01*
X-520700Y730504D02*
X-520700Y717296D01*
X-495300Y717296D02*
X-495300Y730504D01*
X-469900Y730504D02*
X-469900Y717296D01*
X-444500Y717296D02*
X-444500Y730504D01*
X-419100Y730504D02*
X-419100Y717296D01*
X-393700Y717296D02*
X-393700Y730504D01*
X-368300Y730504D02*
X-368300Y717296D01*
X-342900Y717296D02*
X-342900Y730504D01*
X-317500Y730504D02*
X-317500Y717296D01*
X-292100Y717296D02*
X-292100Y730504D01*
X-571500Y667004D02*
X-571500Y653796D01*
X-596900Y653796D02*
X-596900Y667004D01*
X-723900Y667004D02*
X-723900Y653796D01*
X-749300Y653796D02*
X-749300Y667004D01*
X-622300Y667004D02*
X-622300Y653796D01*
X-647700Y653796D02*
X-647700Y667004D01*
X-698500Y667004D02*
X-698500Y653796D01*
X-673100Y653796D02*
X-673100Y667004D01*
X-749300Y590804D02*
X-749300Y577596D01*
X-723900Y577596D02*
X-723900Y590804D01*
X-698500Y590804D02*
X-698500Y577596D01*
X-673100Y577596D02*
X-673100Y590804D01*
X-647700Y590804D02*
X-647700Y577596D01*
X-622300Y577596D02*
X-622300Y590804D01*
X-596900Y590804D02*
X-596900Y577596D01*
X-571500Y577596D02*
X-571500Y590804D01*
X-800100Y653796D02*
X-800100Y667004D01*
X-825500Y667004D02*
X-825500Y653796D01*
X-952500Y653796D02*
X-952500Y667004D01*
X-977900Y667004D02*
X-977900Y653796D01*
X-850900Y653796D02*
X-850900Y667004D01*
X-876300Y667004D02*
X-876300Y653796D01*
X-927100Y653796D02*
X-927100Y667004D01*
X-901700Y667004D02*
X-901700Y653796D01*
X-977900Y590804D02*
X-977900Y577596D01*
X-952500Y577596D02*
X-952500Y590804D01*
X-927100Y590804D02*
X-927100Y577596D01*
X-901700Y577596D02*
X-901700Y590804D01*
X-876300Y590804D02*
X-876300Y577596D01*
X-850900Y577596D02*
X-850900Y590804D01*
X-825500Y590804D02*
X-825500Y577596D01*
X-800100Y577596D02*
X-800100Y590804D01*
X-292100Y653796D02*
X-292100Y667004D01*
X-317500Y667004D02*
X-317500Y653796D01*
X-444500Y653796D02*
X-444500Y667004D01*
X-469900Y667004D02*
X-469900Y653796D01*
X-342900Y653796D02*
X-342900Y667004D01*
X-368300Y667004D02*
X-368300Y653796D01*
X-419100Y653796D02*
X-419100Y667004D01*
X-393700Y667004D02*
X-393700Y653796D01*
X-495300Y653796D02*
X-495300Y667004D01*
X-520700Y667004D02*
X-520700Y653796D01*
X-520700Y590804D02*
X-520700Y577596D01*
X-495300Y577596D02*
X-495300Y590804D01*
X-469900Y590804D02*
X-469900Y577596D01*
X-444500Y577596D02*
X-444500Y590804D01*
X-419100Y590804D02*
X-419100Y577596D01*
X-393700Y577596D02*
X-393700Y590804D01*
X-368300Y590804D02*
X-368300Y577596D01*
X-342900Y577596D02*
X-342900Y590804D01*
X-317500Y590804D02*
X-317500Y577596D01*
X-292100Y577596D02*
X-292100Y590804D01*
D11*
X-185420Y914400D02*
X-170180Y914400D01*
X-170180Y889000D02*
X-185420Y889000D01*
X-185420Y774700D02*
X-170180Y774700D01*
X-170180Y749300D02*
X-185420Y749300D01*
X-185420Y635000D02*
X-170180Y635000D01*
X-170180Y609600D02*
X-185420Y609600D01*
D12*
X-1066800Y38100D03*
X-1041400Y38100D03*
X-1016000Y38100D03*
X-990600Y38100D03*
X-965200Y38100D03*
X-939800Y38100D03*
X-914400Y38100D03*
X-889000Y38100D03*
X-863600Y38100D03*
X-838200Y38100D03*
X-812800Y38100D03*
X-787400Y38100D03*
X-762000Y38100D03*
X-736600Y38100D03*
X-711200Y38100D03*
X-685800Y38100D03*
X-558800Y38100D03*
X-533400Y38100D03*
X-508000Y38100D03*
X-482600Y38100D03*
X-457200Y38100D03*
X-431800Y38100D03*
X-406400Y38100D03*
X-381000Y38100D03*
X-279400Y38100D03*
X-228600Y38100D03*
X-203200Y38100D03*
X-254000Y38100D03*
X-1066800Y63500D03*
X-1041400Y63500D03*
X-1016000Y63500D03*
X-990600Y63500D03*
X-965200Y63500D03*
X-939800Y63500D03*
X-914400Y63500D03*
X-889000Y63500D03*
X-863600Y63500D03*
X-838200Y63500D03*
X-812800Y63500D03*
X-787400Y63500D03*
X-762000Y63500D03*
X-736600Y63500D03*
X-711200Y63500D03*
X-685800Y63500D03*
X-558800Y63500D03*
X-533400Y63500D03*
X-508000Y63500D03*
X-482600Y63500D03*
X-457200Y63500D03*
X-431800Y63500D03*
X-406400Y63500D03*
X-381000Y63500D03*
X-279400Y63500D03*
X-228600Y63500D03*
X-203200Y63500D03*
X-254000Y63500D03*
D10*
X-749300Y133096D02*
X-749300Y146304D01*
X-723900Y146304D02*
X-723900Y133096D01*
X-596900Y133096D02*
X-596900Y146304D01*
X-571500Y146304D02*
X-571500Y133096D01*
X-698500Y133096D02*
X-698500Y146304D01*
X-673100Y146304D02*
X-673100Y133096D01*
X-622300Y133096D02*
X-622300Y146304D01*
X-647700Y146304D02*
X-647700Y133096D01*
X-546100Y133096D02*
X-546100Y146304D01*
X-520700Y146304D02*
X-520700Y133096D01*
X-520700Y209296D02*
X-520700Y222504D01*
X-546100Y222504D02*
X-546100Y209296D01*
X-571500Y209296D02*
X-571500Y222504D01*
X-596900Y222504D02*
X-596900Y209296D01*
X-622300Y209296D02*
X-622300Y222504D01*
X-647700Y222504D02*
X-647700Y209296D01*
X-673100Y209296D02*
X-673100Y222504D01*
X-698500Y222504D02*
X-698500Y209296D01*
X-723900Y209296D02*
X-723900Y222504D01*
X-749300Y222504D02*
X-749300Y209296D01*
X-1028700Y146304D02*
X-1028700Y133096D01*
X-1003300Y133096D02*
X-1003300Y146304D01*
X-876300Y146304D02*
X-876300Y133096D01*
X-850900Y133096D02*
X-850900Y146304D01*
X-977900Y146304D02*
X-977900Y133096D01*
X-952500Y133096D02*
X-952500Y146304D01*
X-901700Y146304D02*
X-901700Y133096D01*
X-927100Y133096D02*
X-927100Y146304D01*
X-825500Y146304D02*
X-825500Y133096D01*
X-800100Y133096D02*
X-800100Y146304D01*
X-800100Y209296D02*
X-800100Y222504D01*
X-825500Y222504D02*
X-825500Y209296D01*
X-850900Y209296D02*
X-850900Y222504D01*
X-876300Y222504D02*
X-876300Y209296D01*
X-901700Y209296D02*
X-901700Y222504D01*
X-927100Y222504D02*
X-927100Y209296D01*
X-952500Y209296D02*
X-952500Y222504D01*
X-977900Y222504D02*
X-977900Y209296D01*
X-1003300Y209296D02*
X-1003300Y222504D01*
X-1028700Y222504D02*
X-1028700Y209296D01*
X-571500Y514096D02*
X-571500Y527304D01*
X-596900Y527304D02*
X-596900Y514096D01*
X-723900Y514096D02*
X-723900Y527304D01*
X-749300Y527304D02*
X-749300Y514096D01*
X-622300Y514096D02*
X-622300Y527304D01*
X-647700Y527304D02*
X-647700Y514096D01*
X-698500Y514096D02*
X-698500Y527304D01*
X-673100Y527304D02*
X-673100Y514096D01*
X-749300Y451104D02*
X-749300Y437896D01*
X-723900Y437896D02*
X-723900Y451104D01*
X-698500Y451104D02*
X-698500Y437896D01*
X-673100Y437896D02*
X-673100Y451104D01*
X-647700Y451104D02*
X-647700Y437896D01*
X-622300Y437896D02*
X-622300Y451104D01*
X-596900Y451104D02*
X-596900Y437896D01*
X-571500Y437896D02*
X-571500Y451104D01*
X-800100Y514096D02*
X-800100Y527304D01*
X-825500Y527304D02*
X-825500Y514096D01*
X-952500Y514096D02*
X-952500Y527304D01*
X-977900Y527304D02*
X-977900Y514096D01*
X-850900Y514096D02*
X-850900Y527304D01*
X-876300Y527304D02*
X-876300Y514096D01*
X-927100Y514096D02*
X-927100Y527304D01*
X-901700Y527304D02*
X-901700Y514096D01*
X-977900Y451104D02*
X-977900Y437896D01*
X-952500Y437896D02*
X-952500Y451104D01*
X-927100Y451104D02*
X-927100Y437896D01*
X-901700Y437896D02*
X-901700Y451104D01*
X-876300Y451104D02*
X-876300Y437896D01*
X-850900Y437896D02*
X-850900Y451104D01*
X-825500Y451104D02*
X-825500Y437896D01*
X-800100Y437896D02*
X-800100Y451104D01*
X-292100Y514096D02*
X-292100Y527304D01*
X-317500Y527304D02*
X-317500Y514096D01*
X-444500Y514096D02*
X-444500Y527304D01*
X-469900Y527304D02*
X-469900Y514096D01*
X-342900Y514096D02*
X-342900Y527304D01*
X-368300Y527304D02*
X-368300Y514096D01*
X-419100Y514096D02*
X-419100Y527304D01*
X-393700Y527304D02*
X-393700Y514096D01*
X-495300Y514096D02*
X-495300Y527304D01*
X-520700Y527304D02*
X-520700Y514096D01*
X-520700Y451104D02*
X-520700Y437896D01*
X-495300Y437896D02*
X-495300Y451104D01*
X-469900Y451104D02*
X-469900Y437896D01*
X-444500Y437896D02*
X-444500Y451104D01*
X-419100Y451104D02*
X-419100Y437896D01*
X-393700Y437896D02*
X-393700Y451104D01*
X-368300Y451104D02*
X-368300Y437896D01*
X-342900Y437896D02*
X-342900Y451104D01*
X-317500Y451104D02*
X-317500Y437896D01*
X-292100Y437896D02*
X-292100Y451104D01*
X-571500Y387604D02*
X-571500Y374396D01*
X-596900Y374396D02*
X-596900Y387604D01*
X-723900Y387604D02*
X-723900Y374396D01*
X-749300Y374396D02*
X-749300Y387604D01*
X-622300Y387604D02*
X-622300Y374396D01*
X-647700Y374396D02*
X-647700Y387604D01*
X-698500Y387604D02*
X-698500Y374396D01*
X-673100Y374396D02*
X-673100Y387604D01*
X-749300Y311404D02*
X-749300Y298196D01*
X-723900Y298196D02*
X-723900Y311404D01*
X-698500Y311404D02*
X-698500Y298196D01*
X-673100Y298196D02*
X-673100Y311404D01*
X-647700Y311404D02*
X-647700Y298196D01*
X-622300Y298196D02*
X-622300Y311404D01*
X-596900Y311404D02*
X-596900Y298196D01*
X-571500Y298196D02*
X-571500Y311404D01*
X-800100Y374396D02*
X-800100Y387604D01*
X-825500Y387604D02*
X-825500Y374396D01*
X-952500Y374396D02*
X-952500Y387604D01*
X-977900Y387604D02*
X-977900Y374396D01*
X-850900Y374396D02*
X-850900Y387604D01*
X-876300Y387604D02*
X-876300Y374396D01*
X-927100Y374396D02*
X-927100Y387604D01*
X-901700Y387604D02*
X-901700Y374396D01*
X-977900Y311404D02*
X-977900Y298196D01*
X-952500Y298196D02*
X-952500Y311404D01*
X-927100Y311404D02*
X-927100Y298196D01*
X-901700Y298196D02*
X-901700Y311404D01*
X-876300Y311404D02*
X-876300Y298196D01*
X-850900Y298196D02*
X-850900Y311404D01*
X-825500Y311404D02*
X-825500Y298196D01*
X-800100Y298196D02*
X-800100Y311404D01*
X-292100Y374396D02*
X-292100Y387604D01*
X-317500Y387604D02*
X-317500Y374396D01*
X-444500Y374396D02*
X-444500Y387604D01*
X-469900Y387604D02*
X-469900Y374396D01*
X-342900Y374396D02*
X-342900Y387604D01*
X-368300Y387604D02*
X-368300Y374396D01*
X-419100Y374396D02*
X-419100Y387604D01*
X-393700Y387604D02*
X-393700Y374396D01*
X-495300Y374396D02*
X-495300Y387604D01*
X-520700Y387604D02*
X-520700Y374396D01*
X-520700Y311404D02*
X-520700Y298196D01*
X-495300Y298196D02*
X-495300Y311404D01*
X-469900Y311404D02*
X-469900Y298196D01*
X-444500Y298196D02*
X-444500Y311404D01*
X-419100Y311404D02*
X-419100Y298196D01*
X-393700Y298196D02*
X-393700Y311404D01*
X-368300Y311404D02*
X-368300Y298196D01*
X-342900Y298196D02*
X-342900Y311404D01*
X-317500Y311404D02*
X-317500Y298196D01*
X-292100Y298196D02*
X-292100Y311404D01*
D11*
X-185420Y495300D02*
X-170180Y495300D01*
X-170180Y469900D02*
X-185420Y469900D01*
X-185420Y355600D02*
X-170180Y355600D01*
X-170180Y330200D02*
X-185420Y330200D01*
D13*
X-177800Y165100D03*
D14*
X-511175Y101600D03*
X-438150Y247650D03*
X-454025Y85725D03*
X-390525Y92075D03*
X-361950Y114300D03*
X-841375Y682625D03*
X-866775Y682625D03*
X-479425Y692150D03*
X-447675Y835025D03*
X-892175Y682625D03*
X-447675Y698500D03*
X-612775Y777875D03*
X-612775Y638175D03*
X-638175Y777875D03*
X-638175Y638175D03*
X-660400Y828675D03*
X-663575Y638175D03*
X-688975Y685800D03*
X-892175Y117475D03*
X-841375Y117475D03*
X-917575Y196850D03*
X-863600Y177800D03*
X-806450Y177800D03*
X-615950Y161925D03*
X-688975Y488950D03*
X-685800Y469900D03*
X-673100Y482600D03*
X-638175Y495300D03*
X-587375Y200025D03*
X-571500Y555625D03*
X-431800Y158750D03*
X-609600Y546100D03*
X-555625Y542925D03*
X-704850Y358775D03*
X-692150Y165100D03*
X-663575Y346075D03*
X-647700Y352425D03*
X-666750Y171450D03*
X-612775Y358775D03*
X-727075Y120650D03*
M02*
