M48
;GenerationSoftware,Autodesk,EAGLE,9.6.1*%
;CreationDate,2020-05-12T13:07:25Z*%
FMAT,2
ICI,OFF
METRIC,TZ,000.000
T5C0.350
T4C0.550
T3C0.813
T2C1.016
%
G90
M71
T2
X-17780Y16510
X-17780Y88900
X-17780Y91440
X-17780Y77470
X-17780Y74930
X-17780Y63500
X-17780Y60960
X-17780Y33020
X-17780Y35560
X-17780Y46990
X-17780Y49530
T3
X-57150Y30480
X-69850Y38100
X-67310Y38100
X-74930Y30480
X-72390Y30480
X-69850Y30480
X-67310Y30480
X-64770Y30480
X-62230Y30480
X-59690Y30480
X-64770Y38100
X-80010Y38100
X-82550Y38100
X-57150Y58420
X-36830Y52070
X-36830Y44450
X-39370Y52070
X-49530Y52070
X-52070Y52070
X-52070Y44450
X-49530Y44450
X-46990Y44450
X-44450Y44450
X-41910Y44450
X-39370Y44450
X-41910Y52070
X-34290Y44450
X-31750Y44450
X-29210Y44450
X-57150Y38100
X-59690Y38100
X-72390Y38100
X-74930Y38100
X-62230Y38100
X-90170Y66040
X-29210Y66040
X-80010Y58420
X-82550Y58420
X-85090Y58420
X-87630Y58420
X-90170Y58420
X-92710Y58420
X-95250Y58420
X-97790Y58420
X-31750Y66040
X-92710Y66040
X-87630Y66040
X-85090Y66040
X-97790Y66040
X-95250Y66040
X-82550Y66040
X-80010Y66040
X-62230Y44450
X-52070Y58420
X-31750Y58420
X-34290Y58420
X-36830Y58420
X-39370Y58420
X-41910Y58420
X-44450Y58420
X-46990Y58420
X-49530Y58420
X-29210Y58420
X-52070Y66040
X-49530Y66040
X-39370Y66040
X-41910Y66040
X-36830Y66040
X-34290Y66040
X-46990Y66040
X-44450Y66040
X-97790Y13970
X-87630Y21590
X-85090Y21590
X-82550Y21590
X-80010Y21590
X-80010Y13970
X-82550Y13970
X-92710Y13970
X-90170Y13970
X-95250Y13970
X-90170Y21590
X-85090Y13970
X-87630Y13970
X-100330Y13970
X-102870Y13970
X-74930Y21590
X-72390Y21590
X-69850Y21590
X-67310Y21590
X-74930Y52070
X-64770Y44450
X-67310Y44450
X-69850Y44450
X-72390Y44450
X-74930Y44450
X-67310Y52070
X-69850Y52070
X-64770Y52070
X-62230Y52070
X-64770Y21590
X-72390Y52070
X-59690Y52070
X-57150Y52070
X-102870Y21590
X-100330Y21590
X-97790Y21590
X-95250Y21590
X-92710Y21590
X-90170Y44450
X-95250Y52070
X-97790Y52070
X-85090Y52070
X-87630Y52070
X-92710Y52070
X-90170Y52070
X-97790Y44450
X-95250Y44450
X-92710Y44450
X-82550Y52070
X-87630Y44450
X-85090Y44450
X-82550Y44450
X-80010Y44450
X-29210Y52070
X-31750Y52070
X-44450Y52070
X-46990Y52070
X-67310Y13970
X-62230Y21590
X-59690Y21590
X-57150Y21590
X-54610Y21590
X-52070Y21590
X-52070Y13970
X-54610Y13970
X-64770Y13970
X-62230Y13970
X-34290Y52070
X-69850Y13970
X-57150Y13970
X-59690Y13970
X-72390Y13970
X-74930Y13970
X-59690Y44450
X-57150Y44450
X-80010Y52070
X-62230Y86360
X-92710Y93980
X-87630Y93980
X-85090Y93980
X-97790Y93980
X-95250Y93980
X-82550Y93980
X-80010Y93980
X-57150Y86360
X-59690Y86360
X-90170Y93980
X-64770Y86360
X-67310Y86360
X-69850Y86360
X-72390Y86360
X-74930Y86360
X-67310Y93980
X-69850Y93980
X-64770Y93980
X-62230Y93980
X-29210Y93980
X-52070Y93980
X-49530Y93980
X-39370Y93980
X-41910Y93980
X-36830Y93980
X-34290Y93980
X-46990Y93980
X-44450Y93980
X-31750Y93980
X-74930Y93980
X-80010Y86360
X-82550Y86360
X-85090Y86360
X-87630Y86360
X-90170Y86360
X-92710Y86360
X-95250Y86360
X-97790Y86360
X-49530Y30480
X-44450Y38100
X-46990Y38100
X-34290Y38100
X-36830Y38100
X-41910Y38100
X-39370Y38100
X-49530Y38100
X-52070Y38100
X-52070Y30480
X-31750Y38100
X-46990Y30480
X-44450Y30480
X-41910Y30480
X-39370Y30480
X-36830Y30480
X-34290Y30480
X-31750Y30480
X-29210Y30480
X-97790Y30480
X-72390Y93980
X-59690Y93980
X-57150Y93980
X-95250Y38100
X-97790Y38100
X-85090Y38100
X-87630Y38100
X-92710Y38100
X-90170Y38100
X-62230Y58420
X-95250Y30480
X-92710Y30480
X-90170Y30480
X-87630Y30480
X-85090Y30480
X-82550Y30480
X-80010Y30480
X-29210Y38100
X-36830Y80010
X-41910Y72390
X-44450Y72390
X-46990Y72390
X-49530Y72390
X-52070Y72390
X-52070Y80010
X-49530Y80010
X-39370Y80010
X-41910Y80010
X-39370Y72390
X-34290Y80010
X-46990Y80010
X-44450Y80010
X-31750Y80010
X-29210Y80010
X-80010Y72390
X-82550Y72390
X-85090Y72390
X-62230Y66040
X-59690Y58420
X-64770Y58420
X-67310Y58420
X-69850Y58420
X-72390Y58420
X-74930Y58420
X-67310Y66040
X-69850Y66040
X-64770Y66040
X-49530Y86360
X-74930Y66040
X-72390Y66040
X-59690Y66040
X-57150Y66040
X-29210Y72390
X-31750Y72390
X-34290Y72390
X-36830Y72390
X-29210Y86360
X-74930Y72390
X-67310Y80010
X-69850Y80010
X-64770Y80010
X-62230Y80010
X-74930Y80010
X-72390Y80010
X-59690Y80010
X-57150Y80010
X-90170Y72390
X-31750Y86360
X-34290Y86360
X-36830Y86360
X-39370Y86360
X-41910Y86360
X-44450Y86360
X-46990Y86360
X-52070Y86360
X-69850Y72390
X-87630Y72390
X-92710Y72390
X-95250Y72390
X-97790Y72390
X-90170Y80010
X-92710Y80010
X-87630Y80010
X-85090Y80010
X-97790Y80010
X-95250Y80010
X-82550Y80010
X-80010Y80010
X-57150Y72390
X-59690Y72390
X-62230Y72390
X-64770Y72390
X-67310Y72390
X-72390Y72390
T4
X-104140Y3810
X-71120Y3810
X-25400Y3810
X-20320Y3810
X-22860Y3810
X-27940Y3810
X-38100Y3810
X-40640Y3810
X-43180Y3810
X-45720Y3810
X-48260Y3810
X-50800Y3810
X-53340Y3810
X-55880Y3810
X-68580Y3810
X-20320Y6350
X-73660Y3810
X-76200Y3810
X-78740Y3810
X-81280Y3810
X-83820Y3810
X-86360Y3810
X-88900Y3810
X-91440Y3810
X-93980Y3810
X-96520Y3810
X-99060Y3810
X-101600Y3810
X-106680Y3810
X-104140Y6350
X-25400Y6350
X-106680Y6350
X-22860Y6350
X-27940Y6350
X-38100Y6350
X-40640Y6350
X-43180Y6350
X-45720Y6350
X-48260Y6350
X-50800Y6350
X-53340Y6350
X-55880Y6350
X-68580Y6350
X-73660Y6350
X-71120Y6350
X-101600Y6350
X-99060Y6350
X-96520Y6350
X-93980Y6350
X-91440Y6350
X-88900Y6350
X-86360Y6350
X-83820Y6350
X-81280Y6350
X-78740Y6350
X-76200Y6350
T5
X-91757Y19685
X-84138Y11747
X-89217Y11747
X-68898Y68580
X-66358Y63817
X-66040Y82868
X-63817Y63817
X-63817Y77788
X-61277Y63817
X-61277Y77788
X-44767Y69850
X-89217Y68263
X-44767Y83503
X-47942Y69215
X-86678Y68263
X-84138Y68263
X-36195Y11430
X-39053Y9208
X-45402Y8573
X-43815Y24765
X-60960Y54610
X-51117Y10160
X-72708Y12065
X-61277Y35878
X-66675Y17145
X-64770Y35243
X-66358Y34608
X-69215Y16510
X-70485Y35878
X-55562Y54292
X-86360Y17780
X-43180Y15875
X-57150Y55562
X-58737Y20003
X-63817Y49530
X-67310Y48260
X-68580Y46990
X-68898Y48895
X-61595Y16192
X-80645Y17780
M30