G04 EAGLE Gerber RS-274X export*
G75*
%MOMM*%
%FSLAX34Y34*%
%LPD*%
%INSilkscreen Bottom*%
%IPPOS*%
%AMOC8*
5,1,8,0,0,1.08239X$1,22.5*%
G01*
%ADD10C,0.152400*%
%ADD11C,0.101600*%


D10*
X-651510Y177800D02*
X-651510Y431800D01*
X-593090Y431800D02*
X-593090Y177800D01*
X-651510Y177800D01*
X-651510Y431800D02*
X-632460Y431800D01*
X-612140Y431800D02*
X-593090Y431800D01*
X-612140Y431800D02*
X-612143Y431553D01*
X-612152Y431305D01*
X-612167Y431058D01*
X-612188Y430812D01*
X-612215Y430566D01*
X-612248Y430321D01*
X-612287Y430076D01*
X-612332Y429833D01*
X-612383Y429591D01*
X-612440Y429350D01*
X-612502Y429111D01*
X-612571Y428873D01*
X-612645Y428637D01*
X-612725Y428403D01*
X-612810Y428171D01*
X-612902Y427941D01*
X-612998Y427713D01*
X-613101Y427488D01*
X-613208Y427265D01*
X-613322Y427045D01*
X-613440Y426828D01*
X-613564Y426613D01*
X-613693Y426402D01*
X-613827Y426194D01*
X-613966Y425989D01*
X-614110Y425788D01*
X-614258Y425590D01*
X-614412Y425396D01*
X-614570Y425206D01*
X-614733Y425020D01*
X-614900Y424838D01*
X-615072Y424660D01*
X-615248Y424486D01*
X-615428Y424316D01*
X-615613Y424151D01*
X-615801Y423991D01*
X-615993Y423835D01*
X-616189Y423683D01*
X-616388Y423537D01*
X-616591Y423395D01*
X-616798Y423259D01*
X-617007Y423127D01*
X-617220Y423001D01*
X-617436Y422880D01*
X-617654Y422764D01*
X-617876Y422654D01*
X-618100Y422549D01*
X-618326Y422449D01*
X-618555Y422355D01*
X-618786Y422267D01*
X-619020Y422184D01*
X-619255Y422107D01*
X-619492Y422036D01*
X-619730Y421970D01*
X-619970Y421911D01*
X-620212Y421857D01*
X-620455Y421809D01*
X-620698Y421767D01*
X-620943Y421731D01*
X-621189Y421701D01*
X-621435Y421677D01*
X-621682Y421659D01*
X-621929Y421647D01*
X-622176Y421641D01*
X-622424Y421641D01*
X-622671Y421647D01*
X-622918Y421659D01*
X-623165Y421677D01*
X-623411Y421701D01*
X-623657Y421731D01*
X-623902Y421767D01*
X-624145Y421809D01*
X-624388Y421857D01*
X-624630Y421911D01*
X-624870Y421970D01*
X-625108Y422036D01*
X-625345Y422107D01*
X-625580Y422184D01*
X-625814Y422267D01*
X-626045Y422355D01*
X-626274Y422449D01*
X-626500Y422549D01*
X-626724Y422654D01*
X-626946Y422764D01*
X-627164Y422880D01*
X-627380Y423001D01*
X-627593Y423127D01*
X-627802Y423259D01*
X-628009Y423395D01*
X-628212Y423537D01*
X-628411Y423683D01*
X-628607Y423835D01*
X-628799Y423991D01*
X-628987Y424151D01*
X-629172Y424316D01*
X-629352Y424486D01*
X-629528Y424660D01*
X-629700Y424838D01*
X-629867Y425020D01*
X-630030Y425206D01*
X-630188Y425396D01*
X-630342Y425590D01*
X-630490Y425788D01*
X-630634Y425989D01*
X-630773Y426194D01*
X-630907Y426402D01*
X-631036Y426613D01*
X-631160Y426828D01*
X-631278Y427045D01*
X-631392Y427265D01*
X-631499Y427488D01*
X-631602Y427713D01*
X-631698Y427941D01*
X-631790Y428171D01*
X-631875Y428403D01*
X-631955Y428637D01*
X-632029Y428873D01*
X-632098Y429111D01*
X-632160Y429350D01*
X-632217Y429591D01*
X-632268Y429833D01*
X-632313Y430076D01*
X-632352Y430321D01*
X-632385Y430566D01*
X-632412Y430812D01*
X-632433Y431058D01*
X-632448Y431305D01*
X-632457Y431553D01*
X-632460Y431800D01*
D11*
X-610108Y309203D02*
X-621792Y305308D01*
X-621792Y313097D02*
X-610108Y309203D01*
X-618871Y312124D02*
X-618871Y306282D01*
X-621792Y317791D02*
X-610108Y317791D01*
X-621792Y317791D02*
X-621792Y322984D01*
X-618546Y327674D02*
X-610108Y327674D01*
X-618546Y327674D02*
X-618659Y327676D01*
X-618772Y327682D01*
X-618885Y327692D01*
X-618998Y327706D01*
X-619110Y327723D01*
X-619221Y327745D01*
X-619331Y327770D01*
X-619441Y327800D01*
X-619549Y327833D01*
X-619656Y327870D01*
X-619762Y327910D01*
X-619866Y327955D01*
X-619969Y328003D01*
X-620070Y328054D01*
X-620169Y328109D01*
X-620266Y328167D01*
X-620361Y328229D01*
X-620454Y328294D01*
X-620544Y328362D01*
X-620632Y328433D01*
X-620718Y328508D01*
X-620801Y328585D01*
X-620881Y328665D01*
X-620958Y328748D01*
X-621033Y328834D01*
X-621104Y328922D01*
X-621172Y329012D01*
X-621237Y329105D01*
X-621299Y329200D01*
X-621357Y329297D01*
X-621412Y329396D01*
X-621463Y329497D01*
X-621511Y329600D01*
X-621556Y329704D01*
X-621596Y329810D01*
X-621633Y329917D01*
X-621666Y330025D01*
X-621696Y330135D01*
X-621721Y330245D01*
X-621743Y330356D01*
X-621760Y330468D01*
X-621774Y330581D01*
X-621784Y330694D01*
X-621790Y330807D01*
X-621792Y330920D01*
X-621790Y331033D01*
X-621784Y331146D01*
X-621774Y331259D01*
X-621760Y331372D01*
X-621743Y331484D01*
X-621721Y331595D01*
X-621696Y331705D01*
X-621666Y331815D01*
X-621633Y331923D01*
X-621596Y332030D01*
X-621556Y332136D01*
X-621511Y332240D01*
X-621463Y332343D01*
X-621412Y332444D01*
X-621357Y332543D01*
X-621299Y332640D01*
X-621237Y332735D01*
X-621172Y332828D01*
X-621104Y332918D01*
X-621033Y333006D01*
X-620958Y333092D01*
X-620881Y333175D01*
X-620801Y333255D01*
X-620718Y333332D01*
X-620632Y333407D01*
X-620544Y333478D01*
X-620454Y333546D01*
X-620361Y333611D01*
X-620266Y333673D01*
X-620169Y333731D01*
X-620070Y333786D01*
X-619969Y333837D01*
X-619866Y333885D01*
X-619762Y333930D01*
X-619656Y333970D01*
X-619549Y334007D01*
X-619441Y334040D01*
X-619331Y334070D01*
X-619221Y334095D01*
X-619110Y334117D01*
X-618998Y334134D01*
X-618885Y334148D01*
X-618772Y334158D01*
X-618659Y334164D01*
X-618546Y334166D01*
X-618546Y334165D02*
X-610108Y334165D01*
X-610108Y343055D02*
X-610110Y343162D01*
X-610116Y343268D01*
X-610126Y343374D01*
X-610139Y343480D01*
X-610157Y343586D01*
X-610178Y343690D01*
X-610203Y343794D01*
X-610232Y343897D01*
X-610264Y343998D01*
X-610301Y344098D01*
X-610341Y344197D01*
X-610384Y344295D01*
X-610431Y344391D01*
X-610482Y344485D01*
X-610536Y344577D01*
X-610593Y344667D01*
X-610653Y344755D01*
X-610717Y344840D01*
X-610784Y344923D01*
X-610854Y345004D01*
X-610926Y345082D01*
X-611002Y345158D01*
X-611080Y345230D01*
X-611161Y345300D01*
X-611244Y345367D01*
X-611329Y345431D01*
X-611417Y345491D01*
X-611507Y345548D01*
X-611599Y345602D01*
X-611693Y345653D01*
X-611789Y345700D01*
X-611887Y345743D01*
X-611986Y345783D01*
X-612086Y345820D01*
X-612187Y345852D01*
X-612290Y345881D01*
X-612394Y345906D01*
X-612498Y345927D01*
X-612604Y345945D01*
X-612710Y345958D01*
X-612816Y345968D01*
X-612922Y345974D01*
X-613029Y345976D01*
X-610108Y343055D02*
X-610110Y342934D01*
X-610116Y342813D01*
X-610126Y342693D01*
X-610139Y342572D01*
X-610157Y342453D01*
X-610178Y342333D01*
X-610203Y342215D01*
X-610232Y342098D01*
X-610265Y341981D01*
X-610301Y341866D01*
X-610342Y341752D01*
X-610385Y341639D01*
X-610433Y341527D01*
X-610484Y341418D01*
X-610539Y341310D01*
X-610597Y341203D01*
X-610658Y341099D01*
X-610723Y340997D01*
X-610791Y340897D01*
X-610862Y340799D01*
X-610936Y340703D01*
X-611013Y340610D01*
X-611094Y340520D01*
X-611177Y340432D01*
X-611263Y340347D01*
X-611352Y340264D01*
X-611443Y340185D01*
X-611537Y340108D01*
X-611633Y340035D01*
X-611731Y339965D01*
X-611832Y339898D01*
X-611935Y339834D01*
X-612040Y339774D01*
X-612147Y339716D01*
X-612255Y339663D01*
X-612365Y339613D01*
X-612477Y339567D01*
X-612590Y339524D01*
X-612705Y339485D01*
X-615301Y345002D02*
X-615223Y345081D01*
X-615143Y345157D01*
X-615060Y345230D01*
X-614974Y345300D01*
X-614887Y345367D01*
X-614796Y345431D01*
X-614704Y345491D01*
X-614610Y345549D01*
X-614513Y345603D01*
X-614415Y345653D01*
X-614315Y345700D01*
X-614214Y345744D01*
X-614111Y345784D01*
X-614006Y345820D01*
X-613901Y345852D01*
X-613794Y345881D01*
X-613687Y345906D01*
X-613578Y345928D01*
X-613469Y345945D01*
X-613360Y345959D01*
X-613250Y345968D01*
X-613139Y345974D01*
X-613029Y345976D01*
X-615301Y345003D02*
X-621792Y339485D01*
X-621792Y345976D01*
X-620818Y350788D02*
X-620169Y350788D01*
X-620169Y351437D01*
X-620818Y351437D01*
X-620818Y350788D01*
X-615625Y350788D02*
X-614976Y350788D01*
X-614976Y351437D01*
X-615625Y351437D01*
X-615625Y350788D01*
X-610108Y357209D02*
X-621792Y357209D01*
X-621792Y358507D02*
X-621792Y355910D01*
X-610108Y355910D02*
X-610108Y358507D01*
X-621792Y365670D02*
X-621792Y368267D01*
X-621792Y365670D02*
X-621790Y365571D01*
X-621784Y365471D01*
X-621775Y365372D01*
X-621762Y365274D01*
X-621745Y365176D01*
X-621724Y365078D01*
X-621699Y364982D01*
X-621671Y364887D01*
X-621639Y364793D01*
X-621604Y364700D01*
X-621565Y364608D01*
X-621522Y364518D01*
X-621477Y364430D01*
X-621427Y364343D01*
X-621375Y364259D01*
X-621319Y364176D01*
X-621261Y364096D01*
X-621199Y364018D01*
X-621134Y363943D01*
X-621066Y363870D01*
X-620996Y363800D01*
X-620923Y363732D01*
X-620848Y363667D01*
X-620770Y363605D01*
X-620690Y363547D01*
X-620607Y363491D01*
X-620523Y363439D01*
X-620436Y363389D01*
X-620348Y363344D01*
X-620258Y363301D01*
X-620166Y363262D01*
X-620073Y363227D01*
X-619979Y363195D01*
X-619884Y363167D01*
X-619788Y363142D01*
X-619690Y363121D01*
X-619592Y363104D01*
X-619494Y363091D01*
X-619395Y363082D01*
X-619295Y363076D01*
X-619196Y363074D01*
X-612704Y363074D01*
X-612704Y363073D02*
X-612605Y363075D01*
X-612505Y363081D01*
X-612406Y363090D01*
X-612308Y363103D01*
X-612210Y363121D01*
X-612112Y363141D01*
X-612016Y363166D01*
X-611920Y363194D01*
X-611826Y363226D01*
X-611733Y363261D01*
X-611642Y363300D01*
X-611552Y363343D01*
X-611463Y363388D01*
X-611377Y363438D01*
X-611292Y363490D01*
X-611210Y363546D01*
X-611130Y363605D01*
X-611052Y363666D01*
X-610976Y363731D01*
X-610903Y363799D01*
X-610833Y363869D01*
X-610765Y363942D01*
X-610700Y364018D01*
X-610639Y364096D01*
X-610580Y364176D01*
X-610524Y364258D01*
X-610472Y364343D01*
X-610423Y364429D01*
X-610377Y364518D01*
X-610334Y364608D01*
X-610295Y364699D01*
X-610260Y364792D01*
X-610228Y364886D01*
X-610200Y364982D01*
X-610175Y365078D01*
X-610155Y365176D01*
X-610137Y365274D01*
X-610124Y365372D01*
X-610115Y365471D01*
X-610109Y365570D01*
X-610107Y365670D01*
X-610108Y365670D02*
X-610108Y368267D01*
X-612704Y372632D02*
X-610108Y375878D01*
X-621792Y375878D01*
X-621792Y379123D02*
X-621792Y372632D01*
X-621792Y384062D02*
X-621792Y387308D01*
X-621790Y387421D01*
X-621784Y387534D01*
X-621774Y387647D01*
X-621760Y387760D01*
X-621743Y387872D01*
X-621721Y387983D01*
X-621696Y388093D01*
X-621666Y388203D01*
X-621633Y388311D01*
X-621596Y388418D01*
X-621556Y388524D01*
X-621511Y388628D01*
X-621463Y388731D01*
X-621412Y388832D01*
X-621357Y388931D01*
X-621299Y389028D01*
X-621237Y389123D01*
X-621172Y389216D01*
X-621104Y389306D01*
X-621033Y389394D01*
X-620958Y389480D01*
X-620881Y389563D01*
X-620801Y389643D01*
X-620718Y389720D01*
X-620632Y389795D01*
X-620544Y389866D01*
X-620454Y389934D01*
X-620361Y389999D01*
X-620266Y390061D01*
X-620169Y390119D01*
X-620070Y390174D01*
X-619969Y390225D01*
X-619866Y390273D01*
X-619762Y390318D01*
X-619656Y390358D01*
X-619549Y390395D01*
X-619441Y390428D01*
X-619331Y390458D01*
X-619221Y390483D01*
X-619110Y390505D01*
X-618998Y390522D01*
X-618885Y390536D01*
X-618772Y390546D01*
X-618659Y390552D01*
X-618546Y390554D01*
X-618433Y390552D01*
X-618320Y390546D01*
X-618207Y390536D01*
X-618094Y390522D01*
X-617982Y390505D01*
X-617871Y390483D01*
X-617761Y390458D01*
X-617651Y390428D01*
X-617543Y390395D01*
X-617436Y390358D01*
X-617330Y390318D01*
X-617226Y390273D01*
X-617123Y390225D01*
X-617022Y390174D01*
X-616923Y390119D01*
X-616826Y390061D01*
X-616731Y389999D01*
X-616638Y389934D01*
X-616548Y389866D01*
X-616460Y389795D01*
X-616374Y389720D01*
X-616291Y389643D01*
X-616211Y389563D01*
X-616134Y389480D01*
X-616059Y389394D01*
X-615988Y389306D01*
X-615920Y389216D01*
X-615855Y389123D01*
X-615793Y389028D01*
X-615735Y388931D01*
X-615680Y388832D01*
X-615629Y388731D01*
X-615581Y388628D01*
X-615536Y388524D01*
X-615496Y388418D01*
X-615459Y388311D01*
X-615426Y388203D01*
X-615396Y388093D01*
X-615371Y387983D01*
X-615349Y387872D01*
X-615332Y387760D01*
X-615318Y387647D01*
X-615308Y387534D01*
X-615302Y387421D01*
X-615300Y387308D01*
X-610108Y387957D02*
X-610108Y384062D01*
X-610108Y387957D02*
X-610110Y388058D01*
X-610116Y388158D01*
X-610126Y388258D01*
X-610139Y388358D01*
X-610157Y388457D01*
X-610178Y388556D01*
X-610203Y388653D01*
X-610232Y388750D01*
X-610265Y388845D01*
X-610301Y388939D01*
X-610341Y389031D01*
X-610384Y389122D01*
X-610431Y389211D01*
X-610481Y389298D01*
X-610535Y389384D01*
X-610592Y389467D01*
X-610652Y389547D01*
X-610715Y389626D01*
X-610782Y389702D01*
X-610851Y389775D01*
X-610923Y389845D01*
X-610997Y389913D01*
X-611074Y389978D01*
X-611154Y390039D01*
X-611236Y390098D01*
X-611320Y390153D01*
X-611406Y390205D01*
X-611494Y390254D01*
X-611584Y390299D01*
X-611676Y390341D01*
X-611769Y390379D01*
X-611864Y390413D01*
X-611959Y390444D01*
X-612056Y390471D01*
X-612154Y390494D01*
X-612253Y390514D01*
X-612353Y390529D01*
X-612453Y390541D01*
X-612553Y390549D01*
X-612654Y390553D01*
X-612754Y390553D01*
X-612855Y390549D01*
X-612955Y390541D01*
X-613055Y390529D01*
X-613155Y390514D01*
X-613254Y390494D01*
X-613352Y390471D01*
X-613449Y390444D01*
X-613544Y390413D01*
X-613639Y390379D01*
X-613732Y390341D01*
X-613824Y390299D01*
X-613914Y390254D01*
X-614002Y390205D01*
X-614088Y390153D01*
X-614172Y390098D01*
X-614254Y390039D01*
X-614334Y389978D01*
X-614411Y389913D01*
X-614485Y389845D01*
X-614557Y389775D01*
X-614626Y389702D01*
X-614693Y389626D01*
X-614756Y389547D01*
X-614816Y389467D01*
X-614873Y389384D01*
X-614927Y389298D01*
X-614977Y389211D01*
X-615024Y389122D01*
X-615067Y389031D01*
X-615107Y388939D01*
X-615143Y388845D01*
X-615176Y388750D01*
X-615205Y388653D01*
X-615230Y388556D01*
X-615251Y388457D01*
X-615269Y388358D01*
X-615282Y388258D01*
X-615292Y388158D01*
X-615298Y388058D01*
X-615300Y387957D01*
X-615301Y387957D02*
X-615301Y385360D01*
X-622808Y219696D02*
X-624106Y219696D01*
X-622808Y219696D02*
X-622808Y226187D01*
X-634492Y222942D01*
X-631896Y231126D02*
X-622808Y233723D01*
X-631896Y231126D02*
X-631896Y237617D01*
X-629299Y235670D02*
X-634492Y235670D01*
X-634492Y242960D02*
X-622808Y242960D01*
X-634492Y242960D02*
X-634492Y248153D01*
X-634492Y255976D02*
X-634490Y256075D01*
X-634484Y256175D01*
X-634475Y256274D01*
X-634462Y256372D01*
X-634445Y256470D01*
X-634424Y256568D01*
X-634399Y256664D01*
X-634371Y256759D01*
X-634339Y256853D01*
X-634304Y256946D01*
X-634265Y257038D01*
X-634222Y257128D01*
X-634177Y257216D01*
X-634127Y257303D01*
X-634075Y257387D01*
X-634019Y257470D01*
X-633961Y257550D01*
X-633899Y257628D01*
X-633834Y257703D01*
X-633766Y257776D01*
X-633696Y257846D01*
X-633623Y257914D01*
X-633548Y257979D01*
X-633470Y258041D01*
X-633390Y258099D01*
X-633307Y258155D01*
X-633223Y258207D01*
X-633136Y258257D01*
X-633048Y258302D01*
X-632958Y258345D01*
X-632866Y258384D01*
X-632773Y258419D01*
X-632679Y258451D01*
X-632584Y258479D01*
X-632488Y258504D01*
X-632390Y258525D01*
X-632292Y258542D01*
X-632194Y258555D01*
X-632095Y258564D01*
X-631995Y258570D01*
X-631896Y258572D01*
X-634492Y255976D02*
X-634490Y255832D01*
X-634484Y255687D01*
X-634475Y255543D01*
X-634462Y255400D01*
X-634445Y255256D01*
X-634424Y255113D01*
X-634399Y254971D01*
X-634371Y254830D01*
X-634339Y254689D01*
X-634303Y254549D01*
X-634264Y254410D01*
X-634221Y254272D01*
X-634174Y254136D01*
X-634124Y254000D01*
X-634070Y253866D01*
X-634013Y253734D01*
X-633952Y253603D01*
X-633888Y253474D01*
X-633820Y253346D01*
X-633750Y253220D01*
X-633675Y253096D01*
X-633598Y252975D01*
X-633517Y252855D01*
X-633434Y252737D01*
X-633347Y252622D01*
X-633257Y252509D01*
X-633164Y252398D01*
X-633069Y252290D01*
X-632970Y252184D01*
X-632869Y252081D01*
X-625404Y252406D02*
X-625305Y252408D01*
X-625205Y252414D01*
X-625106Y252423D01*
X-625008Y252436D01*
X-624910Y252453D01*
X-624812Y252474D01*
X-624716Y252499D01*
X-624621Y252527D01*
X-624527Y252559D01*
X-624434Y252594D01*
X-624342Y252633D01*
X-624252Y252676D01*
X-624164Y252721D01*
X-624077Y252771D01*
X-623993Y252823D01*
X-623910Y252879D01*
X-623830Y252937D01*
X-623752Y252999D01*
X-623677Y253064D01*
X-623604Y253132D01*
X-623534Y253202D01*
X-623466Y253275D01*
X-623401Y253350D01*
X-623339Y253428D01*
X-623281Y253508D01*
X-623225Y253591D01*
X-623173Y253675D01*
X-623123Y253762D01*
X-623078Y253850D01*
X-623035Y253940D01*
X-622996Y254032D01*
X-622961Y254125D01*
X-622929Y254219D01*
X-622901Y254314D01*
X-622876Y254410D01*
X-622855Y254508D01*
X-622838Y254606D01*
X-622825Y254704D01*
X-622816Y254803D01*
X-622810Y254903D01*
X-622808Y255002D01*
X-622810Y255138D01*
X-622816Y255274D01*
X-622825Y255410D01*
X-622838Y255546D01*
X-622856Y255681D01*
X-622876Y255815D01*
X-622901Y255949D01*
X-622929Y256083D01*
X-622962Y256215D01*
X-622997Y256346D01*
X-623037Y256477D01*
X-623080Y256606D01*
X-623126Y256734D01*
X-623177Y256860D01*
X-623230Y256986D01*
X-623288Y257109D01*
X-623348Y257231D01*
X-623412Y257351D01*
X-623480Y257470D01*
X-623550Y257586D01*
X-623624Y257700D01*
X-623701Y257813D01*
X-623782Y257923D01*
X-627676Y253704D02*
X-627623Y253618D01*
X-627566Y253534D01*
X-627507Y253452D01*
X-627444Y253372D01*
X-627378Y253295D01*
X-627310Y253220D01*
X-627238Y253148D01*
X-627164Y253079D01*
X-627087Y253013D01*
X-627008Y252950D01*
X-626926Y252890D01*
X-626842Y252833D01*
X-626756Y252779D01*
X-626668Y252729D01*
X-626578Y252682D01*
X-626487Y252638D01*
X-626393Y252599D01*
X-626299Y252562D01*
X-626203Y252530D01*
X-626105Y252501D01*
X-626007Y252476D01*
X-625908Y252455D01*
X-625808Y252437D01*
X-625708Y252424D01*
X-625607Y252414D01*
X-625505Y252408D01*
X-625404Y252406D01*
X-629624Y257274D02*
X-629677Y257360D01*
X-629734Y257444D01*
X-629793Y257526D01*
X-629856Y257606D01*
X-629922Y257683D01*
X-629990Y257758D01*
X-630062Y257830D01*
X-630136Y257899D01*
X-630213Y257965D01*
X-630292Y258028D01*
X-630374Y258088D01*
X-630458Y258145D01*
X-630544Y258199D01*
X-630632Y258249D01*
X-630722Y258296D01*
X-630813Y258340D01*
X-630907Y258379D01*
X-631001Y258416D01*
X-631097Y258448D01*
X-631195Y258477D01*
X-631293Y258502D01*
X-631392Y258523D01*
X-631492Y258541D01*
X-631592Y258554D01*
X-631693Y258564D01*
X-631795Y258570D01*
X-631896Y258572D01*
X-629624Y257274D02*
X-627676Y253704D01*
X-622808Y266700D02*
X-622810Y266807D01*
X-622816Y266913D01*
X-622826Y267019D01*
X-622839Y267125D01*
X-622857Y267231D01*
X-622878Y267335D01*
X-622903Y267439D01*
X-622932Y267542D01*
X-622964Y267643D01*
X-623001Y267743D01*
X-623041Y267842D01*
X-623084Y267940D01*
X-623131Y268036D01*
X-623182Y268130D01*
X-623236Y268222D01*
X-623293Y268312D01*
X-623353Y268400D01*
X-623417Y268485D01*
X-623484Y268568D01*
X-623554Y268649D01*
X-623626Y268727D01*
X-623702Y268803D01*
X-623780Y268875D01*
X-623861Y268945D01*
X-623944Y269012D01*
X-624029Y269076D01*
X-624117Y269136D01*
X-624207Y269193D01*
X-624299Y269247D01*
X-624393Y269298D01*
X-624489Y269345D01*
X-624587Y269388D01*
X-624686Y269428D01*
X-624786Y269465D01*
X-624887Y269497D01*
X-624990Y269526D01*
X-625094Y269551D01*
X-625198Y269572D01*
X-625304Y269590D01*
X-625410Y269603D01*
X-625516Y269613D01*
X-625622Y269619D01*
X-625729Y269621D01*
X-622808Y266700D02*
X-622810Y266579D01*
X-622816Y266458D01*
X-622826Y266338D01*
X-622839Y266217D01*
X-622857Y266098D01*
X-622878Y265978D01*
X-622903Y265860D01*
X-622932Y265743D01*
X-622965Y265626D01*
X-623001Y265511D01*
X-623042Y265397D01*
X-623085Y265284D01*
X-623133Y265172D01*
X-623184Y265063D01*
X-623239Y264955D01*
X-623297Y264848D01*
X-623358Y264744D01*
X-623423Y264642D01*
X-623491Y264542D01*
X-623562Y264444D01*
X-623636Y264348D01*
X-623713Y264255D01*
X-623794Y264165D01*
X-623877Y264077D01*
X-623963Y263992D01*
X-624052Y263909D01*
X-624143Y263830D01*
X-624237Y263753D01*
X-624333Y263680D01*
X-624431Y263610D01*
X-624532Y263543D01*
X-624635Y263479D01*
X-624740Y263419D01*
X-624847Y263361D01*
X-624955Y263308D01*
X-625065Y263258D01*
X-625177Y263212D01*
X-625290Y263169D01*
X-625405Y263130D01*
X-628001Y268647D02*
X-627923Y268726D01*
X-627843Y268802D01*
X-627760Y268875D01*
X-627674Y268945D01*
X-627587Y269012D01*
X-627496Y269076D01*
X-627404Y269136D01*
X-627310Y269194D01*
X-627213Y269248D01*
X-627115Y269298D01*
X-627015Y269345D01*
X-626914Y269389D01*
X-626811Y269429D01*
X-626706Y269465D01*
X-626601Y269497D01*
X-626494Y269526D01*
X-626387Y269551D01*
X-626278Y269573D01*
X-626169Y269590D01*
X-626060Y269604D01*
X-625950Y269613D01*
X-625839Y269619D01*
X-625729Y269621D01*
X-628001Y268647D02*
X-634492Y263130D01*
X-634492Y269621D01*
X-631896Y274560D02*
X-622808Y277156D01*
X-631896Y274560D02*
X-631896Y281051D01*
X-629299Y279104D02*
X-634492Y279104D01*
X-634492Y285990D02*
X-634492Y289885D01*
X-634490Y289984D01*
X-634484Y290084D01*
X-634475Y290183D01*
X-634462Y290281D01*
X-634445Y290379D01*
X-634424Y290477D01*
X-634399Y290573D01*
X-634371Y290668D01*
X-634339Y290762D01*
X-634304Y290855D01*
X-634265Y290947D01*
X-634222Y291037D01*
X-634177Y291125D01*
X-634127Y291212D01*
X-634075Y291296D01*
X-634019Y291379D01*
X-633961Y291459D01*
X-633899Y291537D01*
X-633834Y291612D01*
X-633766Y291685D01*
X-633696Y291755D01*
X-633623Y291823D01*
X-633548Y291888D01*
X-633470Y291950D01*
X-633390Y292008D01*
X-633307Y292064D01*
X-633223Y292116D01*
X-633136Y292166D01*
X-633048Y292211D01*
X-632958Y292254D01*
X-632866Y292293D01*
X-632773Y292328D01*
X-632679Y292360D01*
X-632584Y292388D01*
X-632488Y292413D01*
X-632390Y292434D01*
X-632292Y292451D01*
X-632194Y292464D01*
X-632095Y292473D01*
X-631995Y292479D01*
X-631896Y292481D01*
X-630597Y292481D01*
X-630498Y292479D01*
X-630398Y292473D01*
X-630299Y292464D01*
X-630201Y292451D01*
X-630103Y292434D01*
X-630005Y292413D01*
X-629909Y292388D01*
X-629814Y292360D01*
X-629720Y292328D01*
X-629627Y292293D01*
X-629535Y292254D01*
X-629445Y292211D01*
X-629357Y292166D01*
X-629270Y292116D01*
X-629186Y292064D01*
X-629103Y292008D01*
X-629023Y291950D01*
X-628945Y291888D01*
X-628870Y291823D01*
X-628797Y291755D01*
X-628727Y291685D01*
X-628659Y291612D01*
X-628594Y291537D01*
X-628532Y291459D01*
X-628474Y291379D01*
X-628418Y291296D01*
X-628366Y291212D01*
X-628316Y291125D01*
X-628271Y291037D01*
X-628228Y290947D01*
X-628189Y290855D01*
X-628154Y290762D01*
X-628122Y290668D01*
X-628094Y290573D01*
X-628069Y290477D01*
X-628048Y290379D01*
X-628031Y290281D01*
X-628018Y290183D01*
X-628009Y290084D01*
X-628003Y289984D01*
X-628001Y289885D01*
X-628001Y285990D01*
X-622808Y285990D01*
X-622808Y292481D01*
X-622808Y297801D02*
X-634492Y297801D01*
X-634492Y304292D02*
X-622808Y297801D01*
X-622808Y304292D02*
X-634492Y304292D01*
D10*
X-651510Y457200D02*
X-651510Y711200D01*
X-593090Y711200D02*
X-593090Y457200D01*
X-651510Y457200D01*
X-651510Y711200D02*
X-632460Y711200D01*
X-612140Y711200D02*
X-593090Y711200D01*
X-612140Y711200D02*
X-612143Y710953D01*
X-612152Y710705D01*
X-612167Y710458D01*
X-612188Y710212D01*
X-612215Y709966D01*
X-612248Y709721D01*
X-612287Y709476D01*
X-612332Y709233D01*
X-612383Y708991D01*
X-612440Y708750D01*
X-612502Y708511D01*
X-612571Y708273D01*
X-612645Y708037D01*
X-612725Y707803D01*
X-612810Y707571D01*
X-612902Y707341D01*
X-612998Y707113D01*
X-613101Y706888D01*
X-613208Y706665D01*
X-613322Y706445D01*
X-613440Y706228D01*
X-613564Y706013D01*
X-613693Y705802D01*
X-613827Y705594D01*
X-613966Y705389D01*
X-614110Y705188D01*
X-614258Y704990D01*
X-614412Y704796D01*
X-614570Y704606D01*
X-614733Y704420D01*
X-614900Y704238D01*
X-615072Y704060D01*
X-615248Y703886D01*
X-615428Y703716D01*
X-615613Y703551D01*
X-615801Y703391D01*
X-615993Y703235D01*
X-616189Y703083D01*
X-616388Y702937D01*
X-616591Y702795D01*
X-616798Y702659D01*
X-617007Y702527D01*
X-617220Y702401D01*
X-617436Y702280D01*
X-617654Y702164D01*
X-617876Y702054D01*
X-618100Y701949D01*
X-618326Y701849D01*
X-618555Y701755D01*
X-618786Y701667D01*
X-619020Y701584D01*
X-619255Y701507D01*
X-619492Y701436D01*
X-619730Y701370D01*
X-619970Y701311D01*
X-620212Y701257D01*
X-620455Y701209D01*
X-620698Y701167D01*
X-620943Y701131D01*
X-621189Y701101D01*
X-621435Y701077D01*
X-621682Y701059D01*
X-621929Y701047D01*
X-622176Y701041D01*
X-622424Y701041D01*
X-622671Y701047D01*
X-622918Y701059D01*
X-623165Y701077D01*
X-623411Y701101D01*
X-623657Y701131D01*
X-623902Y701167D01*
X-624145Y701209D01*
X-624388Y701257D01*
X-624630Y701311D01*
X-624870Y701370D01*
X-625108Y701436D01*
X-625345Y701507D01*
X-625580Y701584D01*
X-625814Y701667D01*
X-626045Y701755D01*
X-626274Y701849D01*
X-626500Y701949D01*
X-626724Y702054D01*
X-626946Y702164D01*
X-627164Y702280D01*
X-627380Y702401D01*
X-627593Y702527D01*
X-627802Y702659D01*
X-628009Y702795D01*
X-628212Y702937D01*
X-628411Y703083D01*
X-628607Y703235D01*
X-628799Y703391D01*
X-628987Y703551D01*
X-629172Y703716D01*
X-629352Y703886D01*
X-629528Y704060D01*
X-629700Y704238D01*
X-629867Y704420D01*
X-630030Y704606D01*
X-630188Y704796D01*
X-630342Y704990D01*
X-630490Y705188D01*
X-630634Y705389D01*
X-630773Y705594D01*
X-630907Y705802D01*
X-631036Y706013D01*
X-631160Y706228D01*
X-631278Y706445D01*
X-631392Y706665D01*
X-631499Y706888D01*
X-631602Y707113D01*
X-631698Y707341D01*
X-631790Y707571D01*
X-631875Y707803D01*
X-631955Y708037D01*
X-632029Y708273D01*
X-632098Y708511D01*
X-632160Y708750D01*
X-632217Y708991D01*
X-632268Y709233D01*
X-632313Y709476D01*
X-632352Y709721D01*
X-632385Y709966D01*
X-632412Y710212D01*
X-632433Y710458D01*
X-632448Y710705D01*
X-632457Y710953D01*
X-632460Y711200D01*
D11*
X-610108Y588603D02*
X-621792Y584708D01*
X-621792Y592497D02*
X-610108Y588603D01*
X-618871Y591524D02*
X-618871Y585682D01*
X-621792Y597191D02*
X-610108Y597191D01*
X-621792Y597191D02*
X-621792Y602384D01*
X-618546Y607074D02*
X-610108Y607074D01*
X-618546Y607074D02*
X-618659Y607076D01*
X-618772Y607082D01*
X-618885Y607092D01*
X-618998Y607106D01*
X-619110Y607123D01*
X-619221Y607145D01*
X-619331Y607170D01*
X-619441Y607200D01*
X-619549Y607233D01*
X-619656Y607270D01*
X-619762Y607310D01*
X-619866Y607355D01*
X-619969Y607403D01*
X-620070Y607454D01*
X-620169Y607509D01*
X-620266Y607567D01*
X-620361Y607629D01*
X-620454Y607694D01*
X-620544Y607762D01*
X-620632Y607833D01*
X-620718Y607908D01*
X-620801Y607985D01*
X-620881Y608065D01*
X-620958Y608148D01*
X-621033Y608234D01*
X-621104Y608322D01*
X-621172Y608412D01*
X-621237Y608505D01*
X-621299Y608600D01*
X-621357Y608697D01*
X-621412Y608796D01*
X-621463Y608897D01*
X-621511Y609000D01*
X-621556Y609104D01*
X-621596Y609210D01*
X-621633Y609317D01*
X-621666Y609425D01*
X-621696Y609535D01*
X-621721Y609645D01*
X-621743Y609756D01*
X-621760Y609868D01*
X-621774Y609981D01*
X-621784Y610094D01*
X-621790Y610207D01*
X-621792Y610320D01*
X-621790Y610433D01*
X-621784Y610546D01*
X-621774Y610659D01*
X-621760Y610772D01*
X-621743Y610884D01*
X-621721Y610995D01*
X-621696Y611105D01*
X-621666Y611215D01*
X-621633Y611323D01*
X-621596Y611430D01*
X-621556Y611536D01*
X-621511Y611640D01*
X-621463Y611743D01*
X-621412Y611844D01*
X-621357Y611943D01*
X-621299Y612040D01*
X-621237Y612135D01*
X-621172Y612228D01*
X-621104Y612318D01*
X-621033Y612406D01*
X-620958Y612492D01*
X-620881Y612575D01*
X-620801Y612655D01*
X-620718Y612732D01*
X-620632Y612807D01*
X-620544Y612878D01*
X-620454Y612946D01*
X-620361Y613011D01*
X-620266Y613073D01*
X-620169Y613131D01*
X-620070Y613186D01*
X-619969Y613237D01*
X-619866Y613285D01*
X-619762Y613330D01*
X-619656Y613370D01*
X-619549Y613407D01*
X-619441Y613440D01*
X-619331Y613470D01*
X-619221Y613495D01*
X-619110Y613517D01*
X-618998Y613534D01*
X-618885Y613548D01*
X-618772Y613558D01*
X-618659Y613564D01*
X-618546Y613566D01*
X-618546Y613565D02*
X-610108Y613565D01*
X-610108Y622455D02*
X-610110Y622562D01*
X-610116Y622668D01*
X-610126Y622774D01*
X-610139Y622880D01*
X-610157Y622986D01*
X-610178Y623090D01*
X-610203Y623194D01*
X-610232Y623297D01*
X-610264Y623398D01*
X-610301Y623498D01*
X-610341Y623597D01*
X-610384Y623695D01*
X-610431Y623791D01*
X-610482Y623885D01*
X-610536Y623977D01*
X-610593Y624067D01*
X-610653Y624155D01*
X-610717Y624240D01*
X-610784Y624323D01*
X-610854Y624404D01*
X-610926Y624482D01*
X-611002Y624558D01*
X-611080Y624630D01*
X-611161Y624700D01*
X-611244Y624767D01*
X-611329Y624831D01*
X-611417Y624891D01*
X-611507Y624948D01*
X-611599Y625002D01*
X-611693Y625053D01*
X-611789Y625100D01*
X-611887Y625143D01*
X-611986Y625183D01*
X-612086Y625220D01*
X-612187Y625252D01*
X-612290Y625281D01*
X-612394Y625306D01*
X-612498Y625327D01*
X-612604Y625345D01*
X-612710Y625358D01*
X-612816Y625368D01*
X-612922Y625374D01*
X-613029Y625376D01*
X-610108Y622455D02*
X-610110Y622334D01*
X-610116Y622213D01*
X-610126Y622093D01*
X-610139Y621972D01*
X-610157Y621853D01*
X-610178Y621733D01*
X-610203Y621615D01*
X-610232Y621498D01*
X-610265Y621381D01*
X-610301Y621266D01*
X-610342Y621152D01*
X-610385Y621039D01*
X-610433Y620927D01*
X-610484Y620818D01*
X-610539Y620710D01*
X-610597Y620603D01*
X-610658Y620499D01*
X-610723Y620397D01*
X-610791Y620297D01*
X-610862Y620199D01*
X-610936Y620103D01*
X-611013Y620010D01*
X-611094Y619920D01*
X-611177Y619832D01*
X-611263Y619747D01*
X-611352Y619664D01*
X-611443Y619585D01*
X-611537Y619508D01*
X-611633Y619435D01*
X-611731Y619365D01*
X-611832Y619298D01*
X-611935Y619234D01*
X-612040Y619174D01*
X-612147Y619116D01*
X-612255Y619063D01*
X-612365Y619013D01*
X-612477Y618967D01*
X-612590Y618924D01*
X-612705Y618885D01*
X-615301Y624402D02*
X-615223Y624481D01*
X-615143Y624557D01*
X-615060Y624630D01*
X-614974Y624700D01*
X-614887Y624767D01*
X-614796Y624831D01*
X-614704Y624891D01*
X-614610Y624949D01*
X-614513Y625003D01*
X-614415Y625053D01*
X-614315Y625100D01*
X-614214Y625144D01*
X-614111Y625184D01*
X-614006Y625220D01*
X-613901Y625252D01*
X-613794Y625281D01*
X-613687Y625306D01*
X-613578Y625328D01*
X-613469Y625345D01*
X-613360Y625359D01*
X-613250Y625368D01*
X-613139Y625374D01*
X-613029Y625376D01*
X-615301Y624403D02*
X-621792Y618885D01*
X-621792Y625376D01*
X-620818Y630188D02*
X-620169Y630188D01*
X-620169Y630837D01*
X-620818Y630837D01*
X-620818Y630188D01*
X-615625Y630188D02*
X-614976Y630188D01*
X-614976Y630837D01*
X-615625Y630837D01*
X-615625Y630188D01*
X-610108Y636609D02*
X-621792Y636609D01*
X-621792Y637907D02*
X-621792Y635310D01*
X-610108Y635310D02*
X-610108Y637907D01*
X-621792Y645070D02*
X-621792Y647667D01*
X-621792Y645070D02*
X-621790Y644971D01*
X-621784Y644871D01*
X-621775Y644772D01*
X-621762Y644674D01*
X-621745Y644576D01*
X-621724Y644478D01*
X-621699Y644382D01*
X-621671Y644287D01*
X-621639Y644193D01*
X-621604Y644100D01*
X-621565Y644008D01*
X-621522Y643918D01*
X-621477Y643830D01*
X-621427Y643743D01*
X-621375Y643659D01*
X-621319Y643576D01*
X-621261Y643496D01*
X-621199Y643418D01*
X-621134Y643343D01*
X-621066Y643270D01*
X-620996Y643200D01*
X-620923Y643132D01*
X-620848Y643067D01*
X-620770Y643005D01*
X-620690Y642947D01*
X-620607Y642891D01*
X-620523Y642839D01*
X-620436Y642789D01*
X-620348Y642744D01*
X-620258Y642701D01*
X-620166Y642662D01*
X-620073Y642627D01*
X-619979Y642595D01*
X-619884Y642567D01*
X-619788Y642542D01*
X-619690Y642521D01*
X-619592Y642504D01*
X-619494Y642491D01*
X-619395Y642482D01*
X-619295Y642476D01*
X-619196Y642474D01*
X-612704Y642474D01*
X-612704Y642473D02*
X-612605Y642475D01*
X-612505Y642481D01*
X-612406Y642490D01*
X-612308Y642503D01*
X-612210Y642521D01*
X-612112Y642541D01*
X-612016Y642566D01*
X-611920Y642594D01*
X-611826Y642626D01*
X-611733Y642661D01*
X-611642Y642700D01*
X-611552Y642743D01*
X-611463Y642788D01*
X-611377Y642838D01*
X-611292Y642890D01*
X-611210Y642946D01*
X-611130Y643005D01*
X-611052Y643066D01*
X-610976Y643131D01*
X-610903Y643199D01*
X-610833Y643269D01*
X-610765Y643342D01*
X-610700Y643418D01*
X-610639Y643496D01*
X-610580Y643576D01*
X-610524Y643658D01*
X-610472Y643743D01*
X-610423Y643829D01*
X-610377Y643918D01*
X-610334Y644008D01*
X-610295Y644099D01*
X-610260Y644192D01*
X-610228Y644286D01*
X-610200Y644382D01*
X-610175Y644478D01*
X-610155Y644576D01*
X-610137Y644674D01*
X-610124Y644772D01*
X-610115Y644871D01*
X-610109Y644970D01*
X-610107Y645070D01*
X-610108Y645070D02*
X-610108Y647667D01*
X-612704Y652032D02*
X-610108Y655278D01*
X-621792Y655278D01*
X-621792Y658523D02*
X-621792Y652032D01*
X-615301Y663462D02*
X-615301Y667357D01*
X-615303Y667456D01*
X-615309Y667556D01*
X-615318Y667655D01*
X-615331Y667753D01*
X-615348Y667851D01*
X-615369Y667949D01*
X-615394Y668045D01*
X-615422Y668140D01*
X-615454Y668234D01*
X-615489Y668327D01*
X-615528Y668419D01*
X-615571Y668509D01*
X-615616Y668597D01*
X-615666Y668684D01*
X-615718Y668768D01*
X-615774Y668851D01*
X-615832Y668931D01*
X-615894Y669009D01*
X-615959Y669084D01*
X-616027Y669157D01*
X-616097Y669227D01*
X-616170Y669295D01*
X-616245Y669360D01*
X-616323Y669422D01*
X-616403Y669480D01*
X-616486Y669536D01*
X-616570Y669588D01*
X-616657Y669638D01*
X-616745Y669683D01*
X-616835Y669726D01*
X-616927Y669765D01*
X-617020Y669800D01*
X-617114Y669832D01*
X-617209Y669860D01*
X-617305Y669885D01*
X-617403Y669906D01*
X-617501Y669923D01*
X-617599Y669936D01*
X-617698Y669945D01*
X-617798Y669951D01*
X-617897Y669953D01*
X-618546Y669953D01*
X-618546Y669954D02*
X-618659Y669952D01*
X-618772Y669946D01*
X-618885Y669936D01*
X-618998Y669922D01*
X-619110Y669905D01*
X-619221Y669883D01*
X-619331Y669858D01*
X-619441Y669828D01*
X-619549Y669795D01*
X-619656Y669758D01*
X-619762Y669718D01*
X-619866Y669673D01*
X-619969Y669625D01*
X-620070Y669574D01*
X-620169Y669519D01*
X-620266Y669461D01*
X-620361Y669399D01*
X-620454Y669334D01*
X-620544Y669266D01*
X-620632Y669195D01*
X-620718Y669120D01*
X-620801Y669043D01*
X-620881Y668963D01*
X-620958Y668880D01*
X-621033Y668794D01*
X-621104Y668706D01*
X-621172Y668616D01*
X-621237Y668523D01*
X-621299Y668428D01*
X-621357Y668331D01*
X-621412Y668232D01*
X-621463Y668131D01*
X-621511Y668028D01*
X-621556Y667924D01*
X-621596Y667818D01*
X-621633Y667711D01*
X-621666Y667603D01*
X-621696Y667493D01*
X-621721Y667383D01*
X-621743Y667272D01*
X-621760Y667160D01*
X-621774Y667047D01*
X-621784Y666934D01*
X-621790Y666821D01*
X-621792Y666708D01*
X-621790Y666595D01*
X-621784Y666482D01*
X-621774Y666369D01*
X-621760Y666256D01*
X-621743Y666144D01*
X-621721Y666033D01*
X-621696Y665923D01*
X-621666Y665813D01*
X-621633Y665705D01*
X-621596Y665598D01*
X-621556Y665492D01*
X-621511Y665388D01*
X-621463Y665285D01*
X-621412Y665184D01*
X-621357Y665085D01*
X-621299Y664988D01*
X-621237Y664893D01*
X-621172Y664800D01*
X-621104Y664710D01*
X-621033Y664622D01*
X-620958Y664536D01*
X-620881Y664453D01*
X-620801Y664373D01*
X-620718Y664296D01*
X-620632Y664221D01*
X-620544Y664150D01*
X-620454Y664082D01*
X-620361Y664017D01*
X-620266Y663955D01*
X-620169Y663897D01*
X-620070Y663842D01*
X-619969Y663791D01*
X-619866Y663743D01*
X-619762Y663698D01*
X-619656Y663658D01*
X-619549Y663621D01*
X-619441Y663588D01*
X-619331Y663558D01*
X-619221Y663533D01*
X-619110Y663511D01*
X-618998Y663494D01*
X-618885Y663480D01*
X-618772Y663470D01*
X-618659Y663464D01*
X-618546Y663462D01*
X-615301Y663462D01*
X-615158Y663464D01*
X-615015Y663470D01*
X-614872Y663480D01*
X-614730Y663494D01*
X-614588Y663511D01*
X-614446Y663533D01*
X-614305Y663558D01*
X-614165Y663588D01*
X-614026Y663621D01*
X-613888Y663658D01*
X-613751Y663699D01*
X-613615Y663743D01*
X-613480Y663792D01*
X-613347Y663844D01*
X-613215Y663899D01*
X-613085Y663959D01*
X-612956Y664022D01*
X-612829Y664088D01*
X-612705Y664158D01*
X-612582Y664231D01*
X-612461Y664308D01*
X-612342Y664387D01*
X-612226Y664471D01*
X-612111Y664557D01*
X-612000Y664646D01*
X-611891Y664739D01*
X-611784Y664834D01*
X-611680Y664933D01*
X-611579Y665034D01*
X-611480Y665138D01*
X-611385Y665244D01*
X-611292Y665354D01*
X-611203Y665465D01*
X-611117Y665579D01*
X-611034Y665696D01*
X-610954Y665815D01*
X-610877Y665936D01*
X-610804Y666058D01*
X-610734Y666183D01*
X-610668Y666310D01*
X-610605Y666439D01*
X-610545Y666569D01*
X-610490Y666701D01*
X-610438Y666834D01*
X-610389Y666969D01*
X-610345Y667105D01*
X-610304Y667242D01*
X-610267Y667380D01*
X-610234Y667519D01*
X-610204Y667659D01*
X-610179Y667800D01*
X-610157Y667942D01*
X-610140Y668084D01*
X-610126Y668226D01*
X-610116Y668369D01*
X-610110Y668512D01*
X-610108Y668655D01*
X-622808Y499096D02*
X-624106Y499096D01*
X-622808Y499096D02*
X-622808Y505587D01*
X-634492Y502342D01*
X-631896Y510526D02*
X-622808Y513123D01*
X-631896Y510526D02*
X-631896Y517017D01*
X-629299Y515070D02*
X-634492Y515070D01*
X-634492Y522360D02*
X-622808Y522360D01*
X-634492Y522360D02*
X-634492Y527553D01*
X-634492Y535376D02*
X-634490Y535475D01*
X-634484Y535575D01*
X-634475Y535674D01*
X-634462Y535772D01*
X-634445Y535870D01*
X-634424Y535968D01*
X-634399Y536064D01*
X-634371Y536159D01*
X-634339Y536253D01*
X-634304Y536346D01*
X-634265Y536438D01*
X-634222Y536528D01*
X-634177Y536616D01*
X-634127Y536703D01*
X-634075Y536787D01*
X-634019Y536870D01*
X-633961Y536950D01*
X-633899Y537028D01*
X-633834Y537103D01*
X-633766Y537176D01*
X-633696Y537246D01*
X-633623Y537314D01*
X-633548Y537379D01*
X-633470Y537441D01*
X-633390Y537499D01*
X-633307Y537555D01*
X-633223Y537607D01*
X-633136Y537657D01*
X-633048Y537702D01*
X-632958Y537745D01*
X-632866Y537784D01*
X-632773Y537819D01*
X-632679Y537851D01*
X-632584Y537879D01*
X-632488Y537904D01*
X-632390Y537925D01*
X-632292Y537942D01*
X-632194Y537955D01*
X-632095Y537964D01*
X-631995Y537970D01*
X-631896Y537972D01*
X-634492Y535376D02*
X-634490Y535232D01*
X-634484Y535087D01*
X-634475Y534943D01*
X-634462Y534800D01*
X-634445Y534656D01*
X-634424Y534513D01*
X-634399Y534371D01*
X-634371Y534230D01*
X-634339Y534089D01*
X-634303Y533949D01*
X-634264Y533810D01*
X-634221Y533672D01*
X-634174Y533536D01*
X-634124Y533400D01*
X-634070Y533266D01*
X-634013Y533134D01*
X-633952Y533003D01*
X-633888Y532874D01*
X-633820Y532746D01*
X-633750Y532620D01*
X-633675Y532496D01*
X-633598Y532375D01*
X-633517Y532255D01*
X-633434Y532137D01*
X-633347Y532022D01*
X-633257Y531909D01*
X-633164Y531798D01*
X-633069Y531690D01*
X-632970Y531584D01*
X-632869Y531481D01*
X-625404Y531806D02*
X-625305Y531808D01*
X-625205Y531814D01*
X-625106Y531823D01*
X-625008Y531836D01*
X-624910Y531853D01*
X-624812Y531874D01*
X-624716Y531899D01*
X-624621Y531927D01*
X-624527Y531959D01*
X-624434Y531994D01*
X-624342Y532033D01*
X-624252Y532076D01*
X-624164Y532121D01*
X-624077Y532171D01*
X-623993Y532223D01*
X-623910Y532279D01*
X-623830Y532337D01*
X-623752Y532399D01*
X-623677Y532464D01*
X-623604Y532532D01*
X-623534Y532602D01*
X-623466Y532675D01*
X-623401Y532750D01*
X-623339Y532828D01*
X-623281Y532908D01*
X-623225Y532991D01*
X-623173Y533075D01*
X-623123Y533162D01*
X-623078Y533250D01*
X-623035Y533340D01*
X-622996Y533432D01*
X-622961Y533525D01*
X-622929Y533619D01*
X-622901Y533714D01*
X-622876Y533810D01*
X-622855Y533908D01*
X-622838Y534006D01*
X-622825Y534104D01*
X-622816Y534203D01*
X-622810Y534303D01*
X-622808Y534402D01*
X-622810Y534538D01*
X-622816Y534674D01*
X-622825Y534810D01*
X-622838Y534946D01*
X-622856Y535081D01*
X-622876Y535215D01*
X-622901Y535349D01*
X-622929Y535483D01*
X-622962Y535615D01*
X-622997Y535746D01*
X-623037Y535877D01*
X-623080Y536006D01*
X-623126Y536134D01*
X-623177Y536260D01*
X-623230Y536386D01*
X-623288Y536509D01*
X-623348Y536631D01*
X-623412Y536751D01*
X-623480Y536870D01*
X-623550Y536986D01*
X-623624Y537100D01*
X-623701Y537213D01*
X-623782Y537323D01*
X-627676Y533104D02*
X-627623Y533018D01*
X-627566Y532934D01*
X-627507Y532852D01*
X-627444Y532772D01*
X-627378Y532695D01*
X-627310Y532620D01*
X-627238Y532548D01*
X-627164Y532479D01*
X-627087Y532413D01*
X-627008Y532350D01*
X-626926Y532290D01*
X-626842Y532233D01*
X-626756Y532179D01*
X-626668Y532129D01*
X-626578Y532082D01*
X-626487Y532038D01*
X-626393Y531999D01*
X-626299Y531962D01*
X-626203Y531930D01*
X-626105Y531901D01*
X-626007Y531876D01*
X-625908Y531855D01*
X-625808Y531837D01*
X-625708Y531824D01*
X-625607Y531814D01*
X-625505Y531808D01*
X-625404Y531806D01*
X-629624Y536674D02*
X-629677Y536760D01*
X-629734Y536844D01*
X-629793Y536926D01*
X-629856Y537006D01*
X-629922Y537083D01*
X-629990Y537158D01*
X-630062Y537230D01*
X-630136Y537299D01*
X-630213Y537365D01*
X-630292Y537428D01*
X-630374Y537488D01*
X-630458Y537545D01*
X-630544Y537599D01*
X-630632Y537649D01*
X-630722Y537696D01*
X-630813Y537740D01*
X-630907Y537779D01*
X-631001Y537816D01*
X-631097Y537848D01*
X-631195Y537877D01*
X-631293Y537902D01*
X-631392Y537923D01*
X-631492Y537941D01*
X-631592Y537954D01*
X-631693Y537964D01*
X-631795Y537970D01*
X-631896Y537972D01*
X-629624Y536674D02*
X-627676Y533104D01*
X-622808Y546100D02*
X-622810Y546207D01*
X-622816Y546313D01*
X-622826Y546419D01*
X-622839Y546525D01*
X-622857Y546631D01*
X-622878Y546735D01*
X-622903Y546839D01*
X-622932Y546942D01*
X-622964Y547043D01*
X-623001Y547143D01*
X-623041Y547242D01*
X-623084Y547340D01*
X-623131Y547436D01*
X-623182Y547530D01*
X-623236Y547622D01*
X-623293Y547712D01*
X-623353Y547800D01*
X-623417Y547885D01*
X-623484Y547968D01*
X-623554Y548049D01*
X-623626Y548127D01*
X-623702Y548203D01*
X-623780Y548275D01*
X-623861Y548345D01*
X-623944Y548412D01*
X-624029Y548476D01*
X-624117Y548536D01*
X-624207Y548593D01*
X-624299Y548647D01*
X-624393Y548698D01*
X-624489Y548745D01*
X-624587Y548788D01*
X-624686Y548828D01*
X-624786Y548865D01*
X-624887Y548897D01*
X-624990Y548926D01*
X-625094Y548951D01*
X-625198Y548972D01*
X-625304Y548990D01*
X-625410Y549003D01*
X-625516Y549013D01*
X-625622Y549019D01*
X-625729Y549021D01*
X-622808Y546100D02*
X-622810Y545979D01*
X-622816Y545858D01*
X-622826Y545738D01*
X-622839Y545617D01*
X-622857Y545498D01*
X-622878Y545378D01*
X-622903Y545260D01*
X-622932Y545143D01*
X-622965Y545026D01*
X-623001Y544911D01*
X-623042Y544797D01*
X-623085Y544684D01*
X-623133Y544572D01*
X-623184Y544463D01*
X-623239Y544355D01*
X-623297Y544248D01*
X-623358Y544144D01*
X-623423Y544042D01*
X-623491Y543942D01*
X-623562Y543844D01*
X-623636Y543748D01*
X-623713Y543655D01*
X-623794Y543565D01*
X-623877Y543477D01*
X-623963Y543392D01*
X-624052Y543309D01*
X-624143Y543230D01*
X-624237Y543153D01*
X-624333Y543080D01*
X-624431Y543010D01*
X-624532Y542943D01*
X-624635Y542879D01*
X-624740Y542819D01*
X-624847Y542761D01*
X-624955Y542708D01*
X-625065Y542658D01*
X-625177Y542612D01*
X-625290Y542569D01*
X-625405Y542530D01*
X-628001Y548047D02*
X-627923Y548126D01*
X-627843Y548202D01*
X-627760Y548275D01*
X-627674Y548345D01*
X-627587Y548412D01*
X-627496Y548476D01*
X-627404Y548536D01*
X-627310Y548594D01*
X-627213Y548648D01*
X-627115Y548698D01*
X-627015Y548745D01*
X-626914Y548789D01*
X-626811Y548829D01*
X-626706Y548865D01*
X-626601Y548897D01*
X-626494Y548926D01*
X-626387Y548951D01*
X-626278Y548973D01*
X-626169Y548990D01*
X-626060Y549004D01*
X-625950Y549013D01*
X-625839Y549019D01*
X-625729Y549021D01*
X-628001Y548047D02*
X-634492Y542530D01*
X-634492Y549021D01*
X-631896Y553960D02*
X-622808Y556556D01*
X-631896Y553960D02*
X-631896Y560451D01*
X-629299Y558504D02*
X-634492Y558504D01*
X-634492Y565390D02*
X-634492Y569285D01*
X-634490Y569384D01*
X-634484Y569484D01*
X-634475Y569583D01*
X-634462Y569681D01*
X-634445Y569779D01*
X-634424Y569877D01*
X-634399Y569973D01*
X-634371Y570068D01*
X-634339Y570162D01*
X-634304Y570255D01*
X-634265Y570347D01*
X-634222Y570437D01*
X-634177Y570525D01*
X-634127Y570612D01*
X-634075Y570696D01*
X-634019Y570779D01*
X-633961Y570859D01*
X-633899Y570937D01*
X-633834Y571012D01*
X-633766Y571085D01*
X-633696Y571155D01*
X-633623Y571223D01*
X-633548Y571288D01*
X-633470Y571350D01*
X-633390Y571408D01*
X-633307Y571464D01*
X-633223Y571516D01*
X-633136Y571566D01*
X-633048Y571611D01*
X-632958Y571654D01*
X-632866Y571693D01*
X-632773Y571728D01*
X-632679Y571760D01*
X-632584Y571788D01*
X-632488Y571813D01*
X-632390Y571834D01*
X-632292Y571851D01*
X-632194Y571864D01*
X-632095Y571873D01*
X-631995Y571879D01*
X-631896Y571881D01*
X-630597Y571881D01*
X-630498Y571879D01*
X-630398Y571873D01*
X-630299Y571864D01*
X-630201Y571851D01*
X-630103Y571834D01*
X-630005Y571813D01*
X-629909Y571788D01*
X-629814Y571760D01*
X-629720Y571728D01*
X-629627Y571693D01*
X-629535Y571654D01*
X-629445Y571611D01*
X-629357Y571566D01*
X-629270Y571516D01*
X-629186Y571464D01*
X-629103Y571408D01*
X-629023Y571350D01*
X-628945Y571288D01*
X-628870Y571223D01*
X-628797Y571155D01*
X-628727Y571085D01*
X-628659Y571012D01*
X-628594Y570937D01*
X-628532Y570859D01*
X-628474Y570779D01*
X-628418Y570696D01*
X-628366Y570612D01*
X-628316Y570525D01*
X-628271Y570437D01*
X-628228Y570347D01*
X-628189Y570255D01*
X-628154Y570162D01*
X-628122Y570068D01*
X-628094Y569973D01*
X-628069Y569877D01*
X-628048Y569779D01*
X-628031Y569681D01*
X-628018Y569583D01*
X-628009Y569484D01*
X-628003Y569384D01*
X-628001Y569285D01*
X-628001Y565390D01*
X-622808Y565390D01*
X-622808Y571881D01*
X-622808Y577201D02*
X-634492Y577201D01*
X-634492Y583692D02*
X-622808Y577201D01*
X-622808Y583692D02*
X-634492Y583692D01*
D10*
X-651510Y736600D02*
X-651510Y990600D01*
X-593090Y990600D02*
X-593090Y736600D01*
X-651510Y736600D01*
X-651510Y990600D02*
X-632460Y990600D01*
X-612140Y990600D02*
X-593090Y990600D01*
X-612140Y990600D02*
X-612143Y990353D01*
X-612152Y990105D01*
X-612167Y989858D01*
X-612188Y989612D01*
X-612215Y989366D01*
X-612248Y989121D01*
X-612287Y988876D01*
X-612332Y988633D01*
X-612383Y988391D01*
X-612440Y988150D01*
X-612502Y987911D01*
X-612571Y987673D01*
X-612645Y987437D01*
X-612725Y987203D01*
X-612810Y986971D01*
X-612902Y986741D01*
X-612998Y986513D01*
X-613101Y986288D01*
X-613208Y986065D01*
X-613322Y985845D01*
X-613440Y985628D01*
X-613564Y985413D01*
X-613693Y985202D01*
X-613827Y984994D01*
X-613966Y984789D01*
X-614110Y984588D01*
X-614258Y984390D01*
X-614412Y984196D01*
X-614570Y984006D01*
X-614733Y983820D01*
X-614900Y983638D01*
X-615072Y983460D01*
X-615248Y983286D01*
X-615428Y983116D01*
X-615613Y982951D01*
X-615801Y982791D01*
X-615993Y982635D01*
X-616189Y982483D01*
X-616388Y982337D01*
X-616591Y982195D01*
X-616798Y982059D01*
X-617007Y981927D01*
X-617220Y981801D01*
X-617436Y981680D01*
X-617654Y981564D01*
X-617876Y981454D01*
X-618100Y981349D01*
X-618326Y981249D01*
X-618555Y981155D01*
X-618786Y981067D01*
X-619020Y980984D01*
X-619255Y980907D01*
X-619492Y980836D01*
X-619730Y980770D01*
X-619970Y980711D01*
X-620212Y980657D01*
X-620455Y980609D01*
X-620698Y980567D01*
X-620943Y980531D01*
X-621189Y980501D01*
X-621435Y980477D01*
X-621682Y980459D01*
X-621929Y980447D01*
X-622176Y980441D01*
X-622424Y980441D01*
X-622671Y980447D01*
X-622918Y980459D01*
X-623165Y980477D01*
X-623411Y980501D01*
X-623657Y980531D01*
X-623902Y980567D01*
X-624145Y980609D01*
X-624388Y980657D01*
X-624630Y980711D01*
X-624870Y980770D01*
X-625108Y980836D01*
X-625345Y980907D01*
X-625580Y980984D01*
X-625814Y981067D01*
X-626045Y981155D01*
X-626274Y981249D01*
X-626500Y981349D01*
X-626724Y981454D01*
X-626946Y981564D01*
X-627164Y981680D01*
X-627380Y981801D01*
X-627593Y981927D01*
X-627802Y982059D01*
X-628009Y982195D01*
X-628212Y982337D01*
X-628411Y982483D01*
X-628607Y982635D01*
X-628799Y982791D01*
X-628987Y982951D01*
X-629172Y983116D01*
X-629352Y983286D01*
X-629528Y983460D01*
X-629700Y983638D01*
X-629867Y983820D01*
X-630030Y984006D01*
X-630188Y984196D01*
X-630342Y984390D01*
X-630490Y984588D01*
X-630634Y984789D01*
X-630773Y984994D01*
X-630907Y985202D01*
X-631036Y985413D01*
X-631160Y985628D01*
X-631278Y985845D01*
X-631392Y986065D01*
X-631499Y986288D01*
X-631602Y986513D01*
X-631698Y986741D01*
X-631790Y986971D01*
X-631875Y987203D01*
X-631955Y987437D01*
X-632029Y987673D01*
X-632098Y987911D01*
X-632160Y988150D01*
X-632217Y988391D01*
X-632268Y988633D01*
X-632313Y988876D01*
X-632352Y989121D01*
X-632385Y989366D01*
X-632412Y989612D01*
X-632433Y989858D01*
X-632448Y990105D01*
X-632457Y990353D01*
X-632460Y990600D01*
D11*
X-610108Y868003D02*
X-621792Y864108D01*
X-621792Y871897D02*
X-610108Y868003D01*
X-618871Y870924D02*
X-618871Y865082D01*
X-621792Y876591D02*
X-610108Y876591D01*
X-621792Y876591D02*
X-621792Y881784D01*
X-618546Y886474D02*
X-610108Y886474D01*
X-618546Y886474D02*
X-618659Y886476D01*
X-618772Y886482D01*
X-618885Y886492D01*
X-618998Y886506D01*
X-619110Y886523D01*
X-619221Y886545D01*
X-619331Y886570D01*
X-619441Y886600D01*
X-619549Y886633D01*
X-619656Y886670D01*
X-619762Y886710D01*
X-619866Y886755D01*
X-619969Y886803D01*
X-620070Y886854D01*
X-620169Y886909D01*
X-620266Y886967D01*
X-620361Y887029D01*
X-620454Y887094D01*
X-620544Y887162D01*
X-620632Y887233D01*
X-620718Y887308D01*
X-620801Y887385D01*
X-620881Y887465D01*
X-620958Y887548D01*
X-621033Y887634D01*
X-621104Y887722D01*
X-621172Y887812D01*
X-621237Y887905D01*
X-621299Y888000D01*
X-621357Y888097D01*
X-621412Y888196D01*
X-621463Y888297D01*
X-621511Y888400D01*
X-621556Y888504D01*
X-621596Y888610D01*
X-621633Y888717D01*
X-621666Y888825D01*
X-621696Y888935D01*
X-621721Y889045D01*
X-621743Y889156D01*
X-621760Y889268D01*
X-621774Y889381D01*
X-621784Y889494D01*
X-621790Y889607D01*
X-621792Y889720D01*
X-621790Y889833D01*
X-621784Y889946D01*
X-621774Y890059D01*
X-621760Y890172D01*
X-621743Y890284D01*
X-621721Y890395D01*
X-621696Y890505D01*
X-621666Y890615D01*
X-621633Y890723D01*
X-621596Y890830D01*
X-621556Y890936D01*
X-621511Y891040D01*
X-621463Y891143D01*
X-621412Y891244D01*
X-621357Y891343D01*
X-621299Y891440D01*
X-621237Y891535D01*
X-621172Y891628D01*
X-621104Y891718D01*
X-621033Y891806D01*
X-620958Y891892D01*
X-620881Y891975D01*
X-620801Y892055D01*
X-620718Y892132D01*
X-620632Y892207D01*
X-620544Y892278D01*
X-620454Y892346D01*
X-620361Y892411D01*
X-620266Y892473D01*
X-620169Y892531D01*
X-620070Y892586D01*
X-619969Y892637D01*
X-619866Y892685D01*
X-619762Y892730D01*
X-619656Y892770D01*
X-619549Y892807D01*
X-619441Y892840D01*
X-619331Y892870D01*
X-619221Y892895D01*
X-619110Y892917D01*
X-618998Y892934D01*
X-618885Y892948D01*
X-618772Y892958D01*
X-618659Y892964D01*
X-618546Y892966D01*
X-618546Y892965D02*
X-610108Y892965D01*
X-610108Y901855D02*
X-610110Y901962D01*
X-610116Y902068D01*
X-610126Y902174D01*
X-610139Y902280D01*
X-610157Y902386D01*
X-610178Y902490D01*
X-610203Y902594D01*
X-610232Y902697D01*
X-610264Y902798D01*
X-610301Y902898D01*
X-610341Y902997D01*
X-610384Y903095D01*
X-610431Y903191D01*
X-610482Y903285D01*
X-610536Y903377D01*
X-610593Y903467D01*
X-610653Y903555D01*
X-610717Y903640D01*
X-610784Y903723D01*
X-610854Y903804D01*
X-610926Y903882D01*
X-611002Y903958D01*
X-611080Y904030D01*
X-611161Y904100D01*
X-611244Y904167D01*
X-611329Y904231D01*
X-611417Y904291D01*
X-611507Y904348D01*
X-611599Y904402D01*
X-611693Y904453D01*
X-611789Y904500D01*
X-611887Y904543D01*
X-611986Y904583D01*
X-612086Y904620D01*
X-612187Y904652D01*
X-612290Y904681D01*
X-612394Y904706D01*
X-612498Y904727D01*
X-612604Y904745D01*
X-612710Y904758D01*
X-612816Y904768D01*
X-612922Y904774D01*
X-613029Y904776D01*
X-610108Y901855D02*
X-610110Y901734D01*
X-610116Y901613D01*
X-610126Y901493D01*
X-610139Y901372D01*
X-610157Y901253D01*
X-610178Y901133D01*
X-610203Y901015D01*
X-610232Y900898D01*
X-610265Y900781D01*
X-610301Y900666D01*
X-610342Y900552D01*
X-610385Y900439D01*
X-610433Y900327D01*
X-610484Y900218D01*
X-610539Y900110D01*
X-610597Y900003D01*
X-610658Y899899D01*
X-610723Y899797D01*
X-610791Y899697D01*
X-610862Y899599D01*
X-610936Y899503D01*
X-611013Y899410D01*
X-611094Y899320D01*
X-611177Y899232D01*
X-611263Y899147D01*
X-611352Y899064D01*
X-611443Y898985D01*
X-611537Y898908D01*
X-611633Y898835D01*
X-611731Y898765D01*
X-611832Y898698D01*
X-611935Y898634D01*
X-612040Y898574D01*
X-612147Y898516D01*
X-612255Y898463D01*
X-612365Y898413D01*
X-612477Y898367D01*
X-612590Y898324D01*
X-612705Y898285D01*
X-615301Y903802D02*
X-615223Y903881D01*
X-615143Y903957D01*
X-615060Y904030D01*
X-614974Y904100D01*
X-614887Y904167D01*
X-614796Y904231D01*
X-614704Y904291D01*
X-614610Y904349D01*
X-614513Y904403D01*
X-614415Y904453D01*
X-614315Y904500D01*
X-614214Y904544D01*
X-614111Y904584D01*
X-614006Y904620D01*
X-613901Y904652D01*
X-613794Y904681D01*
X-613687Y904706D01*
X-613578Y904728D01*
X-613469Y904745D01*
X-613360Y904759D01*
X-613250Y904768D01*
X-613139Y904774D01*
X-613029Y904776D01*
X-615301Y903803D02*
X-621792Y898285D01*
X-621792Y904776D01*
X-620818Y909588D02*
X-620169Y909588D01*
X-620169Y910237D01*
X-620818Y910237D01*
X-620818Y909588D01*
X-615625Y909588D02*
X-614976Y909588D01*
X-614976Y910237D01*
X-615625Y910237D01*
X-615625Y909588D01*
X-610108Y916009D02*
X-621792Y916009D01*
X-621792Y917307D02*
X-621792Y914710D01*
X-610108Y914710D02*
X-610108Y917307D01*
X-621792Y924470D02*
X-621792Y927067D01*
X-621792Y924470D02*
X-621790Y924371D01*
X-621784Y924271D01*
X-621775Y924172D01*
X-621762Y924074D01*
X-621745Y923976D01*
X-621724Y923878D01*
X-621699Y923782D01*
X-621671Y923687D01*
X-621639Y923593D01*
X-621604Y923500D01*
X-621565Y923408D01*
X-621522Y923318D01*
X-621477Y923230D01*
X-621427Y923143D01*
X-621375Y923059D01*
X-621319Y922976D01*
X-621261Y922896D01*
X-621199Y922818D01*
X-621134Y922743D01*
X-621066Y922670D01*
X-620996Y922600D01*
X-620923Y922532D01*
X-620848Y922467D01*
X-620770Y922405D01*
X-620690Y922347D01*
X-620607Y922291D01*
X-620523Y922239D01*
X-620436Y922189D01*
X-620348Y922144D01*
X-620258Y922101D01*
X-620166Y922062D01*
X-620073Y922027D01*
X-619979Y921995D01*
X-619884Y921967D01*
X-619788Y921942D01*
X-619690Y921921D01*
X-619592Y921904D01*
X-619494Y921891D01*
X-619395Y921882D01*
X-619295Y921876D01*
X-619196Y921874D01*
X-612704Y921874D01*
X-612704Y921873D02*
X-612605Y921875D01*
X-612505Y921881D01*
X-612406Y921890D01*
X-612308Y921903D01*
X-612210Y921921D01*
X-612112Y921941D01*
X-612016Y921966D01*
X-611920Y921994D01*
X-611826Y922026D01*
X-611733Y922061D01*
X-611642Y922100D01*
X-611552Y922143D01*
X-611463Y922188D01*
X-611377Y922238D01*
X-611292Y922290D01*
X-611210Y922346D01*
X-611130Y922405D01*
X-611052Y922466D01*
X-610976Y922531D01*
X-610903Y922599D01*
X-610833Y922669D01*
X-610765Y922742D01*
X-610700Y922818D01*
X-610639Y922896D01*
X-610580Y922976D01*
X-610524Y923058D01*
X-610472Y923143D01*
X-610423Y923229D01*
X-610377Y923318D01*
X-610334Y923408D01*
X-610295Y923499D01*
X-610260Y923592D01*
X-610228Y923686D01*
X-610200Y923782D01*
X-610175Y923878D01*
X-610155Y923976D01*
X-610137Y924074D01*
X-610124Y924172D01*
X-610115Y924271D01*
X-610109Y924370D01*
X-610107Y924470D01*
X-610108Y924470D02*
X-610108Y927067D01*
X-618546Y931432D02*
X-618433Y931434D01*
X-618320Y931440D01*
X-618207Y931450D01*
X-618094Y931464D01*
X-617982Y931481D01*
X-617871Y931503D01*
X-617761Y931528D01*
X-617651Y931558D01*
X-617543Y931591D01*
X-617436Y931628D01*
X-617330Y931668D01*
X-617226Y931713D01*
X-617123Y931761D01*
X-617022Y931812D01*
X-616923Y931867D01*
X-616826Y931925D01*
X-616731Y931987D01*
X-616638Y932052D01*
X-616548Y932120D01*
X-616460Y932191D01*
X-616374Y932266D01*
X-616291Y932343D01*
X-616211Y932423D01*
X-616134Y932506D01*
X-616059Y932592D01*
X-615988Y932680D01*
X-615920Y932770D01*
X-615855Y932863D01*
X-615793Y932958D01*
X-615735Y933055D01*
X-615680Y933154D01*
X-615629Y933255D01*
X-615581Y933358D01*
X-615536Y933462D01*
X-615496Y933568D01*
X-615459Y933675D01*
X-615426Y933783D01*
X-615396Y933893D01*
X-615371Y934003D01*
X-615349Y934114D01*
X-615332Y934226D01*
X-615318Y934339D01*
X-615308Y934452D01*
X-615302Y934565D01*
X-615300Y934678D01*
X-615302Y934791D01*
X-615308Y934904D01*
X-615318Y935017D01*
X-615332Y935130D01*
X-615349Y935242D01*
X-615371Y935353D01*
X-615396Y935463D01*
X-615426Y935573D01*
X-615459Y935681D01*
X-615496Y935788D01*
X-615536Y935894D01*
X-615581Y935998D01*
X-615629Y936101D01*
X-615680Y936202D01*
X-615735Y936301D01*
X-615793Y936398D01*
X-615855Y936493D01*
X-615920Y936586D01*
X-615988Y936676D01*
X-616059Y936764D01*
X-616134Y936850D01*
X-616211Y936933D01*
X-616291Y937013D01*
X-616374Y937090D01*
X-616460Y937165D01*
X-616548Y937236D01*
X-616638Y937304D01*
X-616731Y937369D01*
X-616826Y937431D01*
X-616923Y937489D01*
X-617022Y937544D01*
X-617123Y937595D01*
X-617226Y937643D01*
X-617330Y937688D01*
X-617436Y937728D01*
X-617543Y937765D01*
X-617651Y937798D01*
X-617761Y937828D01*
X-617871Y937853D01*
X-617982Y937875D01*
X-618094Y937892D01*
X-618207Y937906D01*
X-618320Y937916D01*
X-618433Y937922D01*
X-618546Y937924D01*
X-618659Y937922D01*
X-618772Y937916D01*
X-618885Y937906D01*
X-618998Y937892D01*
X-619110Y937875D01*
X-619221Y937853D01*
X-619331Y937828D01*
X-619441Y937798D01*
X-619549Y937765D01*
X-619656Y937728D01*
X-619762Y937688D01*
X-619866Y937643D01*
X-619969Y937595D01*
X-620070Y937544D01*
X-620169Y937489D01*
X-620266Y937431D01*
X-620361Y937369D01*
X-620454Y937304D01*
X-620544Y937236D01*
X-620632Y937165D01*
X-620718Y937090D01*
X-620801Y937013D01*
X-620881Y936933D01*
X-620958Y936850D01*
X-621033Y936764D01*
X-621104Y936676D01*
X-621172Y936586D01*
X-621237Y936493D01*
X-621299Y936398D01*
X-621357Y936301D01*
X-621412Y936202D01*
X-621463Y936101D01*
X-621511Y935998D01*
X-621556Y935894D01*
X-621596Y935788D01*
X-621633Y935681D01*
X-621666Y935573D01*
X-621696Y935463D01*
X-621721Y935353D01*
X-621743Y935242D01*
X-621760Y935130D01*
X-621774Y935017D01*
X-621784Y934904D01*
X-621790Y934791D01*
X-621792Y934678D01*
X-621790Y934565D01*
X-621784Y934452D01*
X-621774Y934339D01*
X-621760Y934226D01*
X-621743Y934114D01*
X-621721Y934003D01*
X-621696Y933893D01*
X-621666Y933783D01*
X-621633Y933675D01*
X-621596Y933568D01*
X-621556Y933462D01*
X-621511Y933358D01*
X-621463Y933255D01*
X-621412Y933154D01*
X-621357Y933055D01*
X-621299Y932958D01*
X-621237Y932863D01*
X-621172Y932770D01*
X-621104Y932680D01*
X-621033Y932592D01*
X-620958Y932506D01*
X-620881Y932423D01*
X-620801Y932343D01*
X-620718Y932266D01*
X-620632Y932191D01*
X-620544Y932120D01*
X-620454Y932052D01*
X-620361Y931987D01*
X-620266Y931925D01*
X-620169Y931867D01*
X-620070Y931812D01*
X-619969Y931761D01*
X-619866Y931713D01*
X-619762Y931668D01*
X-619656Y931628D01*
X-619549Y931591D01*
X-619441Y931558D01*
X-619331Y931528D01*
X-619221Y931503D01*
X-619110Y931481D01*
X-618998Y931464D01*
X-618885Y931450D01*
X-618772Y931440D01*
X-618659Y931434D01*
X-618546Y931432D01*
X-612704Y932082D02*
X-612603Y932084D01*
X-612503Y932090D01*
X-612403Y932100D01*
X-612303Y932113D01*
X-612204Y932131D01*
X-612105Y932152D01*
X-612008Y932177D01*
X-611911Y932206D01*
X-611816Y932239D01*
X-611722Y932275D01*
X-611630Y932315D01*
X-611539Y932358D01*
X-611450Y932405D01*
X-611363Y932455D01*
X-611277Y932509D01*
X-611194Y932566D01*
X-611114Y932626D01*
X-611035Y932689D01*
X-610959Y932756D01*
X-610886Y932825D01*
X-610816Y932897D01*
X-610748Y932971D01*
X-610683Y933048D01*
X-610622Y933128D01*
X-610563Y933210D01*
X-610508Y933294D01*
X-610456Y933380D01*
X-610407Y933468D01*
X-610362Y933558D01*
X-610320Y933650D01*
X-610282Y933743D01*
X-610248Y933838D01*
X-610217Y933933D01*
X-610190Y934030D01*
X-610167Y934128D01*
X-610147Y934227D01*
X-610132Y934327D01*
X-610120Y934427D01*
X-610112Y934527D01*
X-610108Y934628D01*
X-610108Y934728D01*
X-610112Y934829D01*
X-610120Y934929D01*
X-610132Y935029D01*
X-610147Y935129D01*
X-610167Y935228D01*
X-610190Y935326D01*
X-610217Y935423D01*
X-610248Y935518D01*
X-610282Y935613D01*
X-610320Y935706D01*
X-610362Y935798D01*
X-610407Y935888D01*
X-610456Y935976D01*
X-610508Y936062D01*
X-610563Y936146D01*
X-610622Y936228D01*
X-610683Y936308D01*
X-610748Y936385D01*
X-610816Y936459D01*
X-610886Y936531D01*
X-610959Y936600D01*
X-611035Y936667D01*
X-611114Y936730D01*
X-611194Y936790D01*
X-611277Y936847D01*
X-611363Y936901D01*
X-611450Y936951D01*
X-611539Y936998D01*
X-611630Y937041D01*
X-611722Y937081D01*
X-611816Y937117D01*
X-611911Y937150D01*
X-612008Y937179D01*
X-612105Y937204D01*
X-612204Y937225D01*
X-612303Y937243D01*
X-612403Y937256D01*
X-612503Y937266D01*
X-612603Y937272D01*
X-612704Y937274D01*
X-612805Y937272D01*
X-612905Y937266D01*
X-613005Y937256D01*
X-613105Y937243D01*
X-613204Y937225D01*
X-613303Y937204D01*
X-613400Y937179D01*
X-613497Y937150D01*
X-613592Y937117D01*
X-613686Y937081D01*
X-613778Y937041D01*
X-613869Y936998D01*
X-613958Y936951D01*
X-614045Y936901D01*
X-614131Y936847D01*
X-614214Y936790D01*
X-614294Y936730D01*
X-614373Y936667D01*
X-614449Y936600D01*
X-614522Y936531D01*
X-614592Y936459D01*
X-614660Y936385D01*
X-614725Y936308D01*
X-614786Y936228D01*
X-614845Y936146D01*
X-614900Y936062D01*
X-614952Y935976D01*
X-615001Y935888D01*
X-615046Y935798D01*
X-615088Y935706D01*
X-615126Y935613D01*
X-615160Y935518D01*
X-615191Y935423D01*
X-615218Y935326D01*
X-615241Y935228D01*
X-615261Y935129D01*
X-615276Y935029D01*
X-615288Y934929D01*
X-615296Y934829D01*
X-615300Y934728D01*
X-615300Y934628D01*
X-615296Y934527D01*
X-615288Y934427D01*
X-615276Y934327D01*
X-615261Y934227D01*
X-615241Y934128D01*
X-615218Y934030D01*
X-615191Y933933D01*
X-615160Y933838D01*
X-615126Y933743D01*
X-615088Y933650D01*
X-615046Y933558D01*
X-615001Y933468D01*
X-614952Y933380D01*
X-614900Y933294D01*
X-614845Y933210D01*
X-614786Y933128D01*
X-614725Y933048D01*
X-614660Y932971D01*
X-614592Y932897D01*
X-614522Y932825D01*
X-614449Y932756D01*
X-614373Y932689D01*
X-614294Y932626D01*
X-614214Y932566D01*
X-614131Y932509D01*
X-614045Y932455D01*
X-613958Y932405D01*
X-613869Y932358D01*
X-613778Y932315D01*
X-613686Y932275D01*
X-613592Y932239D01*
X-613497Y932206D01*
X-613400Y932177D01*
X-613303Y932152D01*
X-613204Y932131D01*
X-613105Y932113D01*
X-613005Y932100D01*
X-612905Y932090D01*
X-612805Y932084D01*
X-612704Y932082D01*
X-622808Y778496D02*
X-624106Y778496D01*
X-622808Y778496D02*
X-622808Y784987D01*
X-634492Y781742D01*
X-631896Y789926D02*
X-622808Y792523D01*
X-631896Y789926D02*
X-631896Y796417D01*
X-629299Y794470D02*
X-634492Y794470D01*
X-634492Y801760D02*
X-622808Y801760D01*
X-634492Y801760D02*
X-634492Y806953D01*
X-634492Y814776D02*
X-634490Y814875D01*
X-634484Y814975D01*
X-634475Y815074D01*
X-634462Y815172D01*
X-634445Y815270D01*
X-634424Y815368D01*
X-634399Y815464D01*
X-634371Y815559D01*
X-634339Y815653D01*
X-634304Y815746D01*
X-634265Y815838D01*
X-634222Y815928D01*
X-634177Y816016D01*
X-634127Y816103D01*
X-634075Y816187D01*
X-634019Y816270D01*
X-633961Y816350D01*
X-633899Y816428D01*
X-633834Y816503D01*
X-633766Y816576D01*
X-633696Y816646D01*
X-633623Y816714D01*
X-633548Y816779D01*
X-633470Y816841D01*
X-633390Y816899D01*
X-633307Y816955D01*
X-633223Y817007D01*
X-633136Y817057D01*
X-633048Y817102D01*
X-632958Y817145D01*
X-632866Y817184D01*
X-632773Y817219D01*
X-632679Y817251D01*
X-632584Y817279D01*
X-632488Y817304D01*
X-632390Y817325D01*
X-632292Y817342D01*
X-632194Y817355D01*
X-632095Y817364D01*
X-631995Y817370D01*
X-631896Y817372D01*
X-634492Y814776D02*
X-634490Y814632D01*
X-634484Y814487D01*
X-634475Y814343D01*
X-634462Y814200D01*
X-634445Y814056D01*
X-634424Y813913D01*
X-634399Y813771D01*
X-634371Y813630D01*
X-634339Y813489D01*
X-634303Y813349D01*
X-634264Y813210D01*
X-634221Y813072D01*
X-634174Y812936D01*
X-634124Y812800D01*
X-634070Y812666D01*
X-634013Y812534D01*
X-633952Y812403D01*
X-633888Y812274D01*
X-633820Y812146D01*
X-633750Y812020D01*
X-633675Y811896D01*
X-633598Y811775D01*
X-633517Y811655D01*
X-633434Y811537D01*
X-633347Y811422D01*
X-633257Y811309D01*
X-633164Y811198D01*
X-633069Y811090D01*
X-632970Y810984D01*
X-632869Y810881D01*
X-625404Y811206D02*
X-625305Y811208D01*
X-625205Y811214D01*
X-625106Y811223D01*
X-625008Y811236D01*
X-624910Y811253D01*
X-624812Y811274D01*
X-624716Y811299D01*
X-624621Y811327D01*
X-624527Y811359D01*
X-624434Y811394D01*
X-624342Y811433D01*
X-624252Y811476D01*
X-624164Y811521D01*
X-624077Y811571D01*
X-623993Y811623D01*
X-623910Y811679D01*
X-623830Y811737D01*
X-623752Y811799D01*
X-623677Y811864D01*
X-623604Y811932D01*
X-623534Y812002D01*
X-623466Y812075D01*
X-623401Y812150D01*
X-623339Y812228D01*
X-623281Y812308D01*
X-623225Y812391D01*
X-623173Y812475D01*
X-623123Y812562D01*
X-623078Y812650D01*
X-623035Y812740D01*
X-622996Y812832D01*
X-622961Y812925D01*
X-622929Y813019D01*
X-622901Y813114D01*
X-622876Y813210D01*
X-622855Y813308D01*
X-622838Y813406D01*
X-622825Y813504D01*
X-622816Y813603D01*
X-622810Y813703D01*
X-622808Y813802D01*
X-622810Y813938D01*
X-622816Y814074D01*
X-622825Y814210D01*
X-622838Y814346D01*
X-622856Y814481D01*
X-622876Y814615D01*
X-622901Y814749D01*
X-622929Y814883D01*
X-622962Y815015D01*
X-622997Y815146D01*
X-623037Y815277D01*
X-623080Y815406D01*
X-623126Y815534D01*
X-623177Y815660D01*
X-623230Y815786D01*
X-623288Y815909D01*
X-623348Y816031D01*
X-623412Y816151D01*
X-623480Y816270D01*
X-623550Y816386D01*
X-623624Y816500D01*
X-623701Y816613D01*
X-623782Y816723D01*
X-627676Y812504D02*
X-627623Y812418D01*
X-627566Y812334D01*
X-627507Y812252D01*
X-627444Y812172D01*
X-627378Y812095D01*
X-627310Y812020D01*
X-627238Y811948D01*
X-627164Y811879D01*
X-627087Y811813D01*
X-627008Y811750D01*
X-626926Y811690D01*
X-626842Y811633D01*
X-626756Y811579D01*
X-626668Y811529D01*
X-626578Y811482D01*
X-626487Y811438D01*
X-626393Y811399D01*
X-626299Y811362D01*
X-626203Y811330D01*
X-626105Y811301D01*
X-626007Y811276D01*
X-625908Y811255D01*
X-625808Y811237D01*
X-625708Y811224D01*
X-625607Y811214D01*
X-625505Y811208D01*
X-625404Y811206D01*
X-629624Y816074D02*
X-629677Y816160D01*
X-629734Y816244D01*
X-629793Y816326D01*
X-629856Y816406D01*
X-629922Y816483D01*
X-629990Y816558D01*
X-630062Y816630D01*
X-630136Y816699D01*
X-630213Y816765D01*
X-630292Y816828D01*
X-630374Y816888D01*
X-630458Y816945D01*
X-630544Y816999D01*
X-630632Y817049D01*
X-630722Y817096D01*
X-630813Y817140D01*
X-630907Y817179D01*
X-631001Y817216D01*
X-631097Y817248D01*
X-631195Y817277D01*
X-631293Y817302D01*
X-631392Y817323D01*
X-631492Y817341D01*
X-631592Y817354D01*
X-631693Y817364D01*
X-631795Y817370D01*
X-631896Y817372D01*
X-629624Y816074D02*
X-627676Y812504D01*
X-622808Y825500D02*
X-622810Y825607D01*
X-622816Y825713D01*
X-622826Y825819D01*
X-622839Y825925D01*
X-622857Y826031D01*
X-622878Y826135D01*
X-622903Y826239D01*
X-622932Y826342D01*
X-622964Y826443D01*
X-623001Y826543D01*
X-623041Y826642D01*
X-623084Y826740D01*
X-623131Y826836D01*
X-623182Y826930D01*
X-623236Y827022D01*
X-623293Y827112D01*
X-623353Y827200D01*
X-623417Y827285D01*
X-623484Y827368D01*
X-623554Y827449D01*
X-623626Y827527D01*
X-623702Y827603D01*
X-623780Y827675D01*
X-623861Y827745D01*
X-623944Y827812D01*
X-624029Y827876D01*
X-624117Y827936D01*
X-624207Y827993D01*
X-624299Y828047D01*
X-624393Y828098D01*
X-624489Y828145D01*
X-624587Y828188D01*
X-624686Y828228D01*
X-624786Y828265D01*
X-624887Y828297D01*
X-624990Y828326D01*
X-625094Y828351D01*
X-625198Y828372D01*
X-625304Y828390D01*
X-625410Y828403D01*
X-625516Y828413D01*
X-625622Y828419D01*
X-625729Y828421D01*
X-622808Y825500D02*
X-622810Y825379D01*
X-622816Y825258D01*
X-622826Y825138D01*
X-622839Y825017D01*
X-622857Y824898D01*
X-622878Y824778D01*
X-622903Y824660D01*
X-622932Y824543D01*
X-622965Y824426D01*
X-623001Y824311D01*
X-623042Y824197D01*
X-623085Y824084D01*
X-623133Y823972D01*
X-623184Y823863D01*
X-623239Y823755D01*
X-623297Y823648D01*
X-623358Y823544D01*
X-623423Y823442D01*
X-623491Y823342D01*
X-623562Y823244D01*
X-623636Y823148D01*
X-623713Y823055D01*
X-623794Y822965D01*
X-623877Y822877D01*
X-623963Y822792D01*
X-624052Y822709D01*
X-624143Y822630D01*
X-624237Y822553D01*
X-624333Y822480D01*
X-624431Y822410D01*
X-624532Y822343D01*
X-624635Y822279D01*
X-624740Y822219D01*
X-624847Y822161D01*
X-624955Y822108D01*
X-625065Y822058D01*
X-625177Y822012D01*
X-625290Y821969D01*
X-625405Y821930D01*
X-628001Y827447D02*
X-627923Y827526D01*
X-627843Y827602D01*
X-627760Y827675D01*
X-627674Y827745D01*
X-627587Y827812D01*
X-627496Y827876D01*
X-627404Y827936D01*
X-627310Y827994D01*
X-627213Y828048D01*
X-627115Y828098D01*
X-627015Y828145D01*
X-626914Y828189D01*
X-626811Y828229D01*
X-626706Y828265D01*
X-626601Y828297D01*
X-626494Y828326D01*
X-626387Y828351D01*
X-626278Y828373D01*
X-626169Y828390D01*
X-626060Y828404D01*
X-625950Y828413D01*
X-625839Y828419D01*
X-625729Y828421D01*
X-628001Y827447D02*
X-634492Y821930D01*
X-634492Y828421D01*
X-631896Y833360D02*
X-622808Y835956D01*
X-631896Y833360D02*
X-631896Y839851D01*
X-629299Y837904D02*
X-634492Y837904D01*
X-634492Y844790D02*
X-634492Y848685D01*
X-634490Y848784D01*
X-634484Y848884D01*
X-634475Y848983D01*
X-634462Y849081D01*
X-634445Y849179D01*
X-634424Y849277D01*
X-634399Y849373D01*
X-634371Y849468D01*
X-634339Y849562D01*
X-634304Y849655D01*
X-634265Y849747D01*
X-634222Y849837D01*
X-634177Y849925D01*
X-634127Y850012D01*
X-634075Y850096D01*
X-634019Y850179D01*
X-633961Y850259D01*
X-633899Y850337D01*
X-633834Y850412D01*
X-633766Y850485D01*
X-633696Y850555D01*
X-633623Y850623D01*
X-633548Y850688D01*
X-633470Y850750D01*
X-633390Y850808D01*
X-633307Y850864D01*
X-633223Y850916D01*
X-633136Y850966D01*
X-633048Y851011D01*
X-632958Y851054D01*
X-632866Y851093D01*
X-632773Y851128D01*
X-632679Y851160D01*
X-632584Y851188D01*
X-632488Y851213D01*
X-632390Y851234D01*
X-632292Y851251D01*
X-632194Y851264D01*
X-632095Y851273D01*
X-631995Y851279D01*
X-631896Y851281D01*
X-630597Y851281D01*
X-630498Y851279D01*
X-630398Y851273D01*
X-630299Y851264D01*
X-630201Y851251D01*
X-630103Y851234D01*
X-630005Y851213D01*
X-629909Y851188D01*
X-629814Y851160D01*
X-629720Y851128D01*
X-629627Y851093D01*
X-629535Y851054D01*
X-629445Y851011D01*
X-629357Y850966D01*
X-629270Y850916D01*
X-629186Y850864D01*
X-629103Y850808D01*
X-629023Y850750D01*
X-628945Y850688D01*
X-628870Y850623D01*
X-628797Y850555D01*
X-628727Y850485D01*
X-628659Y850412D01*
X-628594Y850337D01*
X-628532Y850259D01*
X-628474Y850179D01*
X-628418Y850096D01*
X-628366Y850012D01*
X-628316Y849925D01*
X-628271Y849837D01*
X-628228Y849747D01*
X-628189Y849655D01*
X-628154Y849562D01*
X-628122Y849468D01*
X-628094Y849373D01*
X-628069Y849277D01*
X-628048Y849179D01*
X-628031Y849081D01*
X-628018Y848983D01*
X-628009Y848884D01*
X-628003Y848784D01*
X-628001Y848685D01*
X-628001Y844790D01*
X-622808Y844790D01*
X-622808Y851281D01*
X-622808Y856601D02*
X-634492Y856601D01*
X-634492Y863092D02*
X-622808Y856601D01*
X-622808Y863092D02*
X-634492Y863092D01*
M02*
