G04 EAGLE Gerber RS-274X export*
G75*
%MOMM*%
%FSLAX34Y34*%
%LPD*%
%INSoldermask Bottom*%
%IPPOS*%
%AMOC8*
5,1,8,0,0,1.08239X$1,22.5*%
G01*
%ADD10C,1.524000*%
%ADD11C,1.727200*%
%ADD12R,1.261200X1.261200*%
%ADD13C,0.959600*%


D10*
X-1009396Y596900D02*
X-1022604Y596900D01*
X-1022604Y622300D02*
X-1009396Y622300D01*
X-1009396Y749300D02*
X-1022604Y749300D01*
X-1022604Y774700D02*
X-1009396Y774700D01*
X-1009396Y647700D02*
X-1022604Y647700D01*
X-1022604Y673100D02*
X-1009396Y673100D01*
X-1009396Y723900D02*
X-1022604Y723900D01*
X-1022604Y698500D02*
X-1009396Y698500D01*
X-1085596Y774700D02*
X-1098804Y774700D01*
X-1098804Y749300D02*
X-1085596Y749300D01*
X-1085596Y723900D02*
X-1098804Y723900D01*
X-1098804Y698500D02*
X-1085596Y698500D01*
X-1085596Y673100D02*
X-1098804Y673100D01*
X-1098804Y647700D02*
X-1085596Y647700D01*
X-1085596Y622300D02*
X-1098804Y622300D01*
X-1098804Y596900D02*
X-1085596Y596900D01*
X-705104Y622300D02*
X-691896Y622300D01*
X-691896Y647700D02*
X-705104Y647700D01*
X-705104Y774700D02*
X-691896Y774700D01*
X-768096Y774700D02*
X-781304Y774700D01*
X-705104Y673100D02*
X-691896Y673100D01*
X-691896Y698500D02*
X-705104Y698500D01*
X-705104Y749300D02*
X-691896Y749300D01*
X-691896Y723900D02*
X-705104Y723900D01*
X-768096Y749300D02*
X-781304Y749300D01*
X-781304Y723900D02*
X-768096Y723900D01*
X-768096Y698500D02*
X-781304Y698500D01*
X-781304Y673100D02*
X-768096Y673100D01*
X-768096Y647700D02*
X-781304Y647700D01*
X-781304Y622300D02*
X-768096Y622300D01*
X-1009396Y165100D02*
X-1022604Y165100D01*
X-1022604Y190500D02*
X-1009396Y190500D01*
X-1009396Y317500D02*
X-1022604Y317500D01*
X-1085596Y317500D02*
X-1098804Y317500D01*
X-1022604Y215900D02*
X-1009396Y215900D01*
X-1009396Y241300D02*
X-1022604Y241300D01*
X-1022604Y292100D02*
X-1009396Y292100D01*
X-1009396Y266700D02*
X-1022604Y266700D01*
X-1085596Y292100D02*
X-1098804Y292100D01*
X-1098804Y266700D02*
X-1085596Y266700D01*
X-1085596Y241300D02*
X-1098804Y241300D01*
X-1098804Y215900D02*
X-1085596Y215900D01*
X-1085596Y190500D02*
X-1098804Y190500D01*
X-1098804Y165100D02*
X-1085596Y165100D01*
X-705104Y215900D02*
X-691896Y215900D01*
X-691896Y241300D02*
X-705104Y241300D01*
X-705104Y368300D02*
X-691896Y368300D01*
X-768096Y368300D02*
X-781304Y368300D01*
X-705104Y266700D02*
X-691896Y266700D01*
X-691896Y292100D02*
X-705104Y292100D01*
X-705104Y342900D02*
X-691896Y342900D01*
X-691896Y317500D02*
X-705104Y317500D01*
X-768096Y342900D02*
X-781304Y342900D01*
X-781304Y317500D02*
X-768096Y317500D01*
X-768096Y292100D02*
X-781304Y292100D01*
X-781304Y266700D02*
X-768096Y266700D01*
X-768096Y241300D02*
X-781304Y241300D01*
X-781304Y215900D02*
X-768096Y215900D01*
X-590804Y419100D02*
X-577596Y419100D01*
X-577596Y393700D02*
X-590804Y393700D01*
X-590804Y266700D02*
X-577596Y266700D01*
X-577596Y241300D02*
X-590804Y241300D01*
X-590804Y368300D02*
X-577596Y368300D01*
X-577596Y342900D02*
X-590804Y342900D01*
X-590804Y292100D02*
X-577596Y292100D01*
X-577596Y317500D02*
X-590804Y317500D01*
X-590804Y215900D02*
X-577596Y215900D01*
X-577596Y190500D02*
X-590804Y190500D01*
X-653796Y190500D02*
X-667004Y190500D01*
X-667004Y215900D02*
X-653796Y215900D01*
X-653796Y241300D02*
X-667004Y241300D01*
X-667004Y266700D02*
X-653796Y266700D01*
X-653796Y292100D02*
X-667004Y292100D01*
X-667004Y317500D02*
X-653796Y317500D01*
X-653796Y342900D02*
X-667004Y342900D01*
X-667004Y368300D02*
X-653796Y368300D01*
X-653796Y393700D02*
X-667004Y393700D01*
X-667004Y419100D02*
X-653796Y419100D01*
X-1009396Y825500D02*
X-1022604Y825500D01*
X-1022604Y850900D02*
X-1009396Y850900D01*
X-1009396Y977900D02*
X-1022604Y977900D01*
X-1085596Y977900D02*
X-1098804Y977900D01*
X-1022604Y876300D02*
X-1009396Y876300D01*
X-1009396Y901700D02*
X-1022604Y901700D01*
X-1022604Y952500D02*
X-1009396Y952500D01*
X-1009396Y927100D02*
X-1022604Y927100D01*
X-1085596Y952500D02*
X-1098804Y952500D01*
X-1098804Y927100D02*
X-1085596Y927100D01*
X-1085596Y901700D02*
X-1098804Y901700D01*
X-1098804Y876300D02*
X-1085596Y876300D01*
X-1085596Y850900D02*
X-1098804Y850900D01*
X-1098804Y825500D02*
X-1085596Y825500D01*
X-857504Y825500D02*
X-844296Y825500D01*
X-844296Y850900D02*
X-857504Y850900D01*
X-857504Y977900D02*
X-844296Y977900D01*
X-920496Y977900D02*
X-933704Y977900D01*
X-857504Y876300D02*
X-844296Y876300D01*
X-844296Y901700D02*
X-857504Y901700D01*
X-857504Y952500D02*
X-844296Y952500D01*
X-844296Y927100D02*
X-857504Y927100D01*
X-920496Y952500D02*
X-933704Y952500D01*
X-933704Y927100D02*
X-920496Y927100D01*
X-920496Y901700D02*
X-933704Y901700D01*
X-933704Y876300D02*
X-920496Y876300D01*
X-920496Y850900D02*
X-933704Y850900D01*
X-933704Y825500D02*
X-920496Y825500D01*
X-590804Y698500D02*
X-577596Y698500D01*
X-577596Y673100D02*
X-590804Y673100D01*
X-590804Y546100D02*
X-577596Y546100D01*
X-577596Y520700D02*
X-590804Y520700D01*
X-590804Y647700D02*
X-577596Y647700D01*
X-577596Y622300D02*
X-590804Y622300D01*
X-590804Y571500D02*
X-577596Y571500D01*
X-577596Y596900D02*
X-590804Y596900D01*
X-590804Y495300D02*
X-577596Y495300D01*
X-577596Y469900D02*
X-590804Y469900D01*
X-653796Y469900D02*
X-667004Y469900D01*
X-667004Y495300D02*
X-653796Y495300D01*
X-653796Y520700D02*
X-667004Y520700D01*
X-667004Y546100D02*
X-653796Y546100D01*
X-653796Y571500D02*
X-667004Y571500D01*
X-667004Y596900D02*
X-653796Y596900D01*
X-653796Y622300D02*
X-667004Y622300D01*
X-667004Y647700D02*
X-653796Y647700D01*
X-653796Y673100D02*
X-667004Y673100D01*
X-667004Y698500D02*
X-653796Y698500D01*
X-286004Y749300D02*
X-272796Y749300D01*
X-272796Y774700D02*
X-286004Y774700D01*
X-286004Y901700D02*
X-272796Y901700D01*
X-272796Y927100D02*
X-286004Y927100D01*
X-286004Y800100D02*
X-272796Y800100D01*
X-272796Y825500D02*
X-286004Y825500D01*
X-286004Y876300D02*
X-272796Y876300D01*
X-272796Y850900D02*
X-286004Y850900D01*
X-348996Y927100D02*
X-362204Y927100D01*
X-362204Y901700D02*
X-348996Y901700D01*
X-348996Y876300D02*
X-362204Y876300D01*
X-362204Y850900D02*
X-348996Y850900D01*
X-348996Y825500D02*
X-362204Y825500D01*
X-362204Y800100D02*
X-348996Y800100D01*
X-348996Y774700D02*
X-362204Y774700D01*
X-362204Y749300D02*
X-348996Y749300D01*
X-844296Y215900D02*
X-857504Y215900D01*
X-857504Y241300D02*
X-844296Y241300D01*
X-844296Y368300D02*
X-857504Y368300D01*
X-920496Y368300D02*
X-933704Y368300D01*
X-857504Y266700D02*
X-844296Y266700D01*
X-844296Y292100D02*
X-857504Y292100D01*
X-857504Y342900D02*
X-844296Y342900D01*
X-844296Y317500D02*
X-857504Y317500D01*
X-920496Y342900D02*
X-933704Y342900D01*
X-933704Y317500D02*
X-920496Y317500D01*
X-920496Y292100D02*
X-933704Y292100D01*
X-933704Y266700D02*
X-920496Y266700D01*
X-920496Y241300D02*
X-933704Y241300D01*
X-933704Y215900D02*
X-920496Y215900D01*
X-1009396Y368300D02*
X-1022604Y368300D01*
X-1022604Y393700D02*
X-1009396Y393700D01*
X-1009396Y520700D02*
X-1022604Y520700D01*
X-1022604Y546100D02*
X-1009396Y546100D01*
X-1009396Y419100D02*
X-1022604Y419100D01*
X-1022604Y444500D02*
X-1009396Y444500D01*
X-1009396Y495300D02*
X-1022604Y495300D01*
X-1022604Y469900D02*
X-1009396Y469900D01*
X-1085596Y546100D02*
X-1098804Y546100D01*
X-1098804Y520700D02*
X-1085596Y520700D01*
X-1085596Y495300D02*
X-1098804Y495300D01*
X-1098804Y469900D02*
X-1085596Y469900D01*
X-1085596Y444500D02*
X-1098804Y444500D01*
X-1098804Y419100D02*
X-1085596Y419100D01*
X-1085596Y393700D02*
X-1098804Y393700D01*
X-1098804Y368300D02*
X-1085596Y368300D01*
X-857504Y622300D02*
X-844296Y622300D01*
X-844296Y647700D02*
X-857504Y647700D01*
X-857504Y774700D02*
X-844296Y774700D01*
X-920496Y774700D02*
X-933704Y774700D01*
X-857504Y673100D02*
X-844296Y673100D01*
X-844296Y698500D02*
X-857504Y698500D01*
X-857504Y749300D02*
X-844296Y749300D01*
X-844296Y723900D02*
X-857504Y723900D01*
X-920496Y749300D02*
X-933704Y749300D01*
X-933704Y723900D02*
X-920496Y723900D01*
X-920496Y698500D02*
X-933704Y698500D01*
X-933704Y673100D02*
X-920496Y673100D01*
X-920496Y647700D02*
X-933704Y647700D01*
X-933704Y622300D02*
X-920496Y622300D01*
X-857504Y419100D02*
X-844296Y419100D01*
X-844296Y444500D02*
X-857504Y444500D01*
X-857504Y571500D02*
X-844296Y571500D01*
X-920496Y571500D02*
X-933704Y571500D01*
X-857504Y469900D02*
X-844296Y469900D01*
X-844296Y495300D02*
X-857504Y495300D01*
X-857504Y546100D02*
X-844296Y546100D01*
X-844296Y520700D02*
X-857504Y520700D01*
X-920496Y546100D02*
X-933704Y546100D01*
X-933704Y520700D02*
X-920496Y520700D01*
X-920496Y495300D02*
X-933704Y495300D01*
X-933704Y469900D02*
X-920496Y469900D01*
X-920496Y444500D02*
X-933704Y444500D01*
X-933704Y419100D02*
X-920496Y419100D01*
X-705104Y419100D02*
X-691896Y419100D01*
X-691896Y444500D02*
X-705104Y444500D01*
X-705104Y571500D02*
X-691896Y571500D01*
X-768096Y571500D02*
X-781304Y571500D01*
X-705104Y469900D02*
X-691896Y469900D01*
X-691896Y495300D02*
X-705104Y495300D01*
X-705104Y546100D02*
X-691896Y546100D01*
X-691896Y520700D02*
X-705104Y520700D01*
X-768096Y546100D02*
X-781304Y546100D01*
X-781304Y520700D02*
X-768096Y520700D01*
X-768096Y495300D02*
X-781304Y495300D01*
X-781304Y469900D02*
X-768096Y469900D01*
X-768096Y444500D02*
X-781304Y444500D01*
X-781304Y419100D02*
X-768096Y419100D01*
X-705104Y825500D02*
X-691896Y825500D01*
X-691896Y850900D02*
X-705104Y850900D01*
X-705104Y977900D02*
X-691896Y977900D01*
X-768096Y977900D02*
X-781304Y977900D01*
X-705104Y876300D02*
X-691896Y876300D01*
X-691896Y901700D02*
X-705104Y901700D01*
X-705104Y952500D02*
X-691896Y952500D01*
X-691896Y927100D02*
X-705104Y927100D01*
X-768096Y952500D02*
X-781304Y952500D01*
X-781304Y927100D02*
X-768096Y927100D01*
X-768096Y901700D02*
X-781304Y901700D01*
X-781304Y876300D02*
X-768096Y876300D01*
X-768096Y850900D02*
X-781304Y850900D01*
X-781304Y825500D02*
X-768096Y825500D01*
X-489204Y977900D02*
X-475996Y977900D01*
X-475996Y952500D02*
X-489204Y952500D01*
X-489204Y825500D02*
X-475996Y825500D01*
X-475996Y800100D02*
X-489204Y800100D01*
X-489204Y927100D02*
X-475996Y927100D01*
X-475996Y901700D02*
X-489204Y901700D01*
X-489204Y850900D02*
X-475996Y850900D01*
X-475996Y876300D02*
X-489204Y876300D01*
X-489204Y774700D02*
X-475996Y774700D01*
X-475996Y749300D02*
X-489204Y749300D01*
X-413004Y749300D02*
X-399796Y749300D01*
X-399796Y774700D02*
X-413004Y774700D01*
X-413004Y800100D02*
X-399796Y800100D01*
X-399796Y825500D02*
X-413004Y825500D01*
X-413004Y850900D02*
X-399796Y850900D01*
X-399796Y876300D02*
X-413004Y876300D01*
X-413004Y901700D02*
X-399796Y901700D01*
X-399796Y927100D02*
X-413004Y927100D01*
X-413004Y952500D02*
X-399796Y952500D01*
X-399796Y977900D02*
X-413004Y977900D01*
X-577596Y977900D02*
X-590804Y977900D01*
X-590804Y952500D02*
X-577596Y952500D01*
X-577596Y825500D02*
X-590804Y825500D01*
X-590804Y800100D02*
X-577596Y800100D01*
X-577596Y927100D02*
X-590804Y927100D01*
X-590804Y901700D02*
X-577596Y901700D01*
X-577596Y850900D02*
X-590804Y850900D01*
X-590804Y876300D02*
X-577596Y876300D01*
X-577596Y774700D02*
X-590804Y774700D01*
X-590804Y749300D02*
X-577596Y749300D01*
X-653796Y749300D02*
X-667004Y749300D01*
X-667004Y774700D02*
X-653796Y774700D01*
X-653796Y800100D02*
X-667004Y800100D01*
X-667004Y825500D02*
X-653796Y825500D01*
X-653796Y850900D02*
X-667004Y850900D01*
X-667004Y876300D02*
X-653796Y876300D01*
X-653796Y901700D02*
X-667004Y901700D01*
X-667004Y927100D02*
X-653796Y927100D01*
X-653796Y952500D02*
X-667004Y952500D01*
X-667004Y977900D02*
X-653796Y977900D01*
X-889000Y108204D02*
X-889000Y94996D01*
X-863600Y94996D02*
X-863600Y108204D01*
X-736600Y108204D02*
X-736600Y94996D01*
X-736600Y171196D02*
X-736600Y184404D01*
X-838200Y108204D02*
X-838200Y94996D01*
X-812800Y94996D02*
X-812800Y108204D01*
X-762000Y108204D02*
X-762000Y94996D01*
X-787400Y94996D02*
X-787400Y108204D01*
X-762000Y171196D02*
X-762000Y184404D01*
X-787400Y184404D02*
X-787400Y171196D01*
X-812800Y171196D02*
X-812800Y184404D01*
X-838200Y184404D02*
X-838200Y171196D01*
X-863600Y171196D02*
X-863600Y184404D01*
X-889000Y184404D02*
X-889000Y171196D01*
X-362204Y647700D02*
X-348996Y647700D01*
X-348996Y622300D02*
X-362204Y622300D01*
X-362204Y495300D02*
X-348996Y495300D01*
X-348996Y469900D02*
X-362204Y469900D01*
X-362204Y596900D02*
X-348996Y596900D01*
X-348996Y571500D02*
X-362204Y571500D01*
X-362204Y520700D02*
X-348996Y520700D01*
X-348996Y546100D02*
X-362204Y546100D01*
X-286004Y469900D02*
X-272796Y469900D01*
X-272796Y495300D02*
X-286004Y495300D01*
X-286004Y520700D02*
X-272796Y520700D01*
X-272796Y546100D02*
X-286004Y546100D01*
X-286004Y571500D02*
X-272796Y571500D01*
X-272796Y596900D02*
X-286004Y596900D01*
X-286004Y622300D02*
X-272796Y622300D01*
X-272796Y647700D02*
X-286004Y647700D01*
X-247904Y647700D02*
X-234696Y647700D01*
X-234696Y622300D02*
X-247904Y622300D01*
X-247904Y495300D02*
X-234696Y495300D01*
X-234696Y469900D02*
X-247904Y469900D01*
X-247904Y596900D02*
X-234696Y596900D01*
X-234696Y571500D02*
X-247904Y571500D01*
X-247904Y520700D02*
X-234696Y520700D01*
X-234696Y546100D02*
X-247904Y546100D01*
X-171704Y469900D02*
X-158496Y469900D01*
X-158496Y495300D02*
X-171704Y495300D01*
X-171704Y520700D02*
X-158496Y520700D01*
X-158496Y546100D02*
X-171704Y546100D01*
X-171704Y571500D02*
X-158496Y571500D01*
X-158496Y596900D02*
X-171704Y596900D01*
X-171704Y622300D02*
X-158496Y622300D01*
X-158496Y647700D02*
X-171704Y647700D01*
X-399796Y469900D02*
X-413004Y469900D01*
X-413004Y495300D02*
X-399796Y495300D01*
X-399796Y622300D02*
X-413004Y622300D01*
X-413004Y647700D02*
X-399796Y647700D01*
X-399796Y520700D02*
X-413004Y520700D01*
X-413004Y546100D02*
X-399796Y546100D01*
X-399796Y596900D02*
X-413004Y596900D01*
X-413004Y571500D02*
X-399796Y571500D01*
X-399796Y673100D02*
X-413004Y673100D01*
X-413004Y698500D02*
X-399796Y698500D01*
X-475996Y698500D02*
X-489204Y698500D01*
X-489204Y673100D02*
X-475996Y673100D01*
X-475996Y647700D02*
X-489204Y647700D01*
X-489204Y622300D02*
X-475996Y622300D01*
X-475996Y596900D02*
X-489204Y596900D01*
X-489204Y571500D02*
X-475996Y571500D01*
X-475996Y546100D02*
X-489204Y546100D01*
X-489204Y520700D02*
X-475996Y520700D01*
X-475996Y495300D02*
X-489204Y495300D01*
X-489204Y469900D02*
X-475996Y469900D01*
X-362204Y368300D02*
X-348996Y368300D01*
X-348996Y342900D02*
X-362204Y342900D01*
X-362204Y215900D02*
X-348996Y215900D01*
X-348996Y190500D02*
X-362204Y190500D01*
X-362204Y317500D02*
X-348996Y317500D01*
X-348996Y292100D02*
X-362204Y292100D01*
X-362204Y241300D02*
X-348996Y241300D01*
X-348996Y266700D02*
X-362204Y266700D01*
X-286004Y190500D02*
X-272796Y190500D01*
X-272796Y215900D02*
X-286004Y215900D01*
X-286004Y241300D02*
X-272796Y241300D01*
X-272796Y266700D02*
X-286004Y266700D01*
X-286004Y292100D02*
X-272796Y292100D01*
X-272796Y317500D02*
X-286004Y317500D01*
X-286004Y342900D02*
X-272796Y342900D01*
X-272796Y368300D02*
X-286004Y368300D01*
X-247904Y368300D02*
X-234696Y368300D01*
X-234696Y342900D02*
X-247904Y342900D01*
X-247904Y215900D02*
X-234696Y215900D01*
X-234696Y190500D02*
X-247904Y190500D01*
X-247904Y317500D02*
X-234696Y317500D01*
X-234696Y292100D02*
X-247904Y292100D01*
X-247904Y241300D02*
X-234696Y241300D01*
X-234696Y266700D02*
X-247904Y266700D01*
X-171704Y190500D02*
X-158496Y190500D01*
X-158496Y215900D02*
X-171704Y215900D01*
X-171704Y241300D02*
X-158496Y241300D01*
X-158496Y266700D02*
X-171704Y266700D01*
X-171704Y292100D02*
X-158496Y292100D01*
X-158496Y317500D02*
X-171704Y317500D01*
X-171704Y342900D02*
X-158496Y342900D01*
X-158496Y368300D02*
X-171704Y368300D01*
X-399796Y190500D02*
X-413004Y190500D01*
X-413004Y215900D02*
X-399796Y215900D01*
X-399796Y342900D02*
X-413004Y342900D01*
X-413004Y368300D02*
X-399796Y368300D01*
X-399796Y241300D02*
X-413004Y241300D01*
X-413004Y266700D02*
X-399796Y266700D01*
X-399796Y317500D02*
X-413004Y317500D01*
X-413004Y292100D02*
X-399796Y292100D01*
X-399796Y393700D02*
X-413004Y393700D01*
X-413004Y419100D02*
X-399796Y419100D01*
X-475996Y419100D02*
X-489204Y419100D01*
X-489204Y393700D02*
X-475996Y393700D01*
X-475996Y368300D02*
X-489204Y368300D01*
X-489204Y342900D02*
X-475996Y342900D01*
X-475996Y317500D02*
X-489204Y317500D01*
X-489204Y292100D02*
X-475996Y292100D01*
X-475996Y266700D02*
X-489204Y266700D01*
X-489204Y241300D02*
X-475996Y241300D01*
X-475996Y215900D02*
X-489204Y215900D01*
X-489204Y190500D02*
X-475996Y190500D01*
D11*
X-172720Y876300D02*
X-157480Y876300D01*
X-157480Y850900D02*
X-172720Y850900D01*
X-172720Y825500D02*
X-157480Y825500D01*
X-157480Y800100D02*
X-172720Y800100D01*
X-172720Y774700D02*
X-157480Y774700D01*
X-157480Y749300D02*
X-172720Y749300D01*
X-172720Y723900D02*
X-157480Y723900D01*
X-157480Y698500D02*
X-172720Y698500D01*
X-172720Y927100D02*
X-157480Y927100D01*
X-157480Y901700D02*
X-172720Y901700D01*
D12*
X-1066800Y38100D03*
X-1041400Y38100D03*
X-1016000Y38100D03*
X-990600Y38100D03*
X-965200Y38100D03*
X-939800Y38100D03*
X-914400Y38100D03*
X-889000Y38100D03*
X-863600Y38100D03*
X-838200Y38100D03*
X-812800Y38100D03*
X-787400Y38100D03*
X-762000Y38100D03*
X-736600Y38100D03*
X-711200Y38100D03*
X-685800Y38100D03*
X-558800Y38100D03*
X-533400Y38100D03*
X-508000Y38100D03*
X-482600Y38100D03*
X-457200Y38100D03*
X-431800Y38100D03*
X-406400Y38100D03*
X-381000Y38100D03*
X-279400Y38100D03*
X-228600Y38100D03*
X-203200Y38100D03*
X-254000Y38100D03*
X-1066800Y63500D03*
X-1041400Y63500D03*
X-1016000Y63500D03*
X-990600Y63500D03*
X-965200Y63500D03*
X-939800Y63500D03*
X-914400Y63500D03*
X-889000Y63500D03*
X-863600Y63500D03*
X-838200Y63500D03*
X-812800Y63500D03*
X-787400Y63500D03*
X-762000Y63500D03*
X-736600Y63500D03*
X-711200Y63500D03*
X-685800Y63500D03*
X-558800Y63500D03*
X-533400Y63500D03*
X-508000Y63500D03*
X-482600Y63500D03*
X-457200Y63500D03*
X-431800Y63500D03*
X-406400Y63500D03*
X-381000Y63500D03*
X-279400Y63500D03*
X-228600Y63500D03*
X-203200Y63500D03*
X-254000Y63500D03*
D11*
X-172720Y444500D02*
X-157480Y444500D01*
X-157480Y419100D02*
X-172720Y419100D01*
X-172720Y152400D02*
X-157480Y152400D01*
X-157480Y127000D02*
X-172720Y127000D01*
D13*
X-593725Y111125D03*
X-336550Y111125D03*
X-387350Y396875D03*
X-346075Y676275D03*
X-504825Y701675D03*
X-635000Y304800D03*
X-625475Y390525D03*
X-441325Y381000D03*
X-511175Y406400D03*
X-904875Y269875D03*
X-885825Y374650D03*
X-450850Y381000D03*
X-504825Y625475D03*
X-457200Y342900D03*
X-457200Y625475D03*
X-508000Y352425D03*
X-504825Y590550D03*
X-835025Y358775D03*
X-612775Y358775D03*
X-606425Y819150D03*
X-606425Y546100D03*
X-533400Y241300D03*
X-542925Y793750D03*
X-542925Y530225D03*
X-568325Y758825D03*
X-254000Y155575D03*
X-215900Y177800D03*
X-257175Y114300D03*
X-1006475Y685800D03*
X-1003300Y431800D03*
X-374650Y447675D03*
X-955675Y463550D03*
X-955675Y409575D03*
X-390525Y428625D03*
X-381000Y561975D03*
X-1038225Y269875D03*
X-1038225Y647700D03*
X-1038225Y536575D03*
X-993775Y263525D03*
X-742950Y498475D03*
X-752475Y527050D03*
X-733425Y374650D03*
X-984250Y546100D03*
X-1069975Y269875D03*
X-1041400Y635000D03*
X-1041400Y876300D03*
X-1044575Y485775D03*
X-1057275Y463550D03*
X-1069975Y444500D03*
X-381000Y466725D03*
X-1076325Y457200D03*
X-1079500Y711200D03*
X-428625Y587375D03*
X-457200Y463550D03*
X-790575Y479425D03*
X-866775Y276225D03*
X-1108075Y174625D03*
X-831850Y466725D03*
X-625475Y508000D03*
X-876300Y717550D03*
X-381000Y317500D03*
X-396875Y228600D03*
X-698500Y390525D03*
X-374650Y438150D03*
X-676275Y434975D03*
X-876300Y752475D03*
X-463550Y285750D03*
X-463550Y879475D03*
X-381000Y546100D03*
X-990600Y425450D03*
X-752475Y320675D03*
X-752475Y393700D03*
X-517525Y504825D03*
X-530225Y422275D03*
X-384175Y263525D03*
X-882650Y698500D03*
X-819150Y346075D03*
X-739775Y225425D03*
X-746125Y336550D03*
X-758825Y460375D03*
X-390525Y454025D03*
X-800100Y276225D03*
X-803275Y619125D03*
X-800100Y231775D03*
X-889000Y622300D03*
X-1044575Y568325D03*
X-1044575Y723900D03*
X-904875Y504825D03*
X-904875Y679450D03*
X-904875Y390525D03*
X-892175Y742950D03*
X-1069975Y412750D03*
X-1050925Y762000D03*
X-958850Y511175D03*
X-952500Y673100D03*
X-904875Y742950D03*
X-898525Y476250D03*
X-885825Y552450D03*
X-895350Y603250D03*
X-1012825Y571500D03*
X-1025525Y584200D03*
X-939800Y711200D03*
X-990600Y447675D03*
X-977900Y730250D03*
X-555625Y400050D03*
X-555625Y755650D03*
X-977900Y450850D03*
X-971550Y781050D03*
X-831850Y530225D03*
X-825500Y768350D03*
X-450850Y688975D03*
X-428625Y844550D03*
X-536575Y612775D03*
X-514350Y857250D03*
X-1108075Y841375D03*
X-568325Y479425D03*
X-561975Y908050D03*
X-742950Y571500D03*
X-739775Y892175D03*
X-752475Y574675D03*
X-749300Y889000D03*
X-742950Y508000D03*
X-739775Y841375D03*
X-714375Y800100D03*
X-638175Y971550D03*
X-752475Y758825D03*
X-879475Y615950D03*
X-895350Y635000D03*
X-406400Y720725D03*
X-727075Y203200D03*
X-720725Y336550D03*
X-612775Y212725D03*
X-676275Y282575D03*
X-720725Y638175D03*
X-723900Y866775D03*
X-984250Y609600D03*
X-1057275Y641350D03*
X-1057275Y574675D03*
X-720725Y571500D03*
X-628650Y939800D03*
X-628650Y965200D03*
X-622300Y898525D03*
X-619125Y666750D03*
X-730250Y650875D03*
X-730250Y742950D03*
X-796925Y673100D03*
X-796925Y768350D03*
X-873125Y704850D03*
X-806450Y673100D03*
X-831850Y323850D03*
X-812800Y720725D03*
X-949325Y263525D03*
X-946150Y752475D03*
X-390525Y727075D03*
X-466725Y165100D03*
M02*
