M48
;GenerationSoftware,Autodesk,EAGLE,9.6.1*%
;CreationDate,2020-05-13T08:37:10Z*%
FMAT,2
ICI,OFF
METRIC,TZ,000.000
T4C0.350
T3C0.550
T2C0.813
T1C1.016
%
G90
M71
T1
X-16510Y44450
X-16510Y90170
X-16510Y92710
X-16510Y69850
X-16510Y72390
X-16510Y74930
X-16510Y77470
X-16510Y80010
X-16510Y82550
X-16510Y85090
X-16510Y87630
X-16510Y12700
X-16510Y15240
X-16510Y41910
T2
X-69850Y52070
X-77470Y54610
X-77470Y52070
X-77470Y49530
X-77470Y46990
X-77470Y44450
X-77470Y41910
X-69850Y82550
X-69850Y85090
X-69850Y97790
X-77470Y97790
X-69850Y87630
X-69850Y90170
X-69850Y95250
X-69850Y92710
X-77470Y95250
X-77470Y92710
X-77470Y90170
X-77470Y87630
X-77470Y85090
X-77470Y82550
X-48260Y97790
X-48260Y95250
X-48260Y82550
X-48260Y80010
X-48260Y92710
X-48260Y90170
X-48260Y85090
X-48260Y87630
X-48260Y77470
X-48260Y74930
X-40640Y74930
X-40640Y77470
X-40640Y80010
X-40640Y82550
X-40640Y85090
X-40640Y87630
X-40640Y90170
X-40640Y92710
X-40640Y95250
X-40640Y97790
X-58420Y97790
X-58420Y95250
X-58420Y82550
X-58420Y80010
X-58420Y92710
X-58420Y90170
X-58420Y85090
X-58420Y87630
X-58420Y77470
X-58420Y74930
X-66040Y74930
X-66040Y77470
X-66040Y80010
X-66040Y82550
X-66040Y85090
X-66040Y87630
X-66040Y90170
X-66040Y92710
X-66040Y95250
X-66040Y97790
X-88900Y10160
X-86360Y10160
X-73660Y10160
X-73660Y17780
X-83820Y10160
X-81280Y10160
X-76200Y10160
X-78740Y10160
X-76200Y17780
X-78740Y17780
X-81280Y17780
X-83820Y17780
X-86360Y17780
X-88900Y17780
X-35560Y54610
X-35560Y52070
X-35560Y39370
X-35560Y36830
X-35560Y49530
X-35560Y46990
X-35560Y41910
X-35560Y44450
X-27940Y36830
X-35560Y90170
X-27940Y39370
X-27940Y41910
X-27940Y44450
X-27940Y46990
X-27940Y49530
X-27940Y52070
X-27940Y54610
X-24130Y64770
X-24130Y62230
X-24130Y49530
X-24130Y46990
X-24130Y59690
X-24130Y57150
X-24130Y52070
X-24130Y54610
X-16510Y46990
X-16510Y49530
X-16510Y52070
X-16510Y54610
X-16510Y57150
X-16510Y59690
X-16510Y62230
X-16510Y64770
X-40640Y46990
X-40640Y49530
X-40640Y62230
X-40640Y64770
X-40640Y52070
X-40640Y54610
X-40640Y59690
X-40640Y57150
X-40640Y67310
X-40640Y69850
X-48260Y69850
X-48260Y67310
X-48260Y64770
X-48260Y62230
X-48260Y59690
X-48260Y57150
X-48260Y54610
X-48260Y52070
X-48260Y49530
X-48260Y46990
X-35560Y31750
X-35560Y29210
X-35560Y16510
X-35560Y13970
X-35560Y26670
X-35560Y24130
X-35560Y19050
X-35560Y21590
X-27940Y13970
X-27940Y16510
X-27940Y19050
X-27940Y21590
X-27940Y24130
X-27940Y26670
X-27940Y29210
X-27940Y31750
X-24130Y36830
X-24130Y34290
X-24130Y21590
X-24130Y19050
X-24130Y31750
X-24130Y29210
X-24130Y24130
X-24130Y26670
X-16510Y19050
X-16510Y21590
X-16510Y24130
X-16510Y26670
X-16510Y29210
X-16510Y31750
X-16510Y34290
X-16510Y36830
X-40640Y19050
X-40640Y21590
X-40640Y34290
X-40640Y36830
X-40640Y24130
X-40640Y26670
X-40640Y31750
X-40640Y29210
X-40640Y39370
X-40640Y41910
X-48260Y41910
X-48260Y39370
X-48260Y36830
X-48260Y34290
X-48260Y31750
X-48260Y29210
X-48260Y26670
X-48260Y24130
X-48260Y21590
X-35560Y74930
X-35560Y72390
X-35560Y59690
X-27940Y59690
X-35560Y69850
X-35560Y67310
X-35560Y62230
X-35560Y64770
X-27940Y62230
X-27940Y64770
X-27940Y67310
X-27940Y69850
X-27940Y72390
X-27940Y74930
X-101600Y59690
X-101600Y62230
X-101600Y74930
X-101600Y77470
X-101600Y64770
X-101600Y67310
X-101600Y72390
X-101600Y69850
X-109220Y77470
X-109220Y74930
X-109220Y72390
X-109220Y69850
X-109220Y67310
X-109220Y64770
X-109220Y62230
X-109220Y59690
X-69850Y62230
X-69850Y64770
X-69850Y77470
X-77470Y77470
X-69850Y67310
X-69850Y69850
X-69850Y74930
X-69850Y72390
X-77470Y74930
X-77470Y72390
X-77470Y69850
X-77470Y67310
X-77470Y64770
X-77470Y62230
X-101600Y16510
X-101600Y19050
X-101600Y31750
X-109220Y31750
X-101600Y21590
X-101600Y24130
X-101600Y29210
X-101600Y26670
X-109220Y29210
X-109220Y26670
X-109220Y24130
X-109220Y21590
X-109220Y19050
X-109220Y16510
X-69850Y21590
X-69850Y24130
X-69850Y36830
X-77470Y36830
X-69850Y26670
X-69850Y29210
X-69850Y34290
X-69850Y31750
X-77470Y34290
X-77470Y31750
X-77470Y29210
X-77470Y26670
X-77470Y24130
X-77470Y21590
X-58420Y41910
X-58420Y39370
X-58420Y26670
X-58420Y24130
X-58420Y36830
X-58420Y34290
X-58420Y29210
X-58420Y31750
X-58420Y21590
X-58420Y19050
X-66040Y19050
X-66040Y21590
X-66040Y24130
X-66040Y26670
X-66040Y29210
X-66040Y31750
X-66040Y34290
X-66040Y36830
X-66040Y39370
X-66040Y41910
X-101600Y82550
X-101600Y85090
X-101600Y97790
X-109220Y97790
X-101600Y87630
X-101600Y90170
X-101600Y95250
X-101600Y92710
X-109220Y95250
X-109220Y92710
X-109220Y90170
X-109220Y87630
X-109220Y85090
X-109220Y82550
X-85090Y82550
X-85090Y85090
X-85090Y97790
X-92710Y97790
X-85090Y87630
X-85090Y90170
X-85090Y95250
X-85090Y92710
X-92710Y95250
X-92710Y92710
X-92710Y90170
X-92710Y87630
X-92710Y85090
X-92710Y82550
X-58420Y69850
X-58420Y67310
X-58420Y54610
X-58420Y52070
X-58420Y64770
X-58420Y62230
X-58420Y57150
X-58420Y59690
X-58420Y49530
X-58420Y46990
X-66040Y46990
X-66040Y49530
X-66040Y52070
X-66040Y54610
X-66040Y57150
X-66040Y59690
X-66040Y62230
X-66040Y64770
X-66040Y67310
X-66040Y69850
X-35560Y97790
X-35560Y95250
X-35560Y82550
X-35560Y80010
X-35560Y92710
X-48260Y19050
X-35560Y85090
X-35560Y87630
X-27940Y80010
X-27940Y82550
X-27940Y85090
X-27940Y87630
X-27940Y90170
X-27940Y92710
X-27940Y95250
X-27940Y97790
X-85090Y21590
X-85090Y24130
X-85090Y36830
X-92710Y36830
X-85090Y26670
X-85090Y29210
X-85090Y34290
X-85090Y31750
X-92710Y34290
X-92710Y31750
X-92710Y29210
X-92710Y26670
X-92710Y24130
X-92710Y21590
X-101600Y36830
X-101600Y39370
X-101600Y52070
X-101600Y54610
X-101600Y41910
X-101600Y44450
X-101600Y49530
X-101600Y46990
X-109220Y54610
X-109220Y52070
X-109220Y49530
X-109220Y46990
X-109220Y44450
X-109220Y41910
X-109220Y39370
X-109220Y36830
X-85090Y62230
X-85090Y64770
X-85090Y77470
X-92710Y77470
X-85090Y67310
X-85090Y69850
X-85090Y74930
X-85090Y72390
X-92710Y74930
X-92710Y72390
X-92710Y69850
X-92710Y67310
X-92710Y64770
X-92710Y62230
X-85090Y41910
X-85090Y44450
X-85090Y57150
X-92710Y57150
X-85090Y46990
X-85090Y49530
X-85090Y54610
X-85090Y52070
X-92710Y54610
X-92710Y52070
X-92710Y49530
X-92710Y46990
X-92710Y44450
X-92710Y41910
X-69850Y41910
X-69850Y44450
X-69850Y57150
X-77470Y57150
X-69850Y46990
X-69850Y49530
X-69850Y54610
T3
X-73660Y6350
X-99060Y3810
X-96520Y3810
X-93980Y3810
X-91440Y3810
X-88900Y3810
X-86360Y3810
X-83820Y3810
X-81280Y3810
X-78740Y3810
X-76200Y3810
X-73660Y3810
X-71120Y3810
X-68580Y3810
X-55880Y3810
X-53340Y3810
X-50800Y3810
X-48260Y3810
X-45720Y3810
X-43180Y3810
X-40640Y3810
X-38100Y3810
X-27940Y3810
X-22860Y3810
X-20320Y3810
X-25400Y3810
X-106680Y6350
X-104140Y6350
X-101600Y6350
X-99060Y6350
X-96520Y6350
X-93980Y6350
X-91440Y6350
X-88900Y6350
X-86360Y6350
X-83820Y6350
X-81280Y6350
X-78740Y6350
X-76200Y6350
X-71120Y6350
X-68580Y6350
X-55880Y6350
X-53340Y6350
X-50800Y6350
X-48260Y6350
X-45720Y6350
X-43180Y6350
X-40640Y6350
X-38100Y6350
X-27940Y6350
X-22860Y6350
X-20320Y6350
X-25400Y6350
X-106680Y3810
X-104140Y3810
X-101600Y3810
T4
X-80963Y50800
X-82233Y52070
X-42228Y40958
X-67945Y44132
X-104140Y31750
X-105727Y89535
X-104457Y65405
X-78740Y55880
X-106680Y48577
X-44767Y36513
X-44767Y56515
X-107315Y65087
X-82233Y43180
X-106997Y43180
X-51752Y52070
X-54292Y42863
X-73025Y42228
X-73660Y43815
X-82233Y23495
X-110807Y15557
X-38735Y18415
X-80328Y20003
X-38418Y49847
X-71438Y48260
X-70803Y58737
X-87947Y67310
X-71755Y80645
X-84455Y80645
X-69533Y40005
X-65087Y45720
X-46990Y91440
X-90170Y75883
X-42228Y30480
X-88265Y30162
X-103505Y32702
X-38418Y44450
X-45720Y86043
X-74613Y88900
X-98425Y42545
X-82868Y93980
X-73025Y34290
X-73660Y50800
X-80010Y53340
X-41275Y45085
X-72708Y46355
X-95885Y47625
X-38418Y43180
X-75248Y45720
X-81915Y62865
X-81915Y86678
X-73025Y26670
X-69215Y18098
X-73343Y61277
X-74930Y26987
X-105727Y54610
X-105410Y71755
X-93662Y91440
X-95250Y79375
X-87947Y51435
X-98425Y39370
X-97155Y72390
X-96837Y40005
X-96520Y74295
X-105092Y53022
X-104775Y66675
X-91440Y71120
X-90170Y47307
X-109855Y57785
X-82233Y44132
X-79375Y41275
X-70485Y40005
X-62865Y46990
X-53975Y50482
X-52387Y73978
X-67945Y39053
X-24130Y88900
X-42863Y54610
X-44767Y77470
X-106680Y45402
X-39370Y96520
X-74295Y66993
X-72708Y74295
X-42545Y86043
X-90170Y80645
X-82233Y95567
X-107315Y92392
X-64770Y48260
X-62547Y92075
X-63500Y88582
X-74930Y58102
X-72390Y86678
X-76200Y55880
X-63182Y62547
X-63182Y83820
X-73025Y80010
X-73025Y75883
X-84138Y60642
X-71120Y71120
X-73025Y62230
X-37148Y63182
X-68898Y83820
X-43180Y87630
X-63182Y94297
X-61277Y78740
X-63182Y34925
X-67945Y24447
X-80010Y20955
X-73025Y29210
X-73660Y37148
X-68263Y37783
X-51435Y72708
X-54292Y40958
X-100012Y33973
X-67945Y36195
X-81280Y65405
X-81280Y82233
X-67310Y76200
X-97155Y80010
X-53975Y61595
X-54292Y99060
X-54610Y57785
X-54610Y85725
X-80010Y87630
X-80010Y69850
X-64770Y68580
X-80645Y64452
X-74295Y61595
X-73660Y58420
X-68898Y55880
X-59372Y50800
X-90805Y72073
X-73025Y66675
X-72708Y52387
X-68580Y50800
X-79375Y34925
X-64770Y35560
X-64135Y81280
X-42545Y35560
X-31750Y47942
X-64135Y45720
X-91440Y38735
X-43815Y38100
X-43498Y25400
X-60960Y37783
X-60960Y25400
X-53022Y67310
X-53340Y65405
X-45720Y37465
X-44450Y16510
X-51117Y62230
X-45402Y34608
X-19368Y49847
X-25082Y11747
X-50800Y60642
X-29210Y34608
X-55562Y82550
X-55880Y54927
X-83503Y30162
X-46037Y25400
X-30480Y46037
X-30480Y25082
X-51117Y27305
X-55245Y80010
X-55245Y52705
X-52705Y45720
X-62547Y26035
X-21273Y30162
X-21907Y87630
X-31750Y17145
X-33338Y17145
X-29527Y75883
X-31750Y14287
X-30162Y74295
X-25082Y15240
X-62865Y46037
X-33020Y75565
X-38418Y62547
X-99060Y71120
X-98742Y41275
X-38735Y56515
X-68898Y48260
X-25717Y33338
X-95885Y46355
X-103822Y46355
X-79375Y42545
X-82233Y46672
X-54610Y55562
X-53022Y64135
X-100647Y60960
X-83185Y68898
X-81915Y22542
X-76200Y76200
X-62230Y66675
X-37148Y51117
X-46037Y12382
X-30480Y89852
X-41593Y71438
X-95250Y74295
X-95250Y24130
X-88582Y69533
X-88582Y32385
X-87947Y71120
X-72708Y71755
X-73343Y70485
X-39053Y32702
X-104457Y55245
X-98425Y56515
M30