M48
;GenerationSoftware,Autodesk,EAGLE,9.6.1*%
;CreationDate,2020-05-12T11:21:13Z*%
FMAT,2
ICI,OFF
METRIC,TZ,000.000
T5C0.350
T4C0.550
T3C0.813
T2C1.016
%
G90
M71
T2
X-16510Y12700
X-16510Y87630
X-16510Y85090
X-16510Y82550
X-16510Y80010
X-16510Y77470
X-16510Y74930
X-16510Y72390
X-16510Y69850
X-16510Y92710
X-16510Y90170
X-16510Y44450
X-16510Y41910
X-16510Y15240
T3
X-69850Y54610
X-69850Y92710
X-69850Y52070
X-77470Y54610
X-77470Y52070
X-77470Y49530
X-77470Y46990
X-77470Y44450
X-77470Y41910
X-69850Y82550
X-69850Y85090
X-69850Y97790
X-77470Y97790
X-69850Y87630
X-69850Y90170
X-69850Y95250
X-85090Y46990
X-69850Y49530
X-69850Y46990
X-77470Y57150
X-69850Y57150
X-69850Y44450
X-69850Y41910
X-92710Y41910
X-92710Y44450
X-92710Y46990
X-92710Y49530
X-92710Y52070
X-92710Y54610
X-85090Y52070
X-85090Y54610
X-85090Y49530
X-58420Y85090
X-40640Y97790
X-40640Y77470
X-40640Y80010
X-40640Y82550
X-40640Y85090
X-40640Y87630
X-40640Y90170
X-40640Y92710
X-40640Y95250
X-40640Y74930
X-58420Y97790
X-58420Y95250
X-58420Y82550
X-58420Y80010
X-58420Y92710
X-58420Y90170
X-66040Y64770
X-77470Y95250
X-48260Y74930
X-48260Y77470
X-48260Y87630
X-48260Y85090
X-48260Y90170
X-48260Y92710
X-48260Y80010
X-48260Y82550
X-48260Y95250
X-48260Y97790
X-77470Y82550
X-77470Y85090
X-77470Y87630
X-77470Y90170
X-77470Y92710
X-85090Y29210
X-35560Y80010
X-35560Y77470
X-35560Y74930
X-85090Y21590
X-85090Y24130
X-85090Y36830
X-92710Y36830
X-85090Y26670
X-35560Y82550
X-85090Y34290
X-85090Y31750
X-92710Y31750
X-92710Y29210
X-92710Y26670
X-92710Y24130
X-92710Y21590
X-101600Y36830
X-35560Y85090
X-35560Y87630
X-35560Y90170
X-35560Y92710
X-27940Y85090
X-27940Y87630
X-27940Y82550
X-27940Y80010
X-27940Y92710
X-27940Y90170
X-27940Y77470
X-27940Y74930
X-66040Y69850
X-66040Y67310
X-92710Y34290
X-92710Y72390
X-85090Y64770
X-85090Y77470
X-92710Y77470
X-85090Y67310
X-85090Y69850
X-85090Y74930
X-85090Y72390
X-92710Y74930
X-85090Y62230
X-92710Y69850
X-92710Y67310
X-92710Y64770
X-92710Y62230
X-85090Y41910
X-85090Y44450
X-85090Y57150
X-92710Y57150
X-109220Y36830
X-109220Y39370
X-109220Y41910
X-109220Y44450
X-109220Y46990
X-109220Y49530
X-109220Y52070
X-109220Y54610
X-101600Y46990
X-101600Y49530
X-101600Y44450
X-101600Y41910
X-101600Y54610
X-101600Y52070
X-101600Y39370
X-27940Y26670
X-35560Y19050
X-35560Y31750
X-35560Y29210
X-35560Y24130
X-35560Y26670
X-27940Y19050
X-27940Y21590
X-27940Y24130
X-35560Y21590
X-27940Y29210
X-27940Y31750
X-27940Y34290
X-27940Y36830
X-24130Y36830
X-24130Y34290
X-24130Y21590
X-24130Y19050
X-35560Y34290
X-35560Y36830
X-48260Y46990
X-48260Y49530
X-48260Y52070
X-48260Y54610
X-48260Y57150
X-48260Y59690
X-48260Y62230
X-48260Y64770
X-48260Y67310
X-48260Y69850
X-40640Y69850
X-40640Y67310
X-40640Y57150
X-48260Y36830
X-40640Y24130
X-40640Y26670
X-40640Y31750
X-40640Y29210
X-40640Y39370
X-40640Y41910
X-48260Y41910
X-48260Y39370
X-40640Y36830
X-48260Y34290
X-48260Y31750
X-48260Y29210
X-48260Y26670
X-48260Y24130
X-48260Y21590
X-48260Y19050
X-40640Y59690
X-40640Y34290
X-40640Y21590
X-40640Y19050
X-16510Y36830
X-16510Y34290
X-16510Y31750
X-16510Y29210
X-16510Y26670
X-16510Y24130
X-16510Y21590
X-16510Y19050
X-24130Y26670
X-24130Y24130
X-24130Y29210
X-24130Y31750
X-86360Y17780
X-83820Y10160
X-81280Y10160
X-76200Y10160
X-78740Y10160
X-76200Y17780
X-78740Y17780
X-81280Y17780
X-83820Y17780
X-73660Y17780
X-88900Y17780
X-35560Y64770
X-35560Y62230
X-35560Y49530
X-35560Y46990
X-35560Y59690
X-35560Y57150
X-35560Y52070
X-73660Y10160
X-86360Y10160
X-88900Y10160
X-66040Y97790
X-66040Y95250
X-66040Y92710
X-66040Y90170
X-66040Y87630
X-66040Y85090
X-66040Y82550
X-66040Y80010
X-66040Y77470
X-66040Y74930
X-58420Y74930
X-58420Y77470
X-24130Y52070
X-40640Y54610
X-40640Y52070
X-40640Y64770
X-40640Y62230
X-40640Y49530
X-40640Y46990
X-16510Y64770
X-16510Y62230
X-16510Y59690
X-16510Y57150
X-16510Y54610
X-16510Y52070
X-16510Y49530
X-16510Y46990
X-24130Y54610
X-58420Y87630
X-24130Y57150
X-24130Y59690
X-24130Y46990
X-24130Y49530
X-24130Y62230
X-24130Y64770
X-27940Y64770
X-27940Y62230
X-27940Y59690
X-27940Y57150
X-27940Y54610
X-27940Y52070
X-27940Y49530
X-27940Y46990
X-35560Y54610
X-69850Y36830
X-101600Y19050
X-101600Y31750
X-109220Y31750
X-101600Y21590
X-101600Y24130
X-101600Y29210
X-101600Y26670
X-109220Y29210
X-109220Y26670
X-109220Y24130
X-109220Y21590
X-109220Y19050
X-109220Y16510
X-69850Y21590
X-69850Y24130
X-101600Y16510
X-77470Y36830
X-69850Y26670
X-69850Y29210
X-69850Y34290
X-69850Y31750
X-77470Y34290
X-77470Y31750
X-77470Y29210
X-77470Y26670
X-77470Y24130
X-77470Y21590
X-58420Y41910
X-58420Y39370
X-58420Y26670
X-109220Y59690
X-101600Y59690
X-101600Y62230
X-101600Y74930
X-101600Y77470
X-101600Y64770
X-101600Y67310
X-101600Y72390
X-101600Y69850
X-109220Y77470
X-109220Y74930
X-109220Y72390
X-109220Y69850
X-109220Y67310
X-109220Y64770
X-109220Y62230
X-66040Y59690
X-69850Y62230
X-69850Y64770
X-69850Y77470
X-77470Y77470
X-69850Y67310
X-69850Y69850
X-69850Y74930
X-69850Y72390
X-77470Y74930
X-77470Y72390
X-77470Y69850
X-77470Y67310
X-77470Y64770
X-77470Y62230
X-58420Y67310
X-85090Y85090
X-85090Y97790
X-66040Y62230
X-92710Y97790
X-85090Y87630
X-85090Y90170
X-85090Y95250
X-85090Y92710
X-92710Y95250
X-92710Y92710
X-92710Y90170
X-92710Y87630
X-92710Y85090
X-92710Y82550
X-58420Y69850
X-58420Y36830
X-58420Y54610
X-58420Y52070
X-58420Y64770
X-58420Y62230
X-58420Y57150
X-58420Y59690
X-58420Y49530
X-58420Y46990
X-66040Y46990
X-66040Y49530
X-66040Y52070
X-66040Y54610
X-66040Y57150
X-58420Y24130
X-109220Y82550
X-85090Y82550
X-58420Y34290
X-58420Y29210
X-58420Y31750
X-58420Y21590
X-58420Y19050
X-66040Y19050
X-66040Y21590
X-66040Y24130
X-66040Y26670
X-66040Y29210
X-66040Y31750
X-66040Y34290
X-66040Y36830
X-66040Y39370
X-101600Y82550
X-66040Y41910
X-109220Y85090
X-109220Y87630
X-109220Y90170
X-109220Y92710
X-109220Y95250
X-101600Y92710
X-101600Y95250
X-101600Y90170
X-101600Y87630
X-109220Y97790
X-101600Y97790
X-101600Y85090
T4
X-68580Y3810
X-55880Y3810
X-53340Y3810
X-50800Y3810
X-48260Y3810
X-45720Y3810
X-43180Y3810
X-83820Y6350
X-40640Y3810
X-38100Y3810
X-27940Y3810
X-22860Y3810
X-20320Y3810
X-25400Y3810
X-106680Y6350
X-71120Y3810
X-73660Y3810
X-76200Y3810
X-78740Y3810
X-81280Y3810
X-83820Y3810
X-86360Y3810
X-88900Y3810
X-91440Y3810
X-93980Y3810
X-96520Y3810
X-99060Y3810
X-101600Y3810
X-104140Y3810
X-106680Y3810
X-101600Y6350
X-104140Y6350
X-25400Y6350
X-20320Y6350
X-22860Y6350
X-27940Y6350
X-38100Y6350
X-40640Y6350
X-43180Y6350
X-45720Y6350
X-48260Y6350
X-50800Y6350
X-53340Y6350
X-55880Y6350
X-71120Y6350
X-68580Y6350
X-99060Y6350
X-96520Y6350
X-93980Y6350
X-91440Y6350
X-88900Y6350
X-81280Y6350
X-78740Y6350
X-76200Y6350
X-73660Y6350
X-86360Y6350
T5
X-103822Y53657
X-103822Y64770
X-103822Y26987
X-38100Y56197
X-39053Y42863
X-95567Y40958
X-95567Y46355
X-37465Y44767
X-100330Y43180
X-100647Y68580
X-25717Y11430
X-21590Y17780
X-99377Y26352
X-74295Y49847
X-75248Y52705
X-73343Y37465
X-98425Y54610
X-106997Y26987
X-104140Y63500
X-104140Y87630
X-104457Y48577
X-105727Y46355
X-106997Y44450
X-38100Y46672
X-45720Y34290
X-50482Y70168
X-34608Y67628
X-38735Y39688
X-33655Y11112
X-63500Y30480
X-62547Y39053
X-44132Y38100
X-51117Y40640
X-90487Y26987
X-88582Y37465
X-45085Y38100
X-50482Y62547
X-25400Y15557
X-45720Y62547
X-50800Y35243
X-50482Y59055
X-83503Y35878
X-61277Y35878
X-60642Y81915
X-60642Y54610
X-53340Y24130
X-54292Y79375
X-54292Y53022
X-56832Y75883
X-56197Y90805
X-72708Y20320
X-40640Y72073
X-89535Y63500
X-87947Y61595
X-75248Y75883
X-63817Y97155
X-71438Y80010
X-73978Y84138
X-74295Y50800
X-74930Y88900
X-75248Y57467
X-73978Y89217
X-74295Y57150
X-72073Y33655
X-56832Y47942
X-110807Y84138
X-51435Y85725
X-53657Y61277
X-42863Y84455
X-45085Y68898
X-82550Y76835
X-83185Y53022
X-97155Y78105
X-97790Y45085
X-55562Y75565
X-55562Y40005
X-73025Y65087
X-59372Y11112
X-46672Y16510
X-39053Y72708
X-94615Y75248
X-94932Y26352
X-81280Y72073
X-83185Y32385
X-80645Y67310
X-87313Y70485
X-79693Y76835
X-79693Y67310
X-73025Y74295
X-97790Y73025
X-61912Y66675
X-62230Y89852
X-62865Y96520
X-62865Y93980
X-72073Y57150
X-105727Y57467
X-105727Y64135
X-98425Y60960
X-72390Y86678
X-72073Y63817
X-67628Y28257
X-61277Y21273
X-37465Y43815
X-81915Y34608
X-88265Y69850
X-38418Y26352
X-53022Y42228
X-51752Y50482
X-75248Y39370
X-75248Y32067
X-99060Y42545
X-38100Y54610
X-46355Y87947
X-46355Y28575
X-87630Y75248
X-67628Y43498
X-73978Y22542
X-69850Y39053
X-39688Y22860
X-38100Y31750
X-87630Y71755
X-62547Y50800
X-83185Y46672
X-110807Y17463
X-86678Y27622
X-79058Y47942
X-45720Y46355
X-42863Y58737
X-107950Y71120
X-89217Y74295
X-99060Y44767
X-93980Y71120
X-102552Y58420
X-101282Y57150
X-89535Y60325
X-88582Y55245
X-89852Y47625
X-90487Y74295
X-95250Y67310
X-95885Y51117
X-105092Y76200
X-106997Y41275
X-107632Y45720
X-90487Y39053
X-90487Y67945
X-90487Y50482
X-104457Y72390
X-104457Y56832
X-88900Y62230
X-80010Y23177
X-80328Y61912
X-80010Y27622
X-39053Y45402
X-75883Y46037
X-74613Y33655
M30