M48
;GenerationSoftware,Autodesk,EAGLE,9.6.1*%
;CreationDate,2020-05-12T14:53:44Z*%
FMAT,2
ICI,OFF
METRIC,TZ,000.000
T5C0.350
T4C0.550
T3C0.813
T2C1.016
%
G90
M71
T2
X-17780Y74930
X-17780Y40640
X-17780Y64770
X-17780Y62230
X-17780Y50800
X-17780Y48260
X-17780Y45720
T3
X-102870Y38100
X-90170Y38100
X-100330Y45720
X-100330Y38100
X-95250Y38100
X-97790Y38100
X-90170Y45720
X-92710Y45720
X-95250Y45720
X-97790Y45720
X-57150Y50800
X-92710Y38100
X-105410Y38100
X-107950Y38100
X-85090Y45720
X-82550Y45720
X-80010Y45720
X-77470Y45720
X-74930Y45720
X-72390Y45720
X-69850Y45720
X-67310Y45720
X-74930Y38100
X-72390Y38100
X-77470Y38100
X-80010Y38100
X-34290Y50800
X-46990Y66040
X-44450Y66040
X-41910Y66040
X-39370Y66040
X-36830Y66040
X-34290Y66040
X-31750Y66040
X-29210Y66040
X-26670Y66040
X-26670Y50800
X-29210Y50800
X-31750Y50800
X-102870Y45720
X-36830Y50800
X-39370Y50800
X-41910Y50800
X-44450Y50800
X-46990Y50800
X-49530Y50800
X-52070Y50800
X-54610Y50800
X-85090Y38100
X-59690Y50800
X-107950Y45720
X-105410Y45720
X-57150Y19050
X-24130Y45720
X-21590Y45720
X-29210Y38100
X-26670Y38100
X-31750Y38100
X-34290Y38100
X-21590Y38100
X-24130Y38100
X-36830Y38100
X-39370Y38100
X-62230Y19050
X-59690Y19050
X-26670Y45720
X-54610Y19050
X-52070Y19050
X-49530Y19050
X-46990Y19050
X-44450Y19050
X-41910Y19050
X-39370Y19050
X-39370Y11430
X-41910Y11430
X-52070Y11430
X-49530Y11430
X-54610Y11430
X-49530Y38100
X-69850Y38100
X-82550Y38100
X-49530Y66040
X-62230Y45720
X-59690Y45720
X-57150Y45720
X-54610Y45720
X-52070Y45720
X-49530Y45720
X-46990Y45720
X-44450Y45720
X-52070Y38100
X-67310Y38100
X-54610Y38100
X-57150Y38100
X-44450Y38100
X-46990Y38100
X-59690Y38100
X-62230Y38100
X-39370Y45720
X-36830Y45720
X-34290Y45720
X-31750Y45720
X-29210Y45720
X-77470Y95250
X-83820Y92710
X-83820Y95250
X-83820Y90170
X-83820Y87630
X-91440Y97790
X-83820Y97790
X-83820Y85090
X-83820Y82550
X-77470Y82550
X-77470Y85090
X-77470Y87630
X-77470Y90170
X-77470Y92710
X-91440Y95250
X-69850Y92710
X-69850Y95250
X-69850Y90170
X-69850Y87630
X-77470Y97790
X-69850Y97790
X-69850Y85090
X-69850Y82550
X-57150Y93980
X-54610Y93980
X-54610Y86360
X-57150Y86360
X-57150Y81280
X-80010Y78740
X-97790Y73660
X-69850Y71120
X-72390Y71120
X-74930Y71120
X-77470Y71120
X-80010Y71120
X-82550Y71120
X-85090Y71120
X-87630Y71120
X-90170Y71120
X-92710Y71120
X-92710Y78740
X-90170Y78740
X-57150Y73660
X-82550Y78740
X-77470Y78740
X-74930Y78740
X-87630Y78740
X-85090Y78740
X-72390Y78740
X-69850Y78740
X-91440Y82550
X-91440Y85090
X-91440Y87630
X-91440Y90170
X-91440Y92710
X-34290Y92710
X-48260Y95250
X-40640Y92710
X-40640Y95250
X-40640Y90170
X-40640Y87630
X-48260Y97790
X-40640Y97790
X-40640Y85090
X-40640Y82550
X-34290Y82550
X-34290Y85090
X-34290Y87630
X-34290Y90170
X-48260Y92710
X-34290Y95250
X-26670Y92710
X-26670Y95250
X-26670Y90170
X-26670Y87630
X-34290Y97790
X-26670Y97790
X-26670Y85090
X-26670Y82550
X-59690Y66040
X-57150Y66040
X-54610Y66040
X-52070Y66040
X-46990Y78740
X-54610Y81280
X-54610Y73660
X-26670Y71120
X-29210Y71120
X-31750Y71120
X-34290Y71120
X-36830Y71120
X-39370Y71120
X-41910Y71120
X-44450Y71120
X-46990Y71120
X-49530Y71120
X-49530Y78740
X-57150Y11430
X-36830Y78740
X-39370Y78740
X-34290Y78740
X-31750Y78740
X-44450Y78740
X-41910Y78740
X-29210Y78740
X-26670Y78740
X-48260Y82550
X-48260Y85090
X-48260Y87630
X-48260Y90170
X-85090Y30480
X-92710Y30480
X-90170Y30480
X-97790Y22860
X-95250Y22860
X-100330Y22860
X-102870Y22860
X-90170Y22860
X-92710Y22860
X-105410Y22860
X-107950Y22860
X-95250Y30480
X-82550Y30480
X-80010Y30480
X-77470Y30480
X-74930Y30480
X-72390Y30480
X-69850Y30480
X-67310Y30480
X-74930Y22860
X-72390Y22860
X-57150Y22860
X-46990Y30480
X-44450Y30480
X-41910Y30480
X-39370Y30480
X-39370Y22860
X-41910Y22860
X-52070Y22860
X-49530Y22860
X-54610Y22860
X-77470Y22860
X-44450Y22860
X-46990Y22860
X-59690Y22860
X-62230Y22860
X-107950Y30480
X-105410Y30480
X-102870Y30480
X-100330Y30480
X-97790Y30480
X-80010Y66040
X-82550Y50800
X-80010Y50800
X-77470Y50800
X-74930Y50800
X-72390Y50800
X-69850Y50800
X-69850Y66040
X-72390Y66040
X-74930Y66040
X-77470Y66040
X-85090Y50800
X-82550Y66040
X-85090Y66040
X-87630Y66040
X-90170Y66040
X-92710Y66040
X-95250Y66040
X-97790Y66040
X-100330Y66040
X-102870Y66040
X-97790Y86360
X-80010Y22860
X-67310Y22860
X-69850Y22860
X-82550Y22860
X-85090Y22860
X-97790Y81280
X-100330Y73660
X-100330Y81280
X-100330Y86360
X-44450Y11430
X-97790Y93980
X-100330Y93980
X-102870Y50800
X-100330Y50800
X-97790Y50800
X-95250Y50800
X-92710Y50800
X-90170Y50800
X-87630Y50800
X-80010Y11430
X-82550Y19050
X-80010Y19050
X-77470Y19050
X-74930Y19050
X-72390Y19050
X-69850Y19050
X-67310Y19050
X-74930Y11430
X-72390Y11430
X-77470Y11430
X-85090Y19050
X-67310Y11430
X-69850Y11430
X-82550Y11430
X-85090Y11430
X-24130Y11430
X-24130Y13970
X-24130Y16510
X-24130Y19050
X-24130Y21590
X-92710Y19050
X-46990Y11430
X-59690Y11430
X-62230Y11430
X-107950Y19050
X-105410Y19050
X-102870Y19050
X-100330Y19050
X-97790Y19050
X-95250Y19050
X-52070Y30480
X-90170Y19050
X-97790Y11430
X-95250Y11430
X-100330Y11430
X-102870Y11430
X-90170Y11430
X-92710Y11430
X-105410Y11430
X-107950Y11430
X-27940Y29210
X-35560Y26670
X-35560Y29210
X-35560Y31750
X-35560Y34290
X-27940Y34290
X-27940Y31750
X-27940Y21590
X-27940Y24130
X-27940Y19050
X-27940Y16510
X-24130Y26670
X-27940Y26670
X-27940Y13970
X-27940Y11430
X-62230Y30480
X-59690Y30480
X-57150Y30480
X-54610Y30480
X-49530Y30480
X-24130Y24130
X-35560Y21590
X-35560Y24130
X-24130Y29210
X-24130Y31750
X-24130Y34290
X-16510Y34290
X-16510Y31750
X-16510Y21590
X-16510Y24130
X-16510Y19050
X-16510Y29210
X-16510Y26670
X-16510Y13970
X-16510Y11430
X-35560Y11430
X-35560Y13970
X-35560Y16510
X-35560Y19050
X-16510Y16510
T4
X-76200Y6350
X-78740Y6350
X-81280Y6350
X-83820Y6350
X-86360Y6350
X-88900Y6350
X-91440Y6350
X-93980Y6350
X-96520Y6350
X-99060Y6350
X-101600Y6350
X-104140Y6350
X-106680Y6350
X-25400Y3810
X-73660Y6350
X-71120Y6350
X-68580Y6350
X-55880Y6350
X-53340Y6350
X-50800Y6350
X-48260Y6350
X-45720Y6350
X-43180Y6350
X-40640Y6350
X-38100Y6350
X-27940Y6350
X-22860Y6350
X-20320Y6350
X-76200Y3810
X-25400Y6350
X-106680Y3810
X-104140Y3810
X-101600Y3810
X-99060Y3810
X-96520Y3810
X-93980Y3810
X-91440Y3810
X-88900Y3810
X-86360Y3810
X-83820Y3810
X-81280Y3810
X-78740Y3810
X-20320Y3810
X-73660Y3810
X-71120Y3810
X-68580Y3810
X-55880Y3810
X-53340Y3810
X-50800Y3810
X-48260Y3810
X-45720Y3810
X-43180Y3810
X-40640Y3810
X-38100Y3810
X-27940Y3810
X-22860Y3810
T5
X-52121Y13411
X-84125Y21336
X-97231Y21031
X-32461Y20879
X-50292Y8077
X-29413Y30175
X-43739Y39776
X-98450Y15545
X-94031Y35814
X-97231Y35814
X-102870Y8534
X-39624Y13716
X-75133Y33833
X-53340Y8382
X-47396Y35662
X-29870Y10516
X-32309Y8077
X-36119Y4267
X-37033Y3353
X-21793Y21793
X-21946Y27432
X-24841Y22860
X-32766Y17526
X-31547Y20879
X-32309Y26213
X-29870Y28956
X-69342Y15545
X-87020Y21946
X-25451Y8382
X-88544Y12040
X-33680Y17983
X-89916Y28499
X-52883Y32156
X-43434Y13411
X-94183Y29108
X-42520Y16764
X-31547Y25451
X-30632Y27280
X-38405Y28499
X-45568Y7925
X-46482Y16459
X-44806Y27432
X-49987Y16764
X-60808Y21031
X-30632Y20879
X-47396Y33833
X-63094Y9906
X-29108Y4115
X-84887Y32614
X-48616Y28651
X-33376Y26975
X-45263Y28804
X-95250Y15545
X-62789Y3353
X-44653Y4572
X-44653Y6553
X-18288Y18440
X-36881Y7468
X-43434Y8077
X-57912Y9754
X-38710Y13259
X-38100Y23622
X-40386Y25908
X-49225Y25908
X-61265Y24841
X-58369Y24994
X-35662Y7315
X-38100Y16459
X-60350Y13716
X-97993Y33680
X-45720Y13411
X-48311Y13411
X-49987Y8992
X-15850Y25451
X-76810Y14021
X-70866Y17678
X-20422Y29566
X-93269Y9144
X-80620Y15392
X-64770Y46330
X-61417Y13106
X-19050Y23774
X-97993Y35204
X-43434Y32918
X-19812Y21336
X-45872Y33528
X-42062Y33376
X-103784Y14326
X-39624Y8839
X-36271Y9601
X-94183Y26365
M30