M48
;GenerationSoftware,Autodesk,EAGLE,9.6.1*%
;CreationDate,2020-05-14T00:52:23Z*%
FMAT,2
ICI,OFF
METRIC,TZ,000.000
T6C0.350
T5C0.550
T4C0.786
T3C0.813
T2C0.900
T1C1.016
%
G90
M71
T1
X-17780Y30480
X-17780Y33020
X-17780Y35560
X-17780Y38100
X-17780Y40640
X-95250Y96520
X-17780Y43180
X-17780Y45720
X-17780Y48260
X-17780Y50800
X-17780Y53340
X-17780Y55880
X-17780Y58420
X-17780Y60960
X-17780Y63500
X-17780Y66040
X-17780Y68580
X-17780Y71120
X-17780Y73660
X-17780Y76200
X-17780Y78740
X-97790Y96520
X-100330Y96520
X-102870Y96520
X-105410Y96520
X-107950Y96520
X-110490Y96520
X-17780Y22860
X-17780Y25400
X-17780Y27940
T2
X-67310Y69850
X-62230Y69850
X-64770Y69850
T3
X-88900Y45720
X-29210Y21590
X-91440Y73660
X-91440Y76200
X-91440Y88900
X-99060Y88900
X-91440Y78740
X-91440Y81280
X-91440Y86360
X-91440Y83820
X-99060Y86360
X-99060Y83820
X-99060Y81280
X-99060Y78740
X-99060Y76200
X-99060Y73660
X-87630Y74930
X-80010Y74930
X-53340Y43180
X-50800Y43180
X-48260Y43180
X-45720Y43180
X-43180Y43180
X-40640Y43180
X-38100Y43180
X-35560Y43180
X-33020Y43180
X-30480Y43180
X-27940Y43180
X-22860Y43180
X-20320Y43180
X-20320Y58420
X-22860Y58420
X-25400Y58420
X-27940Y58420
X-30480Y58420
X-33020Y58420
X-35560Y58420
X-38100Y58420
X-40640Y58420
X-43180Y58420
X-45720Y58420
X-48260Y58420
X-50800Y58420
X-53340Y58420
X-53340Y62230
X-50800Y62230
X-48260Y62230
X-45720Y62230
X-43180Y62230
X-40640Y62230
X-38100Y62230
X-35560Y62230
X-33020Y62230
X-30480Y62230
X-27940Y62230
X-25400Y62230
X-22860Y62230
X-20320Y62230
X-20320Y77470
X-22860Y77470
X-25400Y77470
X-27940Y77470
X-30480Y77470
X-33020Y77470
X-35560Y77470
X-38100Y77470
X-40640Y77470
X-43180Y77470
X-45720Y77470
X-48260Y77470
X-50800Y77470
X-53340Y77470
X-97790Y24130
X-49530Y81280
X-46990Y81280
X-44450Y81280
X-41910Y81280
X-39370Y81280
X-36830Y81280
X-34290Y81280
X-31750Y81280
X-29210Y81280
X-26670Y81280
X-24130Y81280
X-21590Y81280
X-19050Y81280
X-16510Y81280
X-16510Y96520
X-19050Y96520
X-21590Y96520
X-24130Y96520
X-26670Y96520
X-29210Y96520
X-31750Y96520
X-34290Y96520
X-36830Y96520
X-92710Y57404
X-92710Y59436
X-99060Y59690
X-99060Y57150
X-78740Y59690
X-78740Y57150
X-74930Y59690
X-74930Y57150
X-58420Y59690
X-58420Y57150
X-39370Y96520
X-41910Y96520
X-44450Y96520
X-46990Y96520
X-49530Y96520
X-83820Y81280
X-81280Y81280
X-78740Y81280
X-76200Y81280
X-73660Y81280
X-71120Y81280
X-68580Y81280
X-66040Y81280
X-63500Y81280
X-60960Y81280
X-58420Y81280
X-55880Y81280
X-53340Y81280
X-53340Y96520
X-55880Y96520
X-58420Y96520
X-60960Y96520
X-63500Y96520
X-66040Y96520
X-72390Y45720
X-69850Y45720
X-57150Y45720
X-57150Y53340
X-67310Y45720
X-64770Y45720
X-59690Y45720
X-62230Y45720
X-59690Y53340
X-62230Y53340
X-64770Y53340
X-67310Y53340
X-69850Y53340
X-72390Y53340
X-91440Y45720
X-68580Y96520
X-76200Y45720
X-76200Y53340
X-86360Y45720
X-83820Y45720
X-78740Y45720
X-81280Y45720
X-78740Y53340
X-81280Y53340
X-83820Y53340
X-86360Y53340
X-88900Y53340
X-91440Y53340
X-110490Y45720
X-107950Y45720
X-95250Y45720
X-95250Y53340
X-105410Y45720
X-102870Y45720
X-97790Y45720
X-100330Y45720
X-97790Y53340
X-100330Y53340
X-102870Y53340
X-105410Y53340
X-107950Y53340
X-110490Y53340
X-97790Y62230
X-97790Y69850
X-95250Y69850
X-95250Y62230
X-77470Y62230
X-77470Y69850
X-92710Y62230
X-92710Y69850
X-74930Y62230
X-74930Y69850
X-72390Y62230
X-72390Y69850
X-55880Y24130
X-55880Y26670
X-55880Y39370
X-55880Y41910
X-55880Y29210
X-55880Y31750
X-55880Y36830
X-55880Y34290
X-63500Y41910
X-63500Y39370
X-63500Y36830
X-63500Y34290
X-63500Y31750
X-63500Y29210
X-63500Y26670
X-63500Y24130
X-34290Y30480
X-36830Y30480
X-49530Y30480
X-52070Y30480
X-39370Y30480
X-41910Y30480
X-46990Y30480
X-44450Y30480
X-52070Y22860
X-49530Y22860
X-46990Y22860
X-44450Y22860
X-41910Y22860
X-39370Y22860
X-36830Y22860
X-34290Y22860
X-54610Y11430
X-52070Y11430
X-39370Y11430
X-36830Y11430
X-49530Y11430
X-46990Y11430
X-41910Y11430
X-44450Y11430
X-34290Y11430
X-31750Y11430
X-31750Y19050
X-34290Y19050
X-36830Y19050
X-39370Y19050
X-41910Y19050
X-44450Y19050
X-46990Y19050
X-49530Y19050
X-52070Y19050
X-54610Y19050
X-71120Y96520
X-73660Y96520
X-76200Y96520
X-78740Y96520
X-81280Y96520
X-83820Y96520
X-86360Y96520
X-102870Y76200
X-102870Y78740
X-102870Y81280
X-102870Y83820
X-102870Y86360
X-102870Y88900
X-102870Y91440
X-102870Y93980
X-110490Y93980
X-110490Y91440
X-110490Y88900
X-110490Y86360
X-110490Y83820
X-110490Y81280
X-110490Y78740
X-110490Y76200
X-86360Y81280
X-25400Y43180
X-110490Y11430
X-107950Y11430
X-95250Y11430
X-92710Y11430
X-105410Y11430
X-102870Y11430
X-97790Y11430
X-100330Y11430
X-90170Y11430
X-87630Y11430
X-87630Y19050
X-90170Y19050
X-92710Y19050
X-95250Y19050
X-97790Y19050
X-100330Y19050
X-102870Y19050
X-105410Y19050
X-107950Y19050
X-110490Y19050
X-82550Y11430
X-80010Y11430
X-67310Y11430
X-64770Y11430
X-77470Y11430
X-74930Y11430
X-69850Y11430
X-72390Y11430
X-62230Y11430
X-59690Y11430
X-59690Y19050
X-62230Y19050
X-64770Y19050
X-67310Y19050
X-69850Y19050
X-72390Y19050
X-74930Y19050
X-77470Y19050
X-80010Y19050
X-82550Y19050
X-101600Y24130
X-101600Y26670
X-101600Y29210
X-101600Y31750
X-101600Y34290
X-101600Y36830
X-101600Y39370
X-101600Y41910
X-109220Y41910
X-109220Y39370
X-109220Y36830
X-109220Y34290
X-109220Y31750
X-109220Y29210
X-109220Y26670
X-109220Y24130
X-90170Y24130
X-90170Y26670
X-90170Y29210
X-90170Y31750
X-90170Y34290
X-90170Y36830
X-90170Y39370
X-90170Y41910
X-97790Y41910
X-97790Y39370
X-97790Y36830
X-97790Y34290
X-97790Y31750
X-97790Y29210
X-97790Y26670
X-78740Y24130
X-78740Y26670
X-78740Y29210
X-78740Y31750
X-78740Y34290
X-78740Y36830
X-78740Y39370
X-78740Y41910
X-86360Y41910
X-86360Y39370
X-86360Y36830
X-86360Y34290
X-86360Y31750
X-86360Y29210
X-86360Y26670
X-86360Y24130
X-67310Y24130
X-67310Y26670
X-67310Y29210
X-67310Y31750
X-67310Y34290
X-67310Y36830
X-67310Y39370
X-67310Y41910
X-74930Y41910
X-74930Y39370
X-74930Y36830
X-74930Y34290
X-74930Y31750
X-74930Y29210
X-74930Y26670
X-74930Y24130
X-21590Y21590
X-21590Y24130
X-21590Y36830
X-29210Y36830
X-21590Y26670
X-21590Y29210
X-21590Y34290
X-21590Y31750
X-29210Y34290
X-29210Y31750
X-29210Y29210
X-29210Y26670
X-29210Y24130
T4
X-89220Y64770
X-80960Y64770
X-109540Y64770
X-109540Y62230
X-109540Y59690
X-109540Y57150
X-101280Y57150
X-101280Y59690
X-101280Y62230
X-101280Y64770
X-68900Y57150
X-89220Y62230
X-89220Y59690
X-89220Y57150
X-80960Y57150
X-80960Y59690
X-80960Y62230
X-68900Y64770
X-68900Y62230
X-68900Y59690
X-60640Y64770
X-60640Y57150
X-60640Y59690
X-60640Y62230
T5
X-53340Y6350
X-106680Y3810
X-104140Y3810
X-101600Y3810
X-99060Y3810
X-96520Y3810
X-93980Y3810
X-91440Y3810
X-88900Y3810
X-86360Y3810
X-83820Y3810
X-81280Y3810
X-78740Y3810
X-76200Y3810
X-73660Y3810
X-71120Y3810
X-68580Y3810
X-55880Y3810
X-53340Y3810
X-50800Y3810
X-48260Y3810
X-45720Y3810
X-43180Y3810
X-40640Y3810
X-38100Y3810
X-20320Y6350
X-25400Y6350
X-22860Y6350
X-27940Y6350
X-38100Y6350
X-40640Y6350
X-43180Y6350
X-45720Y6350
X-48260Y6350
X-50800Y6350
X-55880Y6350
X-68580Y6350
X-71120Y6350
X-73660Y6350
X-76200Y6350
X-78740Y6350
X-81280Y6350
X-83820Y6350
X-86360Y6350
X-88900Y6350
X-91440Y6350
X-93980Y6350
X-96520Y6350
X-99060Y6350
X-101600Y6350
X-104140Y6350
X-106680Y6350
X-25400Y3810
X-20320Y3810
X-22860Y3810
X-27940Y3810
T6
X-27432Y74524
X-22555Y69647
X-78334Y84125
X-48311Y46634
X-27280Y40996
X-52121Y76810
X-42824Y67513
X-30480Y64160
X-57760Y36881
X-40234Y75133
X-24689Y55016
X-58826Y85344
X-57607Y84125
X-25298Y56540
X-58369Y62332
X-104394Y29413
X-109576Y55778
X-36881Y51206
X-40386Y45415
X-69037Y24841
X-68275Y21488
X-48616Y28956
X-60046Y41300
X-60046Y38862
X-58674Y37490
X-45720Y72695
X-35509Y35966
X-39319Y45415
X-45720Y51816
X-36271Y36576
X-44501Y86258
X-53950Y51816
X-49530Y57760
X-56236Y63551
X-42062Y40081
X-44653Y40691
X-45263Y38557
X-54254Y38557
X-48311Y81991
X-97079Y86411
X-59131Y68123
X-70256Y79705
X-57455Y22860
X-44196Y37033
X-47701Y71476
X-42824Y66599
X-59741Y67056
X-58064Y29566
X-64313Y92354
X-49378Y85344
X-54712Y98755
X-32614Y47244
X-32766Y52578
X-104851Y81229
X-70866Y68885
X-33376Y48006
X-33376Y51816
X-104851Y83820
X-85801Y84430
X-71628Y84734
X-48463Y79705
X-42062Y49987
X-37033Y56998
X-55626Y64770
X-108204Y86258
X-84582Y82906
X-15088Y37186
X-39319Y99060
X-44806Y64770
X-24536Y40386
X-26365Y47092
X-33985Y53188
X-45568Y95250
X-34595Y66904
X-49682Y94640
X-32614Y67666
X-40538Y74219
X-32461Y99212
X-83668Y99212
X-88087Y97841
X-37033Y83515
X-40081Y83515
X-84430Y83972
X-66904Y98755
X-86563Y98450
X-15850Y54712
X-106223Y99212
X-55626Y56236
X-22250Y70561
X-21488Y67513
X-50444Y91592
X-29566Y79400
X-29870Y86411
X-24384Y65837
X-21946Y64160
X-49225Y90983
X-33680Y25146
M30